<svg width="572" height="535" viewBox="0 0 572 535" fill="none" xmlns="http://www.w3.org/2000/svg">
<path fill-rule="evenodd" clip-rule="evenodd" d="M216.25 501.52C157.77 501.52 110.07 453.82 110.07 395.34C110.07 336.86 157.77 289.16 216.25 289.16C274.73 289.16 322.43 336.86 322.43 395.34C322.43 453.82 274.73 501.52 216.25 501.52Z" fill="#E3E0FF"/>
<path fill-rule="evenodd" clip-rule="evenodd" d="M274.63 414.58C161.31 414.58 68.8899 322.16 68.8899 208.84C68.8899 95.52 161.31 3.09998 274.63 3.09998C387.95 3.09998 480.37 95.52 480.37 208.84C480.37 322.16 387.95 414.58 274.63 414.58Z" fill="#E3E0FF"/>
<path fill-rule="evenodd" clip-rule="evenodd" d="M477.18 518.53C390.73 518.53 320.22 448.02 320.22 361.57C320.22 275.12 390.73 204.61 477.18 204.61C512.32 204.61 544.83 216.26 571.04 235.9V487.23C544.83 506.88 512.32 518.53 477.18 518.53Z" fill="#E3E0FF"/>
<path fill-rule="evenodd" clip-rule="evenodd" d="M454.31 336.12C363.03 336.12 288.58 261.67 288.58 170.39C288.58 79.1099 363.03 4.65991 454.31 4.65991C499.77 4.65991 541.04 23.1299 571.04 52.9399V287.85C541.05 317.65 499.77 336.12 454.31 336.12Z" fill="#E3E0FF"/>
<path fill-rule="evenodd" clip-rule="evenodd" d="M323.36 509.29L331.18 513.81L339 518.32V509.29V500.27L331.18 504.78L323.36 509.29Z" fill="#E3E0FF"/>
<path fill-rule="evenodd" clip-rule="evenodd" d="M448.79 451.7C452.83 451.7 456.11 454.98 456.11 459.02C456.11 463.06 452.83 466.34 448.79 466.34C444.75 466.34 441.47 463.06 441.47 459.02C441.47 454.98 444.75 451.7 448.79 451.7ZM459.87 464.5C464.65 464.5 464.65 471.76 459.87 471.76C455.09 471.77 455.09 464.5 459.87 464.5Z" fill="white"/>
<path fill-rule="evenodd" clip-rule="evenodd" d="M165.46 257.21C165.46 261.25 162.18 264.53 158.14 264.53C154.1 264.53 150.82 261.25 150.82 257.21C150.82 253.17 154.09 249.89 158.14 249.89C162.19 249.89 165.46 253.17 165.46 257.21ZM152.65 268.29C152.65 270.3 151.03 271.92 149.02 271.92C147.02 271.92 145.39 270.29 145.39 268.29C145.39 266.29 147.02 264.66 149.02 264.66C151.03 264.66 152.65 266.29 152.65 268.29Z" fill="white"/>
<path fill-rule="evenodd" clip-rule="evenodd" d="M477.67 75.8L485.48 80.31L493.3 84.82V75.8V66.77L485.48 71.29L477.67 75.8Z" fill="white"/>
<path fill-rule="evenodd" clip-rule="evenodd" d="M92.3 370.91L94.6399 362.19L96.97 353.47L88.26 355.81L79.54 358.14L85.9199 364.53L92.3 370.91Z" fill="#E3E0FF"/>
<path fill-rule="evenodd" clip-rule="evenodd" d="M205.55 534.16C201.9 534.16 198.93 531.18 198.93 527.54C198.93 523.89 201.91 520.92 205.55 520.92C209.2 520.92 212.17 523.89 212.17 527.54C212.17 531.19 209.2 534.16 205.55 534.16Z" fill="#E3E0FF"/>
<path fill-rule="evenodd" clip-rule="evenodd" d="M571.04 121.66H494.59C482.97 121.66 483.67 135.05 486.14 142.09C488.61 149.14 506.22 190.71 506.22 190.71C506.22 190.71 507.1 194.58 508.61 199.95H571.05V121.66H571.04Z" fill="white"/>
<path fill-rule="evenodd" clip-rule="evenodd" d="M365.95 187.99H202.55C202.55 187.99 187.23 187.99 190.6 171.45C193.97 154.91 228.46 84.15 239.09 73.01C242.02 69.94 253.18 65.8199 269.93 68.5499C302.51 73.8699 353.06 90 386.8 102.43C385.26 111.97 368.96 176.16 365.95 187.99ZM390.62 187.99H375.47L395.92 105.87C403.63 108.83 410.04 111.46 414.56 113.52C447.59 128.57 449.19 166.33 441.96 179.16C434.73 191.97 390.62 187.99 390.62 187.99Z" fill="white"/>
<path d="M463.751 152.791L448.814 194.635L456.282 197.301L471.22 155.457L463.751 152.791Z" fill="#CFC7FF"/>
<path fill-rule="evenodd" clip-rule="evenodd" d="M395.07 352.42L400.01 435.05H271.06L292.2 312.26L371.12 300.28L395.07 352.42Z" fill="#CFC7FF"/>
<path fill-rule="evenodd" clip-rule="evenodd" d="M413.05 200.72L431.93 181.55H518.18C518.18 181.55 531.75 181.63 537.74 194.67C543.73 207.7 541.44 223.21 541.44 223.21H562.05V435.05H336.16V289.45L413.05 200.72Z" fill="#CFC7FF"/>
<path fill-rule="evenodd" clip-rule="evenodd" d="M505.21 133.74C527.34 132.35 528.89 141.83 520.96 163.05C517.06 173.46 506.59 173.76 506.59 173.76H470.27C455.5 173.76 451.56 172.63 449.17 170.52C446.77 168.41 450.56 153.5 454.53 144.45C458.99 134.27 466.65 133.74 468.9 133.74H505.21Z" fill="#CFC7FF"/>
<path d="M506.326 148.776L491.393 190.62L498.862 193.285L513.795 151.441L506.326 148.776Z" fill="#CFC7FF"/>
<path fill-rule="evenodd" clip-rule="evenodd" d="M562.05 435.05L522.59 317.85C533 308.85 552.81 304.79 571.04 299.57V435.04H562.05V435.05Z" fill="#CFC7FF"/>
<path fill-rule="evenodd" clip-rule="evenodd" d="M571.04 331.35C559.75 344.92 548.06 357.81 538.86 366.93C535.74 370.02 532.91 372.68 530.48 374.78L521.46 268.41L562.04 223.21H571.03V331.35H571.04Z" fill="#CFC7FF"/>
<path d="M454.79 320.52H314.43V346.25H454.79V320.52Z" fill="#CFC7FF"/>
<path fill-rule="evenodd" clip-rule="evenodd" d="M0.439941 62.94C0.439941 62.94 11.62 111.27 41.21 129.35C70.8 147.43 80.66 148.42 86.25 163.21C91.58 177.32 108.42 250.03 99.8601 278.7H105.87C112.03 243.54 97.3499 187.91 88.6899 152.73C88.9499 147.67 89.39 143.71 89.99 141.31C93.82 125.97 103.51 123.84 130.79 102.44C158.08 81.04 163.57 31.74 163.57 31.74C118.41 91.88 90.4701 72.93 85.3701 141.27C71.0501 99.66 45.8199 110.63 0.439941 62.94Z" fill="#CFC7FF"/>
<path fill-rule="evenodd" clip-rule="evenodd" d="M189.08 108.46C135.66 132.59 97.12 218.43 81.5 279.7C86.8 294.07 93.6601 307.69 101.87 320.36C113.7 271.94 153.65 222.81 196.85 198.12C147.77 208.08 103.01 238.74 88.02 288.3C110.78 188.12 181.99 153.31 189.08 108.46Z" fill="#CFC7FF"/>
<path d="M310.35 350.75H571.04V353.34H310.35V350.75ZM516.55 138.89L508.97 167.18L506.47 166.51L514.05 138.22L516.55 138.89ZM523.57 192.23L489.54 319.22H571.03V321.81H426.35V319.22H486.85L521.06 191.56L523.57 192.23Z" fill="white"/>
<path fill-rule="evenodd" clip-rule="evenodd" d="M176.64 77.36C176.64 77.36 176.64 61.29 187.01 51.97C197.38 42.64 214.48 45.23 214.48 45.23C214.48 45.23 211.88 73.73 176.64 77.36Z" fill="#CFC7FF"/>
<path fill-rule="evenodd" clip-rule="evenodd" d="M48.6101 171.39C48.6101 171.39 48.27 163.93 40.47 158.16C32.67 152.39 24.8701 152.05 24.8701 152.05C24.8701 152.05 25.8901 171.73 48.6101 171.39Z" fill="#E3E0FF"/>
<path fill-rule="evenodd" clip-rule="evenodd" d="M153.32 297.38C147.91 287.5 137.42 280.8 125.36 280.8C121.18 280.8 117.18 281.61 113.52 283.07C109.57 292.6 105.69 304.69 101.86 320.35C107.26 328.68 113.25 336.61 119.77 344.06C120.5 344.9 121.24 345.73 121.98 346.55C114.37 361.17 110.07 377.77 110.07 395.33C110.07 409.36 112.81 422.76 117.79 435.04H226.22C226.22 435.04 224.61 426.1 229.21 424.4L257.71 413.88L259.81 413.11V408.59C259.81 408.59 260.07 406.92 261.34 406.92H262.6V402.81V381.17V318.2L230.5 348.49C229.24 348.07 228.05 347.65 226.94 347.22L219.74 354.42L210.03 372.26C200.35 372.12 197.36 367.7 191.06 364.65C176.97 357.83 162.6 351.05 155.56 343.02C155.56 343.02 158.64 334.47 163.46 335.3L195.6 340.82L197.86 336.9C197.86 336.9 198.93 335.58 200.02 336.21L203.95 338.48L209.1 329.56C209.1 329.56 211.22 325.89 214.56 320.16C218.48 313.43 224.1 303.86 229.95 294.05C230.69 292.82 231.43 291.58 232.17 290.34C240.56 276.35 249.07 262.51 253.54 256.31C253.56 256.29 253.57 256.26 253.59 256.24C246.3 242.22 231.64 232.64 214.74 232.64C190.57 232.64 170.98 252.23 170.98 276.4C170.98 280.71 171.6 284.88 172.77 288.82H172.79C172.22 288.78 171.64 288.75 171.05 288.75C163.86 288.77 157.45 292.14 153.32 297.38Z" fill="#CFC7FF"/>
<path fill-rule="evenodd" clip-rule="evenodd" d="M166.12 411.4C166.12 411.4 165.78 403.94 157.98 398.17C150.18 392.4 142.38 392.07 142.38 392.07C142.38 392.07 143.39 411.74 166.12 411.4Z" fill="#E3E0FF"/>
<path fill-rule="evenodd" clip-rule="evenodd" d="M537.92 103.09C537.92 103.09 538.26 95.63 546.06 89.86C553.86 84.09 561.66 83.75 561.66 83.75C561.66 83.75 560.65 103.43 537.92 103.09Z" fill="#CFC7FF"/>
<path fill-rule="evenodd" clip-rule="evenodd" d="M89.1399 40.4599L81.3201 35.9499L73.5 31.4299L81.3201 26.9199L89.1399 22.4099V31.4299V40.4599Z" fill="#E3E0FF"/>
<path fill-rule="evenodd" clip-rule="evenodd" d="M566.33 23.96C566.33 23.96 565.92 14.95 556.5 7.97997C547.08 1.00997 537.65 0.599976 537.65 0.599976C537.65 0.599976 538.88 24.37 566.33 23.96Z" fill="#E3E0FF"/>
<path fill-rule="evenodd" clip-rule="evenodd" d="M191.46 268.7L253.55 256.33L260.98 284.09H322.22L292.51 435.05H182.88L191.46 268.7Z" fill="#CFC7FF"/>
<path fill-rule="evenodd" clip-rule="evenodd" d="M262.6 381.18V413.24L284.91 419.05L295.43 379.79L262.6 381.18Z" fill="#FFABCC"/>
<path fill-rule="evenodd" clip-rule="evenodd" d="M220.05 331.11L209.1 329.57L200.44 344.58L214.85 359.32L234.91 339.27L220.05 331.11Z" fill="#FFABCC"/>
<path fill-rule="evenodd" clip-rule="evenodd" d="M413.96 217.11C413.96 217.11 380.49 204.35 372.8 206.62C365.11 208.89 338.81 235.43 332.93 246.94C327.06 258.45 327.29 266.67 327.29 266.67L412.55 296.97C412.55 296.97 434.16 256.1 433.69 246.48C433.22 236.84 413.96 217.11 413.96 217.11Z" fill="#2678FA"/>
<path fill-rule="evenodd" clip-rule="evenodd" d="M337.5 222.62L335.02 225.05L330.04 236.77L328.4 249.45L339.76 257.82L356.58 222.44L337.5 222.62Z" fill="#ED87AB"/>
<path fill-rule="evenodd" clip-rule="evenodd" d="M324.09 265.7L344.07 258.8L314.98 204.56C314.98 204.56 313.52 202 310.07 201.39C306.62 200.78 273.48 194.93 273.48 194.93C273.48 194.93 271.66 194.6 271.09 195.81C270.52 197.02 270.23 197.64 270.23 197.64C270.23 197.64 269.26 199.21 270.62 201.57C271.98 203.93 284.49 225.59 284.49 225.59L288.17 249.52L324.09 265.7Z" fill="#E3E0FF"/>
<path fill-rule="evenodd" clip-rule="evenodd" d="M317.05 208.39L314.99 204.55C314.99 204.55 313.53 201.99 310.08 201.38L307.39 200.91L299.76 208.54L308.33 217.11L317.05 208.39Z" fill="white"/>
<path fill-rule="evenodd" clip-rule="evenodd" d="M324.09 265.7L339.05 260.53L311.11 208.43C311.11 208.43 309.65 205.87 306.2 205.26L269.91 198.85C269.87 199.53 269.99 200.46 270.63 201.56C271.99 203.92 284.5 225.58 284.5 225.58L288.18 249.51L324.09 265.7Z" fill="#C7C2FF"/>
<path fill-rule="evenodd" clip-rule="evenodd" d="M434.19 171.97L434.6 167.44L429.16 164.3C429.16 164.3 410.73 175.67 407.85 175.26C404.97 174.85 402.37 174.19 402.37 174.19L397.57 174.85C397.57 174.85 393.87 181.02 396.74 184.73C399.62 188.43 403.74 188.84 409.09 188.02C414.44 187.2 423.08 182.26 434.19 171.97Z" fill="#ED87AB"/>
<path fill-rule="evenodd" clip-rule="evenodd" d="M280.7 243.98C280.7 243.98 293.46 247.27 296.75 248.51C300.04 249.74 301.28 249.74 301.28 249.74C301.28 249.74 295.93 236.57 294.7 235.75C293.46 234.93 288.94 233.28 288.94 233.28L284.49 225.58C284.49 225.58 279.88 227.52 278.65 230.81C277.41 234.11 280.7 243.98 280.7 243.98Z" fill="#FFABCC"/>
<path fill-rule="evenodd" clip-rule="evenodd" d="M342.43 301.59L365.68 320.52H314.43V320.54C313.51 320.46 312.94 320.45 312.8 320.52C311.7 321.07 302.47 357.81 296.5 382.01C293.56 393.94 291.41 402.82 291.41 402.82C282.4 407.75 270.8 405.87 262.6 402.82V286.78C262.6 286.78 288.94 271.14 297.17 274.44C305.39 277.72 342.43 301.59 342.43 301.59Z" fill="#4D128F"/>
<path fill-rule="evenodd" clip-rule="evenodd" d="M386.26 127.4C386.26 127.4 377.6 127.2 371.56 119.75C365.52 112.3 367.33 105.25 373.17 100.42C379.01 95.59 388.88 99.41 394.51 98.81C400.15 98.21 416.66 91.36 427.94 101.23C440.2 111.96 440.79 144.75 428.63 157.88C416.49 171 386.26 127.4 386.26 127.4Z" fill="#5712A6"/>
<path fill-rule="evenodd" clip-rule="evenodd" d="M414.95 146.05L430.36 137.54L426.45 142.6L433.55 169.08L405.36 185.35L394.19 143.66L414.95 146.05Z" fill="#ED87AB"/>
<path fill-rule="evenodd" clip-rule="evenodd" d="M422.69 131.28C432.95 113.58 440.59 145.92 425.58 146.52C425.58 146.52 425.39 158.1 423.27 160.61C421.15 163.12 410.53 170.84 402.82 172.19C395.1 173.54 390.86 169.87 388.16 159.46C388.04 158.98 387.91 158.46 387.78 157.91V157.9C387.09 154.89 386.35 150.81 385.64 146.43V146.41C385.09 143.1 381.8 137.3 381.41 135.34C381.14 134 381.42 126.91 381.62 122.57C384.07 122.58 386.83 122.37 389.83 121.82C402.57 119.47 408.9 116 408.9 116C408.9 116 411.31 122.99 412.66 125.7C414.01 128.4 416.13 131.49 416.52 134.58C416.9 137.67 417.68 141.33 417.68 141.33L423.08 137.47L422.69 131.28Z" fill="#FFABCC"/>
<path fill-rule="evenodd" clip-rule="evenodd" d="M394.21 162.59C394.23 162.59 402.38 164.68 406.07 155.25L403.71 154.33C400.83 161.68 394.8 160.13 394.78 160.12L394.21 162.59Z" fill="#ED87AB"/>
<path fill-rule="evenodd" clip-rule="evenodd" d="M447.77 255.5H461.76L481.51 220.93C485.19 214.5 484.8 203.65 474.93 192.13C465.05 180.61 434.6 167.44 434.6 167.44C434.6 167.44 427.19 178.14 415.67 180.61C404.15 183.08 397.57 174.85 397.57 174.85C397.57 174.85 369.59 178.97 357.24 189.66C344.9 200.36 335.02 225.05 335.02 225.05L391.81 238.22L422.26 263.73L447.77 255.5Z" fill="#2678FA"/>
<path fill-rule="evenodd" clip-rule="evenodd" d="M439.82 199.87C439.8 199.93 431.45 219.66 428.26 229.6L430.67 230.37C433.84 220.52 442.13 200.9 442.15 200.85L439.82 199.87Z" fill="white"/>
<path fill-rule="evenodd" clip-rule="evenodd" d="M417.32 281.84C417.32 281.84 285.64 240.69 281.53 240.69C277.41 240.69 264.25 241.51 253.55 256.33C248.68 263.08 239.03 278.87 229.96 294.07C219.12 312.25 209.11 329.58 209.11 329.58C212.02 338.94 216.45 343.84 230.51 348.51L288.94 293.37C288.94 293.37 314.92 307.34 339.21 319.81L340.61 320.52H419.87C428.7 305.15 434.61 282.66 434.61 282.66L417.32 281.84Z" fill="#5712A6"/>
<path fill-rule="evenodd" clip-rule="evenodd" d="M357.4 235.34H345.47L341.65 203.65H338.06V200.36H341.95L343.41 196.25C352.74 196.25 362.06 196.25 371.39 196.25L372.85 200.36H376.74V203.65H373.15L369.33 235.34H357.4Z" fill="white"/>
<path fill-rule="evenodd" clip-rule="evenodd" d="M356.05 226.92C351.09 226.92 347.05 222.39 347.05 216.84C347.05 211.29 351.1 206.76 356.05 206.76C361.01 206.76 365.06 211.29 365.06 216.84C365.06 222.39 361.01 226.92 356.05 226.92Z" fill="#78E3CC"/>
<path fill-rule="evenodd" clip-rule="evenodd" d="M373.88 243.98C376.13 244.99 418.14 295.83 426.37 297.47C434.6 299.11 438.71 295 441.18 291.71C443.65 288.42 461.76 255.5 461.76 255.5C461.76 255.5 456 246.45 448.59 241.51C441.18 236.57 428.84 233.28 428.84 233.28L421.84 247.68L389.33 228.34C389.33 228.34 385.89 221.14 381.53 217.15C377.18 213.15 371.96 213.45 371.96 213.45L371.44 217.8C371.44 217.8 358.06 218.47 352.3 217.64C346.54 216.82 342.96 214.52 342.96 214.52C340.58 217.03 340.18 219.45 340.85 221.81C341.44 224.01 341.68 223.45 342.43 227.52C344.84 240.6 352.54 239.45 365.82 242.6C369.39 243.45 371.63 242.97 373.88 243.98Z" fill="#FFABCC"/>
<path fill-rule="evenodd" clip-rule="evenodd" d="M421.52 248.12L434.19 255.65L435.48 253.47L422.81 245.93L421.52 248.12Z" fill="#ED87AB"/>
<path fill-rule="evenodd" clip-rule="evenodd" d="M377.51 217.67C377.5 217.67 375.9 217.02 371.66 216.43L371.45 218C375.48 218.56 376.9 219.13 376.91 219.13L377.51 217.67Z" fill="#ED87AB"/>
<path d="M369.01 203.47H342.35V204.74H369.01V203.47Z" fill="#E3E0FF"/>
<path fill-rule="evenodd" clip-rule="evenodd" d="M294.79 217.63C292.32 217.63 291.48 219.63 292.9 222.09C294.32 224.55 297.47 226.55 299.94 226.55C302.41 226.55 303.25 224.55 301.83 222.09C300.4 219.62 297.25 217.63 294.79 217.63Z" fill="#E3E3FA"/>
<path fill-rule="evenodd" clip-rule="evenodd" d="M286.64 229.31L288.94 233.29L285.48 232L281.73 230.6L285.24 230.43C285.23 230.42 285.77 229.96 286.64 229.31Z" fill="#ED87AB"/>
<path fill-rule="evenodd" clip-rule="evenodd" d="M321.47 216.65L331.02 234.45L332.94 238.03L329.42 241.55L329.06 241.91L317.6 220.52L321.47 216.65Z" fill="white"/>
<path fill-rule="evenodd" clip-rule="evenodd" d="M288.07 413.24V435.04H226.23C226.23 435.04 224.62 426.1 229.22 424.4C239.18 420.72 259.81 413.11 259.81 413.11V408.59C259.81 408.59 260.07 406.92 261.34 406.92C262.6 406.92 266.6 406.92 266.6 406.92C266.6 406.92 268.42 406.89 268.42 408.39C268.42 409.89 268.42 413.24 268.42 413.24C273.87 416.52 280.73 415.61 288.07 413.24Z" fill="#4D128F"/>
<path fill-rule="evenodd" clip-rule="evenodd" d="M219.74 354.43L210.03 372.27C200.35 372.13 197.36 367.71 191.06 364.66C176.97 357.84 162.6 351.06 155.56 343.03C155.56 343.03 158.64 334.48 163.46 335.31C173.92 337.11 195.6 340.83 195.6 340.83L197.86 336.91C197.86 336.91 198.93 335.59 200.02 336.22C201.11 336.85 204.57 338.85 204.57 338.85C204.57 338.85 206.16 339.73 205.41 341.03C204.66 342.33 202.99 345.23 202.99 345.23C206.82 349.79 211.37 353.02 219.74 354.43Z" fill="#4D128F"/>
</svg>
