<svg width="140" height="41" viewBox="0 0 140 41" fill="none" xmlns="http://www.w3.org/2000/svg">
<path fill-rule="evenodd" clip-rule="evenodd" d="M0.169884 36.57C0.389884 38.26 1.34993 39.2598 2.46993 39.8798C3.76993 40.5998 5.92001 40.3898 7.55001 40.3898C48.54 40.3898 89.54 40.3898 130.53 40.3898C131.88 40.3898 134.96 40.5399 136.1 40.2799C137.54 39.9499 138.64 38.9299 139.16 37.7599C139.7 36.5199 139.52 33.9999 139.52 32.4899C139.52 29.5699 139.64 5.75996 139.48 4.57996C139.27 2.99996 138.21 1.78989 137.13 1.24989C135.74 0.559886 133.74 0.779915 132.04 0.779915H9.06002C5.07002 0.779915 1.88994 0.169827 0.479942 3.43983C-0.0500577 4.66983 0.129845 7.14979 0.129845 8.64979C0.129845 11.5898 0.00988368 35.39 0.169884 36.57Z" fill="black"/>
<path fill-rule="evenodd" clip-rule="evenodd" d="M78.16 13.47H79.16L79.15 8.71002C79.16 8.73002 79.18 8.73007 79.19 8.76007L81.45 12.2901C82.29 13.6701 82.01 13.47 83.2 13.46V7.09015L82.19 7.08014L82.0801 11.41L81.7701 10.9901C81.6301 10.7701 81.56 10.64 81.43 10.44C81.16 10.01 80.96 9.72012 80.7 9.31012C80.26 8.60012 79.6601 7.77014 79.3001 7.08014L78.15 7.07013L78.16 13.47ZM48.89 10.0201C48.41 9.89008 46.26 9.94004 45.65 9.98004L45.66 10.89L47.8799 10.91C47.7799 13.11 44.1001 13.3101 43.5201 10.9901C43.0701 9.20005 44.32 7.72002 46.18 7.96002C47.01 8.07002 47.0801 8.46998 47.5301 8.66998C47.7601 8.43998 48.02 8.26999 48.14 7.92999C45.19 5.26999 41.17 8.48001 42.71 11.7C44.2 14.82 49.41 14.0201 48.89 10.0201ZM73.0601 7.05011C71.5001 7.46011 70.16 9.01016 70.68 11.1002C71.73 15.3502 78.23 13.79 77.14 9.42999C76.75 7.86999 75.0701 6.52011 73.0601 7.05011ZM76.14 10.8702C75.56 13.6802 70.96 12.96 71.66 9.67999C71.9 8.54999 73.0501 7.64003 74.5101 7.97003C75.6301 8.23003 76.43 9.44018 76.14 10.8702ZM49.91 13.41L53.7401 13.42V12.5401L51.0101 12.5301V10.7401L53.44 10.71L53.45 9.80011H51.0101V8.02008L53.7601 8.01007V7.09015L49.9 7.06012L49.91 13.41ZM63.64 8.03009L65.39 8.0401L65.4 13.48H65.5001H66.4V8.05011L68.15 8.0401L68.16 7.08014H63.66L63.64 8.03009ZM54.4 8.0401L56.1299 8.03009L56.14 13.43L57.15 13.47V8.0401L58.89 8.03009L58.9 7.12018L54.4 7.08014V8.0401ZM61.8101 13.42L62.8201 13.47V7.09015L61.8101 7.08014V13.42Z" fill="white"/>
<path fill-rule="evenodd" clip-rule="evenodd" d="M30.2701 8.00993C29.6901 7.46993 28.5001 7.63989 27.8601 7.96989C27.5501 7.95989 23.3801 9.17002 22.8601 9.36002L6.29008 13.9899C5.61008 14.1899 4.69007 14.49 4.53007 15.37C4.48007 15.63 4.48006 15.4499 4.52006 15.6999C4.51006 16.0799 4.59001 16.3599 4.97001 16.6999C5.02001 17.0899 12.3301 24.1898 13.2601 25.1298C14.6801 26.5498 16.1001 27.9698 17.5201 29.3898C18.8201 30.6898 20.38 32.42 21.75 33.55C22.16 33.72 22.2699 33.86 22.6399 33.81C23.5299 34.11 24.1301 32.76 24.3201 32.05C24.5401 31.24 24.77 30.4798 24.99 29.6698C25.42 28.0798 25.8801 26.5098 26.3401 24.9098L28.99 15.4599C29.43 14.1799 29.7699 12.6898 30.1399 11.3798C30.4299 10.3898 31.1101 8.78993 30.2701 8.00993ZM16.5801 28.1498L16.41 27.9399L16.94 28.6L16.5801 28.1498Z" fill="#00F075"/>
<path d="M51.1399 28.21C51.2099 28.21 51.2701 28.22 51.3401 28.25C51.4101 28.28 51.47 28.3199 51.53 28.3799L52.6599 29.5701C52.1599 30.2201 51.54 30.71 50.8 31.03C50.05 31.36 49.1699 31.52 48.1499 31.52C47.2199 31.52 46.3799 31.36 45.6399 31.04C44.8999 30.72 44.27 30.28 43.76 29.72C43.25 29.16 42.8501 28.5 42.5701 27.73C42.2901 26.96 42.1599 26.13 42.1599 25.23C42.1599 24.31 42.3199 23.47 42.6299 22.7C42.9499 21.93 43.39 21.27 43.95 20.71C44.52 20.15 45.19 19.7199 45.98 19.4099C46.77 19.0999 47.6401 18.95 48.5901 18.95C49.0501 18.95 49.4899 18.9901 49.8899 19.0701C50.2999 19.1501 50.68 19.2599 51.03 19.4099C51.38 19.5599 51.71 19.7299 52.01 19.9199C52.31 20.1199 52.57 20.3401 52.8 20.5801L51.8401 21.8701C51.7801 21.9501 51.7101 22.0201 51.6201 22.0801C51.5401 22.1501 51.42 22.1799 51.27 22.1799C51.17 22.1799 51.07 22.1601 50.98 22.1101C50.89 22.0701 50.7899 22.01 50.6899 21.95C50.5899 21.89 50.4801 21.82 50.3601 21.74C50.2401 21.66 50.0999 21.59 49.9299 21.53C49.7599 21.47 49.5701 21.4101 49.3501 21.3601C49.1301 21.3201 48.8701 21.29 48.5701 21.29C48.0501 21.29 47.5799 21.3801 47.1499 21.5601C46.7199 21.7401 46.36 22.0001 46.05 22.3501C45.74 22.6901 45.5001 23.1001 45.3301 23.5901C45.1601 24.0701 45.0701 24.62 45.0701 25.22C45.0701 25.85 45.1601 26.4099 45.3301 26.8999C45.5001 27.3899 45.74 27.7999 46.03 28.1399C46.33 28.4699 46.6701 28.7299 47.0601 28.8999C47.4501 29.0699 47.8801 29.1599 48.3301 29.1599C48.5901 29.1599 48.83 29.1501 49.04 29.1201C49.25 29.0901 49.4499 29.05 49.6299 28.99C49.8099 28.93 49.9899 28.85 50.1499 28.75C50.3199 28.65 50.4799 28.5299 50.6499 28.3799C50.7199 28.3199 50.7901 28.28 50.8701 28.24C50.9801 28.23 51.0599 28.21 51.1399 28.21Z" fill="white"/>
<path d="M56.6699 18.76V31.3899H54.05V18.76H56.6699Z" fill="white"/>
<path d="M64.8201 31.3899C64.5701 31.3899 64.39 31.36 64.26 31.29C64.13 31.22 64.0299 31.0801 63.9399 30.8701L63.75 30.3899C63.53 30.5799 63.3201 30.7399 63.1201 30.8799C62.9201 31.0199 62.71 31.14 62.49 31.24C62.27 31.34 62.04 31.41 61.8 31.46C61.56 31.51 61.28 31.53 60.99 31.53C60.59 31.53 60.2299 31.4801 59.8999 31.3701C59.5699 31.2701 59.3001 31.1099 59.0701 30.9099C58.8401 30.7099 58.67 30.4599 58.54 30.1599C58.41 29.8599 58.3501 29.5101 58.3501 29.1201C58.3501 28.8101 58.4301 28.4899 58.5901 28.1699C58.7501 27.8499 59.0199 27.55 59.4099 27.28C59.7999 27.01 60.32 26.7901 60.98 26.6101C61.64 26.4301 62.47 26.3301 63.47 26.3101V25.9399C63.47 25.4299 63.3599 25.0601 63.1499 24.8301C62.9399 24.6001 62.64 24.49 62.25 24.49C61.94 24.49 61.69 24.5201 61.49 24.5901C61.29 24.6601 61.12 24.7301 60.96 24.8201C60.8 24.9001 60.65 24.98 60.51 25.05C60.37 25.12 60.19 25.1499 59.99 25.1499C59.81 25.1499 59.66 25.11 59.53 25.02C59.4 24.93 59.3 24.8199 59.23 24.6899L58.76 23.8701C59.29 23.4001 59.88 23.0601 60.52 22.8301C61.16 22.6001 61.8501 22.49 62.5901 22.49C63.1201 22.49 63.6 22.58 64.02 22.75C64.44 22.92 64.8101 23.16 65.1001 23.47C65.4001 23.78 65.62 24.1401 65.78 24.5601C65.94 24.9801 66.02 25.4399 66.02 25.9399V31.4099H64.8201V31.3899ZM61.8101 29.8C62.1501 29.8 62.44 29.7401 62.7 29.6201C62.96 29.5001 63.21 29.31 63.47 29.05V27.8401C62.95 27.8601 62.5099 27.91 62.1799 27.97C61.8399 28.04 61.5699 28.12 61.3799 28.22C61.1799 28.32 61.05 28.4401 60.97 28.5701C60.89 28.7001 60.8601 28.84 60.8601 28.99C60.8601 29.29 60.9401 29.5001 61.1101 29.6201C61.2601 29.7401 61.5001 29.8 61.8101 29.8Z" fill="white"/>
<path d="M71.1201 33.6599C71.0401 33.8299 70.9501 33.96 70.8301 34.04C70.7201 34.12 70.54 34.1599 70.29 34.1599H68.3301L70.02 30.6201L66.53 22.6399H68.8401C69.0401 22.6399 69.2001 22.68 69.3101 22.77C69.4201 22.86 69.5 22.9701 69.55 23.0901L70.98 26.8601C71.11 27.2101 71.2301 27.5599 71.3101 27.9099C71.3701 27.7299 71.43 27.5499 71.5 27.3799C71.57 27.2099 71.6299 27.0301 71.6899 26.8501L72.99 23.1001C73.03 22.9701 73.12 22.86 73.26 22.77C73.4 22.68 73.5299 22.6399 73.6899 22.6399H75.8L71.1201 33.6599Z" fill="white"/>
<path d="M86.99 21.5901C86.91 21.7301 86.82 21.8299 86.72 21.8899C86.63 21.9599 86.5101 21.99 86.3601 21.99C86.2301 21.99 86.0899 21.9501 85.9399 21.8701C85.7899 21.7901 85.6199 21.7001 85.4299 21.6001C85.2399 21.5001 85.03 21.4101 84.78 21.3301C84.54 21.2501 84.26 21.21 83.95 21.21C83.41 21.21 83.02 21.32 82.76 21.55C82.5 21.78 82.3701 22.09 82.3701 22.47C82.3701 22.72 82.4501 22.9201 82.6101 23.0901C82.7701 23.2601 82.97 23.39 83.23 23.51C83.49 23.63 83.7801 23.7401 84.1101 23.8401C84.4401 23.9401 84.7801 24.0499 85.1201 24.1699C85.4601 24.2899 85.7999 24.4301 86.1299 24.6001C86.4599 24.7601 86.75 24.97 87.01 25.22C87.27 25.47 87.4699 25.7799 87.6299 26.1399C87.7899 26.4999 87.8701 26.94 87.8701 27.45C87.8701 28.02 87.7701 28.55 87.5801 29.04C87.3801 29.54 87.1 29.9701 86.72 30.3401C86.34 30.7101 85.8801 31 85.3401 31.21C84.7901 31.42 84.17 31.53 83.47 31.53C83.09 31.53 82.7 31.4899 82.3 31.4099C81.9 31.3299 81.5199 31.2201 81.1499 31.0801C80.7799 30.9401 80.4301 30.7701 80.1001 30.5701C79.7701 30.3701 79.49 30.1499 79.25 29.9099L80.0901 28.5801C80.1501 28.4801 80.2401 28.4001 80.3501 28.3401C80.4601 28.2801 80.58 28.25 80.71 28.25C80.88 28.25 81.05 28.2999 81.22 28.4099C81.39 28.5199 81.59 28.64 81.8 28.76C82.02 28.89 82.27 29.0101 82.55 29.1101C82.83 29.2101 83.16 29.27 83.55 29.27C84.07 29.27 84.47 29.1599 84.76 28.9299C85.05 28.6999 85.1899 28.3401 85.1899 27.8501C85.1899 27.5601 85.11 27.3299 84.95 27.1499C84.79 26.9699 84.5901 26.82 84.3301 26.7C84.0701 26.58 83.78 26.4799 83.46 26.3899C83.13 26.2999 82.8 26.2001 82.46 26.0901C82.12 25.9801 81.78 25.8399 81.46 25.6799C81.13 25.5199 80.8401 25.31 80.5901 25.05C80.3401 24.79 80.13 24.4601 79.97 24.0701C79.81 23.6801 79.73 23.2001 79.73 22.6201C79.73 22.1601 79.82 21.71 80.01 21.27C80.2 20.83 80.4701 20.4401 80.8301 20.1001C81.1901 19.7601 81.6299 19.48 82.1599 19.28C82.6799 19.07 83.28 18.97 83.96 18.97C84.34 18.97 84.7001 19.0001 85.0601 19.0601C85.4201 19.1201 85.7601 19.2101 86.0801 19.3201C86.4001 19.4401 86.7 19.57 86.98 19.73C87.26 19.89 87.51 20.07 87.73 20.27L86.99 21.5901Z" fill="white"/>
<path d="M92.3501 31.53C91.9301 31.53 91.57 31.4701 91.25 31.3501C90.93 31.2301 90.67 31.0601 90.45 30.8401C90.23 30.6201 90.07 30.35 89.96 30.03C89.85 29.71 89.79 29.36 89.79 28.98V24.46H89.05C88.92 24.46 88.8 24.4201 88.7 24.3301C88.6 24.2401 88.5601 24.12 88.5601 23.95V22.9299L89.95 22.6599L90.46 20.53C90.53 20.26 90.72 20.1201 91.03 20.1201H92.3999V22.6799H94.53V24.47H92.3999V28.8201C92.3999 29.0201 92.45 29.1901 92.55 29.3201C92.65 29.4501 92.79 29.52 92.98 29.52C93.08 29.52 93.16 29.51 93.22 29.49C93.28 29.47 93.3399 29.4499 93.3899 29.4199C93.4399 29.3899 93.48 29.3701 93.52 29.3501C93.56 29.3301 93.6099 29.3201 93.6699 29.3201C93.7499 29.3201 93.8101 29.3401 93.8601 29.3701C93.9101 29.4101 93.96 29.46 94.01 29.54L94.8 30.78C94.46 31.03 94.0799 31.2201 93.6599 31.3501C93.2399 31.4601 92.8001 31.53 92.3501 31.53Z" fill="white"/>
<path d="M99.9299 22.5C100.59 22.5 101.2 22.6001 101.74 22.8101C102.29 23.0201 102.75 23.32 103.15 23.71C103.54 24.1 103.84 24.5701 104.06 25.1201C104.28 25.6701 104.39 26.3 104.39 26.99C104.39 27.69 104.28 28.3199 104.06 28.8799C103.84 29.4399 103.54 29.9201 103.15 30.3101C102.76 30.7001 102.29 31 101.74 31.21C101.19 31.42 100.59 31.53 99.9299 31.53C99.2599 31.53 98.6501 31.42 98.1001 31.21C97.5501 31 97.0799 30.7001 96.6799 30.3101C96.2799 29.9201 95.98 29.4399 95.76 28.8799C95.54 28.3199 95.4299 27.69 95.4299 26.99C95.4299 26.3 95.54 25.6801 95.76 25.1201C95.98 24.5701 96.2799 24.09 96.6799 23.71C97.0799 23.32 97.5501 23.0201 98.1001 22.8101C98.6501 22.6101 99.2599 22.5 99.9299 22.5ZM99.9299 29.5801C100.53 29.5801 100.97 29.3699 101.26 28.9399C101.55 28.5099 101.69 27.87 101.69 27C101.69 26.13 101.55 25.4901 101.26 25.0701C100.97 24.6501 100.53 24.4399 99.9299 24.4399C99.3099 24.4399 98.8601 24.6501 98.5701 25.0701C98.2801 25.4901 98.1399 26.14 98.1399 27C98.1399 27.86 98.2801 28.5099 98.5701 28.9399C98.8601 29.3699 99.3099 29.5801 99.9299 29.5801Z" fill="white"/>
<path d="M105.82 31.3899V22.6399H107.37C107.5 22.6399 107.61 22.6499 107.7 22.6699C107.79 22.6899 107.86 22.73 107.92 22.78C107.98 22.83 108.02 22.89 108.05 22.97C108.08 23.05 108.11 23.14 108.13 23.26L108.27 24.0801C108.59 23.5801 108.95 23.1899 109.35 22.9099C109.75 22.6299 110.19 22.48 110.66 22.48C111.06 22.48 111.38 22.58 111.62 22.77L111.28 24.6899C111.26 24.8099 111.21 24.8899 111.15 24.9399C111.09 24.9899 110.99 25.01 110.88 25.01C110.78 25.01 110.67 25 110.54 24.97C110.41 24.94 110.25 24.9299 110.05 24.9299C109.36 24.9299 108.82 25.3 108.43 26.03V31.3999H105.82V31.3899Z" fill="white"/>
<path d="M116.54 22.5C117.12 22.5 117.65 22.59 118.13 22.77C118.61 22.95 119.02 23.2101 119.37 23.5601C119.72 23.9001 119.99 24.3201 120.18 24.8201C120.37 25.3201 120.47 25.88 120.47 26.51C120.47 26.71 120.46 26.87 120.45 26.99C120.43 27.11 120.4 27.21 120.36 27.29C120.31 27.36 120.25 27.4099 120.18 27.4399C120.1 27.4699 120.01 27.48 119.89 27.48H114.84C114.92 28.21 115.15 28.7401 115.51 29.0701C115.87 29.4001 116.33 29.5601 116.9 29.5601C117.2 29.5601 117.47 29.52 117.69 29.45C117.91 29.38 118.11 29.3 118.28 29.2C118.45 29.11 118.61 29.03 118.75 28.96C118.89 28.89 119.04 28.8501 119.2 28.8501C119.41 28.8501 119.57 28.9301 119.67 29.0801L120.43 30.02C120.16 30.33 119.87 30.58 119.56 30.77C119.25 30.96 118.93 31.12 118.6 31.23C118.27 31.34 117.94 31.42 117.61 31.46C117.28 31.5 116.97 31.52 116.67 31.52C116.06 31.52 115.48 31.42 114.94 31.22C114.4 31.02 113.93 30.7201 113.53 30.3301C113.13 29.9401 112.81 29.4501 112.58 28.8601C112.35 28.2701 112.23 27.5901 112.23 26.8201C112.23 26.2301 112.33 25.6799 112.53 25.1599C112.73 24.6399 113.02 24.18 113.39 23.78C113.76 23.39 114.22 23.0701 114.75 22.8401C115.27 22.6201 115.87 22.5 116.54 22.5ZM116.59 24.3101C116.09 24.3101 115.7 24.45 115.42 24.74C115.14 25.03 114.95 25.43 114.86 25.97H118.13C118.13 25.76 118.1 25.5601 118.05 25.3601C118 25.1601 117.91 24.9901 117.79 24.8301C117.67 24.6701 117.51 24.55 117.31 24.45C117.11 24.36 116.87 24.3101 116.59 24.3101Z" fill="white"/>
</svg>
