<svg width="323" height="251" viewBox="0 0 323 251" fill="none" xmlns="http://www.w3.org/2000/svg">
<path fill-rule="evenodd" clip-rule="evenodd" d="M163.28 72.1599L162.28 66.23H200.9C200.9 66.23 217.51 66.77 231.26 71.5C245.01 76.23 276.47 94.1599 276.47 94.1599C276.47 94.1599 288.6 96.6101 300.92 101.33C313.24 106.06 315.81 109.24 315.81 109.24L300.59 126.91C300.59 126.91 211.27 116.78 202.25 108.65C193.23 100.51 163.28 72.1599 163.28 72.1599Z" fill="#993DFF"/>
<path fill-rule="evenodd" clip-rule="evenodd" d="M214.76 94.9299L275.37 96.3601C275.37 96.3601 251.08 81.53 233.8 75.24C216.52 68.95 178.57 70.4099 178.57 70.4099L214.76 94.9299Z" fill="#5712A6"/>
<path fill-rule="evenodd" clip-rule="evenodd" d="M280.85 150.71L274.01 147.83H95.1201L170.82 91.01C170.82 91.01 238.44 96.67 246.91 109C255.37 121.34 280.85 150.71 280.85 150.71Z" fill="#5712A6"/>
<path fill-rule="evenodd" clip-rule="evenodd" d="M153.63 115.49C153.32 115.46 153 115.45 152.68 115.45C144.08 115.45 137.07 124.58 137.07 135.78C137.07 146.98 144.08 156.11 152.68 156.11H160.75C169.37 156.11 176.36 147.01 176.36 135.78C176.36 124.98 169.89 116.15 161.72 115.5H161.7C161.39 115.48 161.07 115.46 160.75 115.46C160.43 115.46 160.11 115.48 159.8 115.5H153.63V115.49Z" fill="#5712A6"/>
<path fill-rule="evenodd" clip-rule="evenodd" d="M282.59 115.49C282.28 115.46 281.96 115.45 281.64 115.45C273.04 115.45 266.03 124.58 266.03 135.78C266.03 146.98 273.04 156.11 281.64 156.11H289.71C298.33 156.11 305.32 147.01 305.32 135.78C305.32 124.98 298.85 116.15 290.68 115.5H290.66C290.35 115.48 290.03 115.46 289.71 115.46C289.39 115.46 289.07 115.48 288.76 115.5H282.59V115.49Z" fill="#5712A6"/>
<path fill-rule="evenodd" clip-rule="evenodd" d="M70.6201 126.44V144.66H114.33V110.27H78.1499L70.6201 126.44Z" fill="#5712A6"/>
<path fill-rule="evenodd" clip-rule="evenodd" d="M229.78 115.45C230.1 115.45 230.42 115.47 230.73 115.49H230.75C238.92 116.14 245.39 124.97 245.39 135.77C245.39 147 238.4 156.1 229.78 156.1H221.71L218.15 149.33C215.68 145.73 214.17 140.98 214.17 135.77C214.17 130.61 215.65 125.9 218.08 122.31L221.71 115.48H228.83C229.14 115.47 229.46 115.45 229.78 115.45Z" fill="#5712A6"/>
<path fill-rule="evenodd" clip-rule="evenodd" d="M221.71 156.11C230.31 156.11 237.31 146.98 237.31 135.78C237.31 124.58 230.3 115.45 221.71 115.45C213.11 115.45 206.1 124.58 206.1 135.78C206.1 146.98 213.11 156.11 221.71 156.11Z" fill="#7D21E8"/>
<path fill-rule="evenodd" clip-rule="evenodd" d="M220.86 150.08C226.9 150.08 231.83 143.66 231.83 135.78C231.83 127.91 226.9 121.49 220.86 121.49C214.81 121.49 209.88 127.91 209.88 135.78C209.89 143.66 214.82 150.08 220.86 150.08Z" fill="#E3E0FF"/>
<path fill-rule="evenodd" clip-rule="evenodd" d="M99.76 115.45C100.08 115.45 100.4 115.47 100.71 115.49H100.73C108.9 116.14 115.37 124.97 115.37 135.77C115.37 147 108.38 156.1 99.76 156.1H91.6899L88.1399 149.33C85.6599 145.73 84.1599 140.98 84.1599 135.77C84.1599 130.61 85.6401 125.9 88.0701 122.31L91.7 115.48H98.8201C99.1301 115.47 99.44 115.45 99.76 115.45Z" fill="#5712A6"/>
<path fill-rule="evenodd" clip-rule="evenodd" d="M91.6899 156.11C100.29 156.11 107.3 146.98 107.3 135.78C107.3 124.58 100.29 115.45 91.6899 115.45C83.0899 115.45 76.0801 124.58 76.0801 135.78C76.0801 146.98 83.0999 156.11 91.6899 156.11Z" fill="#7D21E8"/>
<path fill-rule="evenodd" clip-rule="evenodd" d="M90.8401 150.08C96.8901 150.08 101.82 143.66 101.82 135.78C101.82 127.91 96.8901 121.49 90.8401 121.49C84.8001 121.49 79.8701 127.91 79.8701 135.78C79.8701 143.66 84.8001 150.08 90.8401 150.08Z" fill="#E3E0FF"/>
<path fill-rule="evenodd" clip-rule="evenodd" d="M113.81 144.66H203.74C196.81 121.01 218.39 100.64 233.52 116.04C240.34 122.98 242.62 134.65 239.69 144.66H287.88C290.81 143.13 293.53 141.58 293.99 141.38C295.39 140.78 294.9 136.15 294.9 134.21C294.9 131.17 293.45 129.06 290.94 126.55C285.31 120.92 295.73 116.14 280.38 108.47C271.14 103.85 238.8 96.99 224.81 93.29C210.82 89.59 189.7 65.1701 155.64 66.1001C121.58 67.0301 101.39 78.7699 89.51 84.4399C77.63 90.1199 68.3901 90.71 66.8101 91.51C65.2301 92.3 66.6801 95.9301 64.1101 99.1001C61.5401 102.27 61.73 104.78 61.73 104.78V123.39C61.73 128.94 58.23 132.23 59.75 137.71C61.27 143.19 68.3601 144.67 68.3601 144.67H73.72C66.91 120.31 88.64 100.92 103.51 116.05C110.33 122.99 112.61 134.66 109.68 144.67H113.81V144.66Z" fill="#B06BFF"/>
<path fill-rule="evenodd" clip-rule="evenodd" d="M280.34 109.59L233.41 101.68C233.41 101.68 241.99 108.67 252.09 110.32C262.19 111.97 283.7 113.69 283.7 113.69L280.34 109.59Z" fill="white"/>
<path fill-rule="evenodd" clip-rule="evenodd" d="M277.24 144.66L289.27 137.71C289.27 137.71 291.29 136.32 290.24 133.88C289.18 131.44 276.45 118.89 274.93 118.63C273.41 118.37 262.26 118.43 262.26 118.43C262.26 118.43 268.86 131.7 268.53 133.02C268.2 134.34 265.63 136.98 263.65 138.3C261.67 139.62 251.44 139.22 251.44 139.22L259.89 117.57C259.89 117.57 260.31 114.74 265.26 114.74C270.21 114.74 287.28 115.39 287.28 115.39L282.18 109.41C277.53 103.95 314.17 103.13 316.45 110.31L318.07 115.39C318.07 115.39 320.72 118.09 320.72 120.53C320.72 122.97 320.42 135.05 320.82 136.18C321.22 137.3 322.73 139.68 322.34 141C322.08 141.88 318.88 143.6 316.16 144.65H277.24V144.66Z" fill="#993DFF"/>
<path fill-rule="evenodd" clip-rule="evenodd" d="M320.66 124.42L320.81 136.19C321.22 137.35 322.53 139.36 322.38 140.76H284C292.09 136.1 294.24 136.62 281.93 124.62C276.58 119.4 275.96 118.62 273.4 118.52C273.33 118.52 281.55 118.43 273.52 118.43C285.14 118.43 283.07 117.44 291.1 125.78C298.23 133.17 296.37 132.67 308.14 132.67C313.94 132.67 314.92 130.36 319.34 125.78L320.66 124.42Z" fill="#5712A6"/>
<path fill-rule="evenodd" clip-rule="evenodd" d="M101.74 99.98H109.41C110.08 99.98 110.64 100.53 110.64 101.2C110.64 101.87 110.09 102.43 109.41 102.43H101.74C101.07 102.43 100.52 101.88 100.52 101.2C100.52 100.53 101.07 99.98 101.74 99.98Z" fill="#5712A6"/>
<path fill-rule="evenodd" clip-rule="evenodd" d="M146.29 99.98H153.96C154.63 99.98 155.18 100.53 155.18 101.2C155.18 101.87 154.63 102.43 153.96 102.43H146.29C145.62 102.43 145.07 101.88 145.07 101.2C145.07 100.53 145.62 99.98 146.29 99.98Z" fill="#5712A6"/>
<path fill-rule="evenodd" clip-rule="evenodd" d="M151.67 70.78C149.08 79.58 148.84 87.77 148.65 95.24L202.04 97.6699C202.04 97.6699 203.53 95.8001 203.69 91.8401C203.86 87.8801 189.27 77.4601 177.89 73.1201C166.52 68.7701 151.67 70.78 151.67 70.78Z" fill="#5712A6"/>
<path fill-rule="evenodd" clip-rule="evenodd" d="M191.54 90.4099C191.54 90.4099 188.46 85.95 185.32 85.04C182.19 84.13 177.51 83.97 176.3 84.49C170.62 86.94 173.18 94.0901 179.44 94.0901C183.37 94.0901 189.89 94.0901 189.89 94.0901C190.38 95.9101 190.04 96.1499 192.06 96.1499C195.42 96.1499 197.47 96.5901 197.83 95.3501C198.02 94.6901 195.77 90.68 195.47 90.54C195.17 90.41 191.54 90.4099 191.54 90.4099Z" fill="#B06BFF"/>
<path fill-rule="evenodd" clip-rule="evenodd" d="M112.03 93.5701C112.99 88.0901 114.65 82.17 116.75 76.99C112.56 78.41 111.26 78.6999 107.17 80.4399C103.07 82.1799 98.3501 92.9399 98.3501 92.9399L112.03 93.5701Z" fill="#5712A6"/>
<path fill-rule="evenodd" clip-rule="evenodd" d="M119.45 76.1598C117.13 81.6198 115.37 87.9398 114.35 93.6798L140.07 94.85C140.62 88.87 143.33 76.7698 145.95 71.1698C145.95 71.1598 134.3 71.7398 119.45 76.1598Z" fill="#5712A6"/>
<path fill-rule="evenodd" clip-rule="evenodd" d="M64.79 98.0701C71.33 97.8901 77.7999 96.33 82.8999 92.24L66.79 91.5C65.38 92.21 66.39 95.1801 64.79 98.0701Z" fill="#5712A6"/>
<path fill-rule="evenodd" clip-rule="evenodd" d="M267.03 128.61C266.15 126.56 265.02 124.15 264.09 122.2C263.06 120.05 262.26 118.44 262.26 118.44L260.87 116.03C260.01 116.78 259.89 117.59 259.89 117.59L259.85 117.7L260.94 121.76L263.06 129.68L263.2 130.2C263.2 130.2 264.48 133.26 260.85 135.01C257.22 136.77 251.44 139.23 251.44 139.23C251.44 139.23 261.67 139.63 263.65 138.31C264.41 137.8 265.26 137.1 266.04 136.35C266.54 135.87 267 135.37 267.4 134.9C267.99 134.19 268.41 133.52 268.54 133.03C268.64 132.58 267.97 130.8 267.03 128.61Z" fill="#5712A6"/>
<path fill-rule="evenodd" clip-rule="evenodd" d="M282.17 109.42L287.27 115.4H318.05L316.5 110.53C315.05 112.53 309.09 112.67 304.93 112.86C294.91 113.33 282.17 109.42 282.17 109.42Z" fill="#5712A6"/>
<path fill-rule="evenodd" clip-rule="evenodd" d="M306.08 118.55C307.47 118.55 308.59 120.16 308.59 122.15C308.59 124.14 307.47 125.75 306.08 125.75C304.7 125.75 303.57 124.14 303.57 122.15C303.57 120.16 304.7 118.55 306.08 118.55Z" fill="#5712A6"/>
<path d="M15.5601 186.09L1.61018 210.18C1.95018 214.55 5.64995 212.9 7.87995 211.25L1.61018 210.18C0.980175 211.45 -0.289952 215.25 0.980048 218.42C1.61005 219.69 2.24997 221.59 4.14997 222.85C11.12 229.19 42.8201 249.48 42.8201 249.48C42.8201 249.48 54.2301 256.45 63.7401 240.61L85.2901 205.11L52.3301 200.67L15.5601 186.09Z" fill="#FFABCD"/>
<path d="M141.71 162.63C141.71 162.63 140.44 176.58 134.74 181.65C129.03 186.72 68.1699 223.49 68.1699 223.49L40.28 132.83L123.95 88.46V94.1699H132.19C132.19 94.1699 134.73 94.17 135.36 94.8C135.99 95.43 134.09 120.16 134.09 120.16L127.75 148.05L130.92 151.22L142.33 163.26L141.71 162.63Z" fill="#ED86AB"/>
<path d="M132.2 183.56C120.16 192.43 67.54 223.5 67.54 223.5L61.2 203.21L67.54 188.63V196.23C67.54 196.23 68.81 201.93 73.24 202.57C77.69 203.2 131.57 183.56 132.2 183.56Z" fill="#FFABCD"/>
<path d="M136.64 73.2499L153.76 70.08C153.76 70.08 158.83 69.4399 160.73 74.5099C162.63 79.5799 162.63 83.3799 158.2 86.5499C153.76 89.7199 141.72 94.7899 141.72 94.7899L136.65 72.6V73.2499H136.64Z" fill="#FFABCD"/>
<path d="M64.3701 0.97998H128.4C136.01 0.97998 142.35 7.31992 142.35 14.9199V172.77C142.35 180.38 136.01 186.72 128.4 186.72H64.3701C56.7701 186.72 50.4299 180.38 50.4299 172.77V14.9199C50.4299 7.31992 56.7601 0.97998 64.3701 0.97998Z" fill="#5712A6"/>
<path d="M65.01 6.06006H73.8799V7.33008C73.8799 10.5001 76.4101 13.04 79.5801 13.04H96.0601H112.54C115.71 13.04 118.25 10.5001 118.25 7.33008V6.06006H127.12C132.83 6.06006 136.63 10.4901 136.63 15.5701V172.15C136.63 177.85 132.19 181.66 127.12 181.66H65C59.29 181.66 55.49 177.22 55.49 172.15V15.5701C55.5 9.86007 59.93 6.06006 65.01 6.06006Z" fill="url(#paint0_linear_44_4)"/>
<path d="M65.01 6.06006H73.8799V7.33008C73.8799 10.5001 76.4101 13.04 79.5801 13.04H96.0601H110.64C110.01 16.21 110.01 20.0101 112.54 23.8201C117.62 33.3301 126.49 25.7199 130.93 37.1299C132.83 42.8299 132.82 43.7599 136.62 44.3899V73.1499C128.38 57.2999 116.98 42.8301 95.4299 33.3201C79.5799 26.3501 68.1701 17.47 60.5601 7.95996C61.8301 6.68996 63.7299 6.06006 65.6299 6.06006H65.01ZM136.58 88.6599V104.88C130.24 95.9999 120.15 94.17 114.45 106.21C110.01 115.72 123.33 133.47 137.27 149.32V160.1C132.83 153.13 126.49 147.42 119.52 144.25C98.61 135.38 70.71 123.96 56.76 89.1001C56.13 87.8301 55.49 86.5601 55.49 85.3V38.3899C61.2 41.5599 68.8001 44.73 78.3201 46C106.21 50.44 126.99 64.67 136.5 84.95L136.58 88.6599Z" fill="url(#paint1_linear_44_4)"/>
<path d="M42.8201 61.2101C42.8201 61.2101 26.34 82.7602 22.54 89.1002C18.73 95.4402 18.73 103.05 18.73 115.73C18.73 128.41 18.73 165.18 18.73 165.18C18.73 165.18 19.3599 175.96 14.9299 185.46C10.4899 194.97 5.76001 202.95 5.76001 202.95L66.9099 226.04V161.38C66.9099 161.38 66.9099 144.26 57.3999 127.78C47.8899 110.66 42.1799 104.32 42.1799 104.32C42.1799 104.32 44.7199 96.7101 47.8899 87.2101C51.6899 77.7001 52.88 55.3702 44 59.8102L42.8201 61.2101Z" fill="#FFABCD"/>
<path d="M52.96 221.59L67.54 227.29V186.72C67.54 187.35 67.54 200.03 62.47 207.64C61.2 209.54 57.4 215.25 52.96 221.59Z" fill="#FFABCD"/>
<path d="M141.08 103.04C141.08 103.04 133.48 115.72 132.21 120.16C130.94 124.6 132.84 129.67 136.01 131.57C139.18 132.84 143.62 134.11 146.15 132.2C148.68 130.3 157.56 116.98 158.2 114.45C158.83 112.55 159.47 108.74 156.3 106.21C153.77 103.67 149.96 101.14 148.69 99.8702C147.42 98.6102 142.98 99.2401 141.08 103.04Z" fill="#FFABCD"/>
<path d="M155.02 144.25C155.02 144.25 126.49 160.1 123.95 162C121.42 163.9 122.05 168.98 123.95 171.51C125.85 174.05 127.76 174.05 129.02 174.05C130.92 174.05 149.94 168.34 150.57 166.44C151.2 165.17 158.81 155.03 159.45 153.13C160.09 151.22 160.09 148.69 155.02 144.25Z" fill="#FFABCD"/>
<path d="M150.58 127.13C150.58 127.13 139.17 134.11 136 137.27C133.47 140.44 132.2 145.51 134.1 148.05C136 150.59 139.17 153.12 141.71 152.49C144.88 151.86 157.56 144.88 158.82 143.62C160.09 142.35 161.99 139.82 160.72 136.01C159.45 132.84 157.55 129.04 156.92 127.77C156.29 126.5 152.48 125.23 149.32 127.14H150.58V127.13Z" fill="#FFABCD"/>
<path d="M155.02 146.15C155.02 146.15 147.41 149.96 143.61 151.85L142.98 150.58C146.78 148.68 154.39 144.88 154.39 144.88L155.02 146.15Z" fill="#ED86AB"/>
<path d="M141.08 132.21C144.25 132.21 145.52 130.94 146.79 128.41L147.42 127.78L148.68 129.05L148.05 129.68C146.15 132.22 144.88 134.12 141.07 133.48V132.21H141.08Z" fill="#ED86AB"/>
<path d="M30.77 101.14L42.1799 103.68L41.55 104.95L30.1399 102.41L30.77 101.14Z" fill="#ED86AB"/>
<path d="M69.45 187.36C69.45 187.36 65.64 194.34 55.5 200.67L54.8701 199.4C65.0101 193.06 68.1801 186.72 68.8101 186.72L70.0801 187.35H69.45V187.36Z" fill="#ED86AB"/>
<path d="M122.16 84.0701C121.01 84.0701 120.04 84.4499 119.44 85.1799V84.1599H117.68V92.0701H119.53V88.0701C119.53 86.4901 120.42 85.6899 121.74 85.6899C122.93 85.6899 123.62 86.37 123.62 87.77V92.0701H125.47V87.54C125.47 85.14 124.06 84.0701 122.16 84.0701ZM96.23 84.1499L93.7 90.01L91.24 84.1499H89.3101L92.7 92.0601H94.6101L98 84.1499H96.23ZM86.3201 92.0701H88.1699V84.1599H86.3201V92.0701ZM87.26 82.8501C87.95 82.8501 88.4399 82.35 88.4399 81.7C88.4399 81.09 87.94 80.6299 87.26 80.6299C86.58 80.6299 86.0701 81.12 86.0701 81.74C86.0701 82.37 86.57 82.8501 87.26 82.8501ZM81.9399 85.3101V84.1499H80.1799V92.0601H82.03V88.22C82.03 86.6 82.9201 85.78 84.3301 85.78C84.4601 85.78 84.59 85.8001 84.76 85.8301V84.0601C83.43 84.0701 82.4699 84.4801 81.9399 85.3101ZM70.05 90.4399V83.3401H72.5701C74.8801 83.3401 76.3799 84.7399 76.3799 86.8899C76.3799 89.0399 74.8801 90.4399 72.5701 90.4399H70.05ZM68.1201 92.0701H72.6499C76.0099 92.0701 78.3101 89.9899 78.3101 86.8899C78.3101 83.7799 76.0199 81.71 72.6499 81.71H68.1201V92.0701Z" fill="white"/>
<path d="M102.35 85.55C103.46 85.55 104.29 86.1999 104.54 87.1599L100.07 88.02V88C100.08 86.5 101.01 85.55 102.35 85.55ZM102.7 90.6001C101.55 90.6001 100.69 90.11 100.3 89.2L106.35 88.02C106.34 85.55 104.56 84.0601 102.35 84.0601C100 84.0601 98.28 85.7501 98.28 88.1001C98.28 90.4501 99.9999 92.1599 102.65 92.1599C104.01 92.1599 105.12 91.7101 105.82 90.8701L104.84 89.73C104.27 90.32 103.59 90.6001 102.7 90.6001Z" fill="white"/>
<path d="M111.68 90.5801C110.35 90.5801 109.34 89.6201 109.34 88.1101C109.34 86.6001 110.35 85.6399 111.68 85.6399C113.03 85.6399 114.04 86.6101 114.04 88.1101C114.04 89.6201 113.03 90.5801 111.68 90.5801ZM111.68 92.1699C114.14 92.1699 115.9 90.4801 115.9 88.1101C115.9 85.7401 114.14 84.0701 111.68 84.0701C109.25 84.0701 107.48 85.7401 107.48 88.1101C107.48 90.4801 109.26 92.1699 111.68 92.1699Z" fill="#CFC7FF"/>
<path fill-rule="evenodd" clip-rule="evenodd" d="M106.87 87.52C106.66 85.74 107.62 84.25 108.48 83.49C109.47 82.61 111.02 81.9699 112.82 82.3899C115.88 83.0999 117.49 86.5499 115.95 89.4099C115.68 89.8999 112.93 93.7799 112.46 94.4699C112.32 94.6699 112.03 95.18 111.84 95.25C111.47 95.41 111.25 94.8999 111.08 94.6799L108.75 91.32C107.79 89.96 107.07 89.26 106.87 87.52ZM112.06 84.8899C110.81 84.6399 109.78 85.5901 109.62 86.6101C109.44 87.8601 110.28 88.8 111.3 89C112.55 89.25 113.55 88.33 113.74 87.3C113.99 86.04 113.06 85.0799 112.06 84.8899Z" fill="white"/>
<defs>
<linearGradient id="paint0_linear_44_4" x1="139.872" y1="27.1902" x2="42.3402" y2="175.616" gradientUnits="userSpaceOnUse">
<stop stop-color="#25E0F9"/>
<stop offset="1" stop-color="#B06BFF"/>
</linearGradient>
<linearGradient id="paint1_linear_44_4" x1="126.512" y1="45.6489" x2="36.1069" y2="171.406" gradientUnits="userSpaceOnUse">
<stop stop-color="#25E0F9"/>
<stop offset="1" stop-color="#B06BFF"/>
</linearGradient>
</defs>
</svg>
