<svg width="447" height="581" viewBox="0 0 447 581" fill="none" xmlns="http://www.w3.org/2000/svg">
<path fill-rule="evenodd" clip-rule="evenodd" d="M0.639893 0.130005C0.639893 0.130005 55.3701 17.73 61.8501 76C68.3301 134.27 82.1999 146.29 122.89 161.09C163.59 175.89 177.46 201.79 181.16 247.11C184.86 292.43 218.16 336.83 274.58 342.38C371.34 351.9 323.98 405.9 422.08 447.68L439.24 479.31L400.26 509.68C400.26 509.68 364.3 509.33 351.81 525.06C339.32 540.78 326.84 557.89 259.78 545.41C192.72 532.92 168.21 581.48 109.48 562.98C50.75 544.48 0.639893 580.25 0.639893 580.25V0.130005Z" fill="#E3E0FF"/>
<path fill-rule="evenodd" clip-rule="evenodd" d="M0.639893 509.67V407.85C25.2399 407.11 47.7699 419.25 51.1299 448.35C51.1299 448.35 55.7601 445.2 61.1201 445.02C66.4801 444.84 68.52 447.24 68.52 447.24C68.52 447.24 67.9701 452.6 63.3401 455.38C58.7201 458.16 56.6799 458.52 56.6799 458.52C56.6799 458.52 65.93 458.34 71.48 465C77.03 471.66 76.1101 479.24 76.1101 479.24C76.1101 479.24 82.0299 461.48 101.64 457.23C121.25 452.98 133.46 465.18 133.46 465.18C133.46 465.18 134.76 460 137.72 456.86C140.68 453.71 141.79 453.53 141.79 453.53C141.79 453.53 150.67 457.41 154.18 465.55C157.7 473.69 187.09 502.42 187.09 502.42L185.26 509.66H0.639893V509.67Z" fill="#CFC7FF"/>
<path fill-rule="evenodd" clip-rule="evenodd" d="M127.01 424.14C127.01 424.14 129.06 402.29 112.33 390.68L111.68 390.23L103.67 395.27L108.17 387.9C94.5699 379.18 89.4499 379.75 89.4499 379.75C89.4499 379.75 87.4 417.31 127.01 424.14Z" fill="#CFC7FF"/>
<path fill-rule="evenodd" clip-rule="evenodd" d="M63.16 434.49C63.16 434.49 71.1101 433.19 74.8101 426.17C78.5101 419.14 76.2901 412.85 76.2901 412.85C76.2901 412.85 61.5 420.62 63.16 434.49Z" fill="#CFC7FF"/>
<path fill-rule="evenodd" clip-rule="evenodd" d="M116.44 443.74C116.44 443.74 106.82 438.38 98.5 438.56C90.18 438.74 86.1101 443.18 86.1101 443.18C86.1101 443.18 93.69 446.14 98.78 446.23C103.86 446.33 111.63 445.96 116.44 443.74Z" fill="#CFC7FF"/>
<path fill-rule="evenodd" clip-rule="evenodd" d="M30.43 395.41C28.54 392.95 25.0401 389.32 20.7401 389.13C14.2001 388.85 19.0302 395.53 22.5902 396.1C25.3202 396.54 29.4 397.23 31.14 397.52C31.8 399.58 32.4 401.67 32.93 403.8C30.99 401.6 26.7701 397.59 22.0101 397.87C15.4801 398.27 20.9702 404.41 24.5702 404.61C27.3502 404.76 31.5201 405.03 33.2601 405.14C34.0801 408.6 34.73 412.11 35.17 415.64C35.22 416.03 35.2702 416.42 35.3102 416.81C34.2202 414.36 31.2101 408.67 26.2401 407.55C19.8501 406.11 23.4202 413.54 26.8202 414.73C29.7002 415.74 34.15 417.35 35.42 417.81C36.55 428.85 35.69 439.9 32.15 449.43L33.0802 449.78C36.3402 441.01 37.36 431 36.68 420.89C38.05 419.8 41.3001 417.21 43.4901 415.49C46.3201 413.27 47.3201 405.09 41.7401 408.5C38.3701 410.56 36.99 414.83 36.43 417.89C36.35 417.1 36.26 416.3 36.16 415.51C35.93 413.65 35.6402 411.8 35.3001 409.95C36.7201 408.82 39.8801 406.3 42.0201 404.62C44.8501 402.4 45.8501 394.22 40.2601 397.63C36.6501 399.84 35.3302 404.58 34.8402 407.66C34.4202 405.62 33.93 403.6 33.38 401.6C34.54 400.41 37.5602 397.34 39.5802 395.33C42.1302 392.78 42.1201 384.54 36.9901 388.6C33.5201 391.35 32.8702 396.54 32.8102 399.62C32.1502 397.37 31.4102 395.15 30.6102 392.98C31.7902 391.73 34.6702 388.66 36.6102 386.63C39.1002 384.03 38.9102 375.78 33.8702 379.97C30.4102 382.84 29.91 388.19 29.94 391.25C29.34 389.71 28.7001 388.2 28.0301 386.72C28.7101 385.61 30.8601 382.12 32.2801 379.86C33.9901 377.14 32.34 369.97 28.69 374.53C26.16 377.68 26.7101 382.48 27.2901 385.13C26.6801 383.84 26.04 382.58 25.38 381.35C24.16 378.52 21.5902 373.94 17.3302 372.7C11.0402 370.88 14.1601 378.51 17.4801 379.91C19.9301 380.94 23.5201 382.48 25.2401 383.22C25.8701 384.44 26.4701 385.69 27.0501 386.96C25.2801 384.82 22.39 382.14 18.91 381.99C13.08 381.74 17.3902 387.7 20.5602 388.2C22.9802 388.59 26.58 389.2 28.15 389.46C28.98 391.39 29.73 393.38 30.43 395.41Z" fill="#CFC7FF"/>
<path fill-rule="evenodd" clip-rule="evenodd" d="M62.2499 384.92C62.2499 384.92 52.8599 375.96 49.2299 366.35C45.5999 356.75 46.0299 346.07 46.0299 346.07C46.0299 346.07 47.74 350.34 52.86 354.18C67.84 365.42 61.4999 371.43 62.2499 384.92Z" fill="#CFC7FF"/>
<path fill-rule="evenodd" clip-rule="evenodd" d="M74.0801 516.3C64.6501 515.57 59.86 516.39 53.55 523.7C53.55 523.69 69.0901 526.1 74.0801 516.3Z" fill="#CFC7FF"/>
<path fill-rule="evenodd" clip-rule="evenodd" d="M174.69 537.22C174.69 537.22 165.04 533.64 157.76 539.81L157.48 540.05L160.61 543.07L156 541.35C150.4 546.45 150.04 548.84 150.04 548.84C150.04 548.84 166.79 554.32 174.69 537.22Z" fill="#CFC7FF"/>
<path fill-rule="evenodd" clip-rule="evenodd" d="M113.05 120.06L98.79 111.83V112.07V128.3L113.05 120.06Z" fill="#E3E0FF"/>
<path fill-rule="evenodd" clip-rule="evenodd" d="M243.11 313.37C231.51 304.62 226.4 298.53 227.07 283.43C227.07 283.43 229.75 287.28 232.03 289.14C234.3 290.99 244.35 295.47 243.11 313.37Z" fill="#E3E0FF"/>
<path fill-rule="evenodd" clip-rule="evenodd" d="M154.5 213.13C154.5 213.13 144.33 202.49 138.78 201.11C133.23 199.72 124.91 199.72 124.91 199.72C124.91 199.72 130.45 215.21 154.5 213.13Z" fill="white"/>
<path fill-rule="evenodd" clip-rule="evenodd" d="M34.23 292.67L19.96 284.44V284.69V300.91L34.23 292.67Z" fill="white"/>
<path fill-rule="evenodd" clip-rule="evenodd" d="M266.27 414.64L265.13 407.93H308.86C308.86 407.93 327.66 408.54 343.23 413.89C358.8 419.24 394.41 439.54 394.41 439.54C394.41 439.54 408.14 442.31 422.09 447.66C436.04 453.01 438.95 456.61 438.95 456.61L421.72 476.61C421.72 476.61 320.61 465.15 310.4 455.94C300.17 446.74 266.27 414.64 266.27 414.64Z" fill="#993DFF"/>
<path fill-rule="evenodd" clip-rule="evenodd" d="M324.55 440.42L393.16 442.04C393.16 442.04 365.67 425.25 346.1 418.13C326.53 411.01 283.58 412.66 283.58 412.66L324.55 440.42Z" fill="#5712A6"/>
<path fill-rule="evenodd" clip-rule="evenodd" d="M399.36 503.56L391.61 500.31H189.1L274.79 435.99C274.79 435.99 351.34 442.4 360.93 456.35C370.52 470.3 399.36 503.56 399.36 503.56Z" fill="#5712A6"/>
<path fill-rule="evenodd" clip-rule="evenodd" d="M255.34 463.69C254.98 463.66 254.62 463.65 254.26 463.65C244.53 463.65 236.59 473.99 236.59 486.66C236.59 499.33 244.53 509.67 254.26 509.67H263.4C273.16 509.67 281.07 499.37 281.07 486.66C281.07 474.43 273.75 464.43 264.5 463.69H264.48C264.12 463.66 263.76 463.65 263.4 463.65C263.04 463.65 262.68 463.67 262.32 463.69H255.34Z" fill="#5712A6"/>
<path fill-rule="evenodd" clip-rule="evenodd" d="M401.33 463.69C400.97 463.66 400.62 463.65 400.25 463.65C390.52 463.65 382.58 473.99 382.58 486.66C382.58 499.33 390.52 509.67 400.25 509.67H409.39C419.15 509.67 427.06 499.37 427.06 486.66C427.06 474.43 419.74 464.43 410.49 463.69H410.47C410.11 463.66 409.75 463.65 409.39 463.65C409.03 463.65 408.67 463.67 408.31 463.69H401.33Z" fill="#5712A6"/>
<path fill-rule="evenodd" clip-rule="evenodd" d="M161.38 476.08V496.72H210.85V457.78H169.9L161.38 476.08Z" fill="#5712A6"/>
<path fill-rule="evenodd" clip-rule="evenodd" d="M341.56 463.65C341.92 463.65 342.28 463.67 342.64 463.69H342.66C351.91 464.43 359.23 474.43 359.23 486.66C359.23 499.37 351.32 509.67 341.56 509.67H332.42L328.4 502.01C325.6 497.94 323.89 492.56 323.89 486.66C323.89 480.82 325.56 475.49 328.32 471.43L332.43 463.69H340.49C340.83 463.67 341.19 463.65 341.56 463.65Z" fill="#5712A6"/>
<path fill-rule="evenodd" clip-rule="evenodd" d="M332.42 509.67C342.15 509.67 350.09 499.33 350.09 486.66C350.09 473.99 342.15 463.65 332.42 463.65C322.69 463.65 314.75 473.99 314.75 486.66C314.75 499.34 322.68 509.67 332.42 509.67Z" fill="#7D21E8"/>
<path fill-rule="evenodd" clip-rule="evenodd" d="M331.46 502.84C338.3 502.84 343.89 495.57 343.89 486.66C343.89 477.75 338.31 470.48 331.46 470.48C324.62 470.48 319.03 477.75 319.03 486.66C319.03 495.57 324.61 502.84 331.46 502.84Z" fill="#E3E0FF"/>
<path fill-rule="evenodd" clip-rule="evenodd" d="M194.37 463.65C194.73 463.65 195.09 463.67 195.45 463.69H195.47C204.72 464.43 212.04 474.43 212.04 486.66C212.04 499.37 204.13 509.67 194.37 509.67H185.23L181.2 502.01C178.4 497.94 176.69 492.56 176.69 486.66C176.69 480.82 178.36 475.49 181.12 471.43L185.23 463.69H193.29C193.65 463.67 194.01 463.65 194.37 463.65Z" fill="#5712A6"/>
<path fill-rule="evenodd" clip-rule="evenodd" d="M185.23 509.67C194.96 509.67 202.9 499.33 202.9 486.66C202.9 473.99 194.96 463.65 185.23 463.65C175.5 463.65 167.56 473.99 167.56 486.66C167.56 499.34 175.5 509.67 185.23 509.67Z" fill="#7D21E8"/>
<path fill-rule="evenodd" clip-rule="evenodd" d="M184.27 502.84C191.11 502.84 196.7 495.57 196.7 486.66C196.7 477.75 191.12 470.48 184.27 470.48C177.43 470.48 171.84 477.75 171.84 486.66C171.85 495.57 177.43 502.84 184.27 502.84Z" fill="#E3E0FF"/>
<path fill-rule="evenodd" clip-rule="evenodd" d="M210.27 496.72H312.07C304.23 469.94 328.66 446.89 345.78 464.32C353.5 472.17 356.08 485.39 352.76 496.72H407.31C410.63 494.99 413.7 493.23 414.23 493C415.81 492.32 415.26 487.09 415.26 484.88C415.26 481.44 413.62 479.05 410.78 476.21C404.4 469.83 416.2 464.43 398.83 455.74C388.37 450.51 351.76 442.74 335.92 438.56C320.08 434.38 296.17 406.73 257.62 407.78C219.07 408.83 196.21 422.12 182.76 428.55C169.31 434.98 158.85 435.65 157.06 436.55C155.27 437.45 156.91 441.56 154 445.14C151.09 448.73 151.31 451.56 151.31 451.56V472.63C151.31 478.91 147.35 482.64 149.07 488.84C150.79 495.04 158.82 496.72 158.82 496.72H164.89C157.18 469.15 181.78 447.19 198.61 464.32C206.33 472.17 208.91 485.39 205.59 496.72H210.27Z" fill="#B06BFF"/>
<path fill-rule="evenodd" clip-rule="evenodd" d="M398.79 457.02L345.67 448.06C345.67 448.06 355.38 455.98 366.81 457.85C378.24 459.72 402.6 461.66 402.6 461.66L398.79 457.02Z" fill="white"/>
<path fill-rule="evenodd" clip-rule="evenodd" d="M395.28 496.72L408.9 488.85C408.9 488.85 411.19 487.27 410 484.51C408.8 481.74 394.39 467.55 392.67 467.25C390.95 466.95 378.32 467.03 378.32 467.03C378.32 467.03 385.79 482.05 385.42 483.54C385.05 485.03 382.13 488.02 379.89 489.52C377.65 491.01 366.07 490.57 366.07 490.57L375.63 466.06C375.63 466.06 376.1 462.86 381.71 462.86C387.31 462.86 406.64 463.6 406.64 463.6L400.87 456.82C395.61 450.64 437.08 449.71 439.67 457.84L441.5 463.59C441.5 463.59 444.49 466.65 444.49 469.41C444.49 472.17 444.15 485.85 444.6 487.12C445.05 488.39 446.77 491.08 446.32 492.57C446.02 493.56 442.4 495.51 439.32 496.71H395.28V496.72Z" fill="#993DFF"/>
<path fill-rule="evenodd" clip-rule="evenodd" d="M444.43 473.8L444.6 487.13C445.06 488.45 446.55 490.71 446.38 492.3H402.94C412.1 487.01 414.52 487.62 400.6 474.03C394.54 468.11 393.84 467.24 390.95 467.13C390.87 467.13 400.18 467.02 391.08 467.02C404.24 467.02 401.89 465.91 410.99 475.34C419.06 483.71 416.96 483.14 430.28 483.14C436.84 483.14 437.96 480.52 442.96 475.34L444.43 473.8Z" fill="#5712A6"/>
<path fill-rule="evenodd" clip-rule="evenodd" d="M196.61 446.14H205.29C206.05 446.14 206.68 446.76 206.68 447.53C206.68 448.29 206.06 448.92 205.29 448.92H196.61C195.85 448.92 195.22 448.3 195.22 447.53C195.22 446.76 195.85 446.14 196.61 446.14Z" fill="#5712A6"/>
<path fill-rule="evenodd" clip-rule="evenodd" d="M247.04 446.14H255.73C256.49 446.14 257.12 446.76 257.12 447.53C257.12 448.29 256.5 448.92 255.73 448.92H247.04C246.28 448.92 245.65 448.3 245.65 447.53C245.66 446.76 246.28 446.14 247.04 446.14Z" fill="#5712A6"/>
<path fill-rule="evenodd" clip-rule="evenodd" d="M253.13 413.08C250.2 423.05 249.93 432.31 249.72 440.77L310.17 443.53C310.17 443.53 311.85 441.41 312.04 436.93C312.23 432.45 295.72 420.65 282.83 415.73C269.94 410.81 253.13 413.08 253.13 413.08Z" fill="#5712A6"/>
<path fill-rule="evenodd" clip-rule="evenodd" d="M298.26 435.3C298.26 435.3 294.77 430.26 291.22 429.23C287.67 428.2 282.38 428.02 281.01 428.61C274.59 431.38 277.48 439.47 284.56 439.47C289.01 439.47 296.39 439.47 296.39 439.47C296.94 441.53 296.56 441.8 298.85 441.8C302.65 441.8 304.98 442.3 305.39 440.9C305.61 440.15 303.05 435.61 302.71 435.45C302.37 435.3 298.26 435.3 298.26 435.3Z" fill="#B06BFF"/>
<path fill-rule="evenodd" clip-rule="evenodd" d="M208.26 438.88C209.35 432.68 211.23 425.98 213.61 420.11C208.87 421.71 207.4 422.04 202.76 424.02C198.12 426 192.78 438.17 192.78 438.17L208.26 438.88Z" fill="#5712A6"/>
<path fill-rule="evenodd" clip-rule="evenodd" d="M216.65 419.16C214.02 425.34 212.04 432.49 210.88 438.99L239.99 440.32C240.62 433.55 243.68 419.85 246.64 413.51C246.65 413.51 233.46 414.16 216.65 419.16Z" fill="#5712A6"/>
<path fill-rule="evenodd" clip-rule="evenodd" d="M154.78 443.97C162.18 443.77 169.5 442 175.29 437.37L157.06 436.54C155.45 437.34 156.59 440.7 154.78 443.97Z" fill="#5712A6"/>
<path fill-rule="evenodd" clip-rule="evenodd" d="M383.72 478.55C382.72 476.22 381.44 473.5 380.39 471.29C379.22 468.85 378.32 467.03 378.32 467.03L376.74 464.3C375.76 465.15 375.63 466.06 375.63 466.06L375.58 466.18L376.81 470.77L379.21 479.74L379.37 480.34C379.37 480.34 380.82 483.8 376.72 485.79C372.61 487.78 366.06 490.57 366.06 490.57C366.06 490.57 377.64 491.02 379.88 489.52C380.74 488.94 381.71 488.15 382.58 487.3C383.14 486.76 383.67 486.19 384.12 485.65C384.79 484.84 385.27 484.09 385.41 483.54C385.54 483.04 384.79 481.02 383.72 478.55Z" fill="#5712A6"/>
<path fill-rule="evenodd" clip-rule="evenodd" d="M400.86 456.82L406.63 463.6H441.48L439.73 458.09C438.09 460.36 431.34 460.51 426.63 460.73C415.28 461.25 400.86 456.82 400.86 456.82Z" fill="#5712A6"/>
<path fill-rule="evenodd" clip-rule="evenodd" d="M427.93 467.15C429.5 467.15 430.77 468.97 430.77 471.22C430.77 473.47 429.5 475.29 427.93 475.29C426.36 475.29 425.09 473.47 425.09 471.22C425.09 468.97 426.36 467.15 427.93 467.15Z" fill="#5712A6"/>
</svg>
