<svg width="12" height="12" viewBox="0 0 12 12" fill="none" xmlns="http://www.w3.org/2000/svg">
<path fill-rule="evenodd" clip-rule="evenodd" d="M5.05999 3.22002C1.40999 4.30002 3.13 9.57013 6.57 8.58013C10.06 7.57013 8.62999 2.15002 5.05999 3.22002ZM5.38982 4.10015C7.82982 3.44015 8.50995 7.18999 6.26995 7.68999C3.88995 8.20999 2.93982 4.77015 5.38982 4.10015ZM10.9599 9.99004C11.2899 9.06004 11.0999 3.40015 11.0099 1.85015C10.7499 1.06015 10.1799 0.50005 8.23992 0.50005C6.79992 0.50005 5.35985 0.50005 3.91985 0.50005C-0.0401475 0.49005 0.459892 1.98998 0.459892 5.67998C0.459892 8.70998 -0.210138 11.2801 3.42986 11.2701C4.50986 11.2701 8.86987 11.4201 9.68987 11.1001C10.4199 10.8301 10.7299 10.38 10.9599 9.99004ZM1.40984 4.25005C1.40984 0.84005 1.27002 1.46001 8.59002 1.46001C9.71002 1.46001 10.2299 1.9501 10.2299 3.0501V8.67998C10.2299 9.91998 9.6399 10.3301 8.4699 10.3301H3.08001C1.82001 10.3301 1.40984 9.79011 1.40984 8.56011V4.25005ZM8.87005 2.18999C9.28005 2.18999 9.61004 2.51998 9.61004 2.92998C9.61004 3.33998 9.28005 3.66997 8.87005 3.66997C8.46005 3.66997 8.12981 3.33998 8.12981 2.92998C8.12981 2.51998 8.46005 2.18999 8.87005 2.18999Z" fill="white"/>
</svg>
