<svg width="12" height="12" viewBox="0 0 12 12" fill="none" xmlns="http://www.w3.org/2000/svg">
<path fill-rule="evenodd" clip-rule="evenodd" d="M9.59009 5.93996C9.77009 6.21996 9.69995 9.73 9.69995 9.74C9.61995 9.76 8.16988 9.75 8.12988 9.74L8.12012 6.96999C8.15012 6.11999 7.53989 5.80007 6.88989 6.06007C6.00989 6.41007 6.52012 8.77 6.37012 9.74H4.83008V4.74C4.89008 4.73 6.23007 4.72 6.32007 4.74V5.41994C6.41007 5.40994 6.74994 4.4599 8.18994 4.6299C8.63994 4.6799 9.03005 4.84998 9.30005 5.20998C9.41005 5.36998 9.61009 5.80996 9.59009 5.93996ZM11.24 2.52003C11.24 2.03003 11.3201 1.38009 11.0701 1.08009C10.8001 0.750093 10.46 0.800063 10.05 0.800063H1.57007C0.740068 0.800063 0.72998 1.41994 0.72998 1.91994V10.3899C0.72998 11.1699 1.13003 11.3001 1.78003 11.3001H10.25C10.97 11.3001 11.24 11.0501 11.24 10.3301V2.52003ZM2.94995 2.25001C3.54995 2.23001 3.58999 2.46004 3.73999 2.53004C3.73999 2.54004 4.23007 3.06993 3.82007 3.65993C3.07007 4.73993 1.51994 3.42002 2.43994 2.51002C2.68994 2.26002 2.87995 2.28001 2.94995 2.25001ZM3.84009 4.75001L3.8501 9.75001C3.8101 9.76001 2.38004 9.77001 2.29004 9.75001V4.74C2.38004 4.73 3.49999 4.74 3.73999 4.74C3.81999 4.73 3.82009 4.72001 3.84009 4.75001Z" fill="white"/>
</svg>
