<svg width="26" height="34" viewBox="0 0 26 34" fill="none" xmlns="http://www.w3.org/2000/svg">
<path d="M16.0701 5.67993C15.2101 4.80993 13.9899 4.26994 12.6499 4.26994C11.3199 4.26994 10.1 4.80993 9.23999 5.67993V5.68994C8.35999 6.55994 7.82007 7.76995 7.82007 9.09995C7.82007 10.4299 8.35999 11.6499 9.23999 12.5199V12.5299C10.1 13.3999 11.3199 13.9399 12.6499 13.9399C13.9899 13.9399 15.2001 13.3999 16.0701 12.5299V12.5199C16.9401 11.6499 17.49 10.4399 17.49 9.09995C17.49 7.76995 16.9401 6.55994 16.0701 5.68994V5.67993ZM9.42993 19.4199H15.8799C18.4299 19.4199 20.7399 20.4599 22.4099 22.1299C24.0799 23.7999 25.1201 26.1199 25.1201 28.6599V33.7999H21.04V28.6599C21.04 27.2399 20.45 25.9499 19.52 25.0199C18.59 24.0899 17.2999 23.4999 15.8799 23.4999H9.42993C8.01993 23.4999 6.73004 24.0799 5.79004 25.0099L5.80005 25.0199C4.87005 25.9499 4.28003 27.2499 4.28003 28.6599V33.7999H0.199951V28.6599C0.199951 26.1199 1.23991 23.7999 2.90991 22.1299H2.91992C4.57992 20.4599 6.88993 19.4199 9.42993 19.4199ZM12.6499 0.189941C15.0999 0.189941 17.34 1.18994 18.95 2.79994H18.96C20.56 4.40994 21.5701 6.63995 21.5701 9.09995C21.5701 11.5599 20.56 13.7899 18.96 15.3999L18.95 15.3899C17.34 17.0099 15.1099 17.9999 12.6499 17.9999C10.1999 17.9999 7.97011 16.9999 6.36011 15.3899L6.3501 15.3999C4.7401 13.7899 3.73999 11.5599 3.73999 9.09995C3.73999 6.63995 4.7401 4.40994 6.3501 2.79994H6.36011C7.97011 1.18994 10.1999 0.189941 12.6499 0.189941Z" fill="#5712A6"/>
</svg>
