<svg width="139" height="41" viewBox="0 0 139 41" fill="none" xmlns="http://www.w3.org/2000/svg">
<path fill-rule="evenodd" clip-rule="evenodd" d="M3.69999 40.3001L3.92997 40.3701C6.68997 40.5001 9.74007 40.3799 12.5301 40.3799L133.29 40.3899C135.18 40.3899 136.76 40.27 137.85 38.47C138.21 37.87 138.2 37.5899 138.4 36.8899L138.42 7.88991L138.4 4.3799C138.26 2.9799 137.61 2.15008 136.87 1.56008C135.84 0.740079 134.92 0.719991 133.37 0.719991L12.45 0.73C9.58999 0.73 6.65009 0.66001 3.80009 0.74001L3.62992 0.810079C2.44992 0.700079 0.889961 1.9999 0.419961 3.3799C0.029961 4.5199 0.189981 7.53996 0.189981 8.93996V32.1399C0.189981 33.5099 0.0399512 36.61 0.409951 37.7C0.899951 39.12 2.46999 40.4401 3.69999 40.3001Z" fill="black"/>
<path fill-rule="evenodd" clip-rule="evenodd" d="M120.8 12.01C120.99 12.41 120.96 12.64 121.25 13C122.12 14.06 123.68 13.98 124.82 13.54L124.67 12.8C123.98 12.95 123.04 13.23 122.36 12.73C122.13 12.56 121.99 12.4199 121.98 12.1299C121.81 11.9699 121.83 11.8401 121.82 11.5701L125.08 11.5601C125.21 9.87006 124.48 8.51002 122.72 8.77002C121.07 9.02002 120.66 10.56 120.8 12.01ZM121.81 10.76C121.97 9.17001 124.01 8.95004 124.06 10.79L121.81 10.76ZM114.93 13.8L115.98 13.75C116.05 12.96 115.88 10.9001 116.07 10.3401C116.39 9.39009 117.93 9.32007 118.02 10.5701C118.24 10.8801 118.13 13.38 118.13 13.73H119.12C119.12 12.6 119.08 11.4401 119.08 10.3401C119.14 9.34009 118.11 8.4501 116.87 8.8501C116.5 8.9701 116.38 9.21005 116.14 9.30005C116.04 9.52005 116.27 9.36 116.01 9.5L115.98 6.61011L114.92 6.62012L114.93 13.8ZM111.19 7.93994L111.14 8.87012L110.43 8.93994L110.42 9.6499L111.11 9.66992L111.13 11.98C111.13 12.64 111.23 13.2601 111.59 13.5801C111.94 13.8901 112.85 13.98 113.32 13.7L113.31 12.9099C112.8 12.9699 112.35 13.0401 112.33 12.5601C112.07 12.2001 112.17 10.2399 112.2 9.67993L113.39 9.65991V8.90991L112.17 8.8501L112.15 7.6499L111.19 7.93994ZM102.72 8.91992L101.87 8.95996L101.89 13.73H102.88C102.88 13.3 102.78 10.7101 102.98 10.5801C103.16 9.47008 104.6 9.27003 104.92 10.28C105.15 11.01 104.95 12.83 105.03 13.74L106.08 13.79C106.16 12.75 106.23 10.35 105.8 9.55005C105.54 9.08005 105.05 8.71001 104.26 8.76001C103.44 8.81001 103.23 9.20007 102.83 9.57007L102.72 8.91992ZM95.49 12.01C95.8 12.72 96.0699 13.8001 97.6799 13.8601C99.4799 13.9301 99.8101 12.6499 100.12 12.1599C100.4 10.3399 99.79 8.81 97.99 8.75C97.01 8.72 96.48 9.07007 96.02 9.57007C95.48 10.1701 95.39 11.03 95.49 12.01ZM96.5601 11.6399C96.3101 9.14989 98.8501 8.80003 99.0801 11.03C99.3201 13.4 96.7901 13.7999 96.5601 11.6399ZM89.7 9.20996C89.35 9.03996 89.0399 8.75001 88.3799 8.76001C87.8299 8.76001 87.4001 8.97001 87.0801 9.26001C85.8301 10.4 85.99 13.19 87.7 13.76C88.91 14.17 89.4399 13.48 89.8999 13.01L89.96 13.72L90.9099 13.8L90.8701 6.62012H89.8L89.76 9.38989L89.7 9.20996ZM88.1799 9.71997C89.0399 9.28997 89.72 9.99004 89.79 10.79C89.87 11.76 89.78 12.6199 89.04 12.8999C87.29 13.5499 86.7099 10.46 88.1799 9.71997ZM81.9199 13.8401C82.8899 13.9901 83.1999 13.54 83.6599 13.24L83.77 13.74L84.72 13.76L84.6201 13.3C84.5201 12.44 84.7701 10.1999 84.3201 9.43994C83.8101 8.56994 81.9001 8.54996 81.0701 9.20996L81.28 9.87988C81.75 9.70988 82.1401 9.46006 82.8101 9.56006C83.3201 9.64006 83.68 10.0501 83.52 10.6001C79.73 10.8001 80.3299 13.6001 81.9199 13.8401ZM83.6001 11.3201C83.6401 11.9401 83.67 12.42 83.28 12.78C82.25 13.7 81.2299 12.3199 82.1299 11.6299C82.4999 11.3499 83.0801 11.3301 83.6001 11.3201ZM77.02 13.8601C77.65 13.8601 78.2001 13.6301 78.5801 13.3401C80.0501 12.2501 79.74 8.67 77.02 8.75C73.86 8.86 73.98 13.8501 77.02 13.8601ZM76.6799 9.6499C78.4499 8.9399 78.92 12.36 77.51 12.95C75.7 13.71 75.1399 10.2699 76.6799 9.6499ZM72 13.8H73.05L73.04 6.62012H71.97L72 13.8ZM66.78 9.54004L66.74 8.87012L65.78 8.8501L65.8201 13.75H66.8799C67.0099 12.44 66.3399 9.79989 67.8799 9.63989C69.4199 9.47989 68.9 11.87 68.99 13.72L70.0601 13.75C70.1301 12.73 70.2 10.3301 69.78 9.57007C69.51 9.08007 69.04 8.73001 68.26 8.76001C67.26 8.80001 67.08 9.46004 66.78 9.54004ZM58.78 13.76L59.78 13.75C60.01 13.16 60.1501 12.57 60.3501 11.96C60.5001 11.5 60.7101 10.4699 60.8601 10.1299C60.9901 10.3599 61.7999 13.29 61.9299 13.73L62.8999 13.74L64.4299 8.8501H63.3799C63.0699 9.6101 62.5799 12.33 62.3999 12.7C62.2799 12.06 62.0899 11.35 61.8999 10.74C61.2399 8.57999 61.63 8.8301 60.48 8.8501L59.3501 12.6599L58.5701 9.27002C58.4401 8.73002 58.5301 8.84009 57.3601 8.84009L58.78 13.76ZM53.1899 8.87012C50.2899 9.67012 51.2601 14.75 54.5901 13.75C57.3401 12.93 56.6099 7.92012 53.1899 8.87012ZM53.49 9.63989C55.24 8.95989 55.7201 12.3199 54.3201 12.9399C52.5501 13.7499 51.89 10.2699 53.49 9.63989ZM44.6201 7.05005C44.5901 8.00005 44.5099 13.17 44.6599 13.73C47.6999 14.03 50.1699 13.43 50.1899 10.26C50.2099 7.00001 47.6001 6.71005 44.6201 7.05005ZM45.71 12.9099L45.7 7.84009C47.7099 7.51009 49.04 8.25002 49.04 10.27C49.04 12.26 47.76 13.1699 45.71 12.9099ZM23.3201 26.6599C21.5601 26.4999 20.21 27.66 19.46 28.46C18.65 29.32 17.92 31.05 18.05 32.72C19.06 32.94 21.0601 31.7501 21.8601 30.8701C22.4901 30.1701 23.6901 28.1699 23.3201 26.6599ZM21.5 25C16.82 25 13 21.18 13 16.5C13 11.82 16.82 8 21.5 8C26.18 8 30 11.82 30 16.5C30 21.18 26.18 25 21.5 25ZM16 18C16 19.66 14.66 21 13 21C11.34 21 10 19.66 10 18C10 16.34 11.34 15 13 15C14.66 15 16 16.34 16 18Z" fill="#FCFCFC"/>
<path d="M47.5 27.01V31.1201H44.6499V18.8201H48.99C49.86 18.8201 50.6 18.9199 51.22 19.1299C51.84 19.3399 52.35 19.62 52.76 19.98C53.16 20.34 53.4599 20.77 53.6499 21.25C53.8399 21.74 53.9399 22.2701 53.9399 22.8401C53.9399 23.4501 53.8399 24.02 53.6399 24.53C53.4399 25.04 53.14 25.4801 52.74 25.8501C52.33 26.2201 51.82 26.5 51.2 26.71C50.58 26.92 49.84 27.02 48.99 27.02H47.5V27.01ZM47.5 24.8601H48.99C49.73 24.8601 50.2701 24.6801 50.5901 24.3301C50.9101 23.9801 51.0801 23.4801 51.0801 22.8401C51.0801 22.5601 51.04 22.3001 50.95 22.0701C50.87 21.8401 50.7401 21.64 50.5701 21.47C50.4001 21.3 50.1799 21.1801 49.9199 21.0901C49.6599 21.0001 49.35 20.96 48.99 20.96H47.5V24.8601Z" fill="#FCFCFC"/>
<path d="M58.1101 18.49V31.1201H55.49V18.49H58.1101Z" fill="#FCFCFC"/>
<path d="M66.27 31.1201C66.02 31.1201 65.84 31.09 65.71 31.02C65.58 30.95 65.4799 30.8101 65.3899 30.6001L65.2 30.1201C64.98 30.3101 64.7701 30.4701 64.5701 30.6101C64.3701 30.7501 64.1599 30.87 63.9399 30.97C63.7199 31.07 63.49 31.1399 63.25 31.1899C63.01 31.2399 62.7299 31.26 62.4399 31.26C62.0399 31.26 61.6801 31.2101 61.3501 31.1001C61.0201 31.0001 60.75 30.8399 60.52 30.6399C60.29 30.4399 60.12 30.1899 59.99 29.8899C59.86 29.5899 59.8 29.2401 59.8 28.8501C59.8 28.5401 59.88 28.2199 60.04 27.8999C60.2 27.5799 60.4701 27.28 60.8601 27.01C61.2501 26.74 61.7699 26.5201 62.4299 26.3401C63.0899 26.1601 63.9199 26.06 64.9199 26.04V25.6699C64.9199 25.1599 64.8101 24.7901 64.6001 24.5601C64.3901 24.3301 64.09 24.22 63.7 24.22C63.39 24.22 63.1399 24.2501 62.9399 24.3201C62.7399 24.3901 62.5699 24.46 62.4099 24.55C62.2499 24.63 62.1 24.71 61.96 24.78C61.82 24.85 61.6399 24.8799 61.4399 24.8799C61.2599 24.8799 61.11 24.84 60.98 24.75C60.85 24.66 60.7499 24.5499 60.6799 24.4199L60.21 23.6001C60.74 23.1301 61.33 22.7901 61.97 22.5601C62.61 22.3301 63.3 22.22 64.04 22.22C64.57 22.22 65.05 22.31 65.47 22.48C65.89 22.65 66.26 22.89 66.55 23.2C66.85 23.51 67.07 23.87 67.23 24.29C67.39 24.71 67.47 25.1699 67.47 25.6699V31.1399H66.27V31.1201ZM63.26 29.53C63.6 29.53 63.8899 29.4701 64.1499 29.3501C64.4099 29.2301 64.6599 29.04 64.9199 28.78V27.5701C64.3999 27.5901 63.9599 27.64 63.6299 27.7C63.2899 27.77 63.0201 27.85 62.8301 27.95C62.6301 28.05 62.4999 28.17 62.4199 28.3C62.3399 28.43 62.3101 28.57 62.3101 28.72C62.3101 29.02 62.3901 29.2301 62.5601 29.3501C62.7001 29.4701 62.94 29.53 63.26 29.53Z" fill="#FCFCFC"/>
<path d="M72.5601 33.3899C72.4801 33.5599 72.39 33.69 72.27 33.77C72.16 33.85 71.98 33.8899 71.73 33.8899H69.77L71.46 30.3501L67.97 22.3701H70.28C70.48 22.3701 70.64 22.41 70.75 22.5C70.86 22.59 70.94 22.7001 70.99 22.8201L72.4199 26.5901C72.5499 26.9401 72.67 27.2899 72.75 27.6399C72.81 27.4599 72.8699 27.2801 72.9399 27.1101C73.0099 26.9401 73.0699 26.7601 73.1299 26.5801L74.4299 22.8301C74.4699 22.7001 74.56 22.59 74.7 22.5C74.84 22.41 74.9699 22.3701 75.1299 22.3701H77.24L72.5601 33.3899Z" fill="#FCFCFC"/>
<path d="M93.02 31.1201H90.8101C90.5601 31.1201 90.36 31.06 90.2 30.95C90.04 30.84 89.9301 30.69 89.8701 30.51L89.1399 28.3701H84.46L83.73 30.51C83.67 30.67 83.5599 30.8099 83.3999 30.9399C83.2399 31.0699 83.04 31.1299 82.8 31.1299H80.5701L85.3301 18.8301H88.25L93.02 31.1201ZM85.1201 26.4199H88.48L87.3501 23.05C87.2801 22.84 87.1901 22.58 87.0901 22.3C86.9901 22.01 86.89 21.7001 86.8 21.3601C86.71 21.7001 86.62 22.0201 86.52 22.3101C86.42 22.6001 86.33 22.8501 86.25 23.0701L85.1201 26.4199Z" fill="#FCFCFC"/>
<path d="M96.8701 27.01V31.1201H94.02V18.8201H98.3601C99.2301 18.8201 99.9701 18.9199 100.59 19.1299C101.21 19.3399 101.72 19.62 102.13 19.98C102.53 20.34 102.83 20.77 103.02 21.25C103.21 21.74 103.31 22.2701 103.31 22.8401C103.31 23.4501 103.21 24.02 103.01 24.53C102.81 25.04 102.51 25.4801 102.11 25.8501C101.7 26.2201 101.19 26.5 100.57 26.71C99.9501 26.92 99.2101 27.02 98.3601 27.02H96.8701V27.01ZM96.8701 24.8601H98.3601C99.1001 24.8601 99.64 24.6801 99.96 24.3301C100.28 23.9801 100.45 23.4801 100.45 22.8401C100.45 22.5601 100.41 22.3001 100.32 22.0701C100.24 21.8401 100.11 21.64 99.9399 21.47C99.7699 21.3 99.55 21.1801 99.29 21.0901C99.03 21.0001 98.7201 20.96 98.3601 20.96H96.8701V24.8601Z" fill="#FCFCFC"/>
<path d="M107.64 27.01V31.1201H104.79V18.8201H109.13C110 18.8201 110.74 18.9199 111.36 19.1299C111.98 19.3399 112.49 19.62 112.9 19.98C113.3 20.34 113.6 20.77 113.79 21.25C113.98 21.74 114.08 22.2701 114.08 22.8401C114.08 23.4501 113.98 24.02 113.78 24.53C113.58 25.04 113.28 25.4801 112.88 25.8501C112.47 26.2201 111.96 26.5 111.34 26.71C110.72 26.92 109.98 27.02 109.13 27.02H107.64V27.01ZM107.64 24.8601H109.13C109.87 24.8601 110.41 24.6801 110.73 24.3301C111.05 23.9801 111.22 23.4801 111.22 22.8401C111.22 22.5601 111.18 22.3001 111.09 22.0701C111.01 21.8401 110.88 21.64 110.71 21.47C110.54 21.3 110.32 21.1801 110.06 21.0901C109.8 21.0001 109.49 20.96 109.13 20.96H107.64V24.8601Z" fill="#FCFCFC"/>
</svg>
