<svg width="94" height="26" viewBox="0 0 94 26" fill="none" xmlns="http://www.w3.org/2000/svg">
<path d="M88.1299 5.68997C86.2499 5.68997 84.6799 6.31997 83.6899 7.49997V5.82997H80.8201V18.72H83.8401V12.2C83.8401 9.61997 85.2899 8.31998 87.4299 8.31998C89.3599 8.31998 90.49 9.42997 90.49 11.72V18.72H93.51V11.34C93.51 7.44997 91.2099 5.68997 88.1299 5.68997ZM45.8501 5.82997L41.73 15.39L37.72 5.82997H34.5801L40.1001 18.72H43.21L48.74 5.82997H45.8501ZM29.71 18.72H32.73V5.82997H29.71V18.72ZM31.23 3.70998C32.36 3.70998 33.1599 2.88997 33.1599 1.82997C33.1599 0.839971 32.34 0.0899658 31.23 0.0899658C30.12 0.0899658 29.3 0.889963 29.3 1.89996C29.3 2.91996 30.12 3.70998 31.23 3.70998ZM22.5701 7.71997V5.83997H19.7V18.73H22.72V12.48C22.72 9.84997 24.17 8.49997 26.46 8.49997C26.68 8.49997 26.8899 8.51998 27.1599 8.56998V5.69997C25.0099 5.68997 23.4401 6.36997 22.5701 7.71997ZM3.19995 16.07V4.48997H7.30005C11.06 4.48997 13.5 6.77997 13.5 10.28C13.5 13.78 11.06 16.07 7.30005 16.07H3.19995ZM0.0600586 18.72H7.43994C12.9199 18.72 16.6599 15.34 16.6599 10.27C16.6599 5.19997 12.9199 1.82997 7.43994 1.82997H0.0600586V18.72Z" fill="#5712A6"/>
<path d="M55.8401 8.09995C57.6501 8.09995 58.9999 9.15993 59.4099 10.7299L52.1201 12.1299V12.1099C52.1301 9.64994 53.6501 8.09995 55.8401 8.09995ZM56.3999 16.3299C54.5199 16.3299 53.12 15.5299 52.49 14.0599L62.3601 12.1299C62.3401 8.09994 59.4401 5.68994 55.8401 5.68994C52.0001 5.68994 49.2 8.43994 49.2 12.2799C49.2 16.1199 52.0001 18.8899 56.3201 18.8899C58.5401 18.8899 60.35 18.1599 61.48 16.7899L59.8899 14.9299C58.9599 15.8699 57.8499 16.3299 56.3999 16.3299Z" fill="#5712A6"/>
<path d="M71.04 16.3099C68.87 16.3099 67.23 14.7399 67.23 12.2799C67.23 9.81994 68.87 8.24994 71.04 8.24994C73.24 8.24994 74.8799 9.81994 74.8799 12.2799C74.8799 14.7399 73.24 16.3099 71.04 16.3099ZM71.04 18.8899C75.05 18.8899 77.9199 16.1399 77.9199 12.2799C77.9199 8.41994 75.05 5.68994 71.04 5.68994C67.08 5.68994 64.1899 8.41994 64.1899 12.2799C64.1899 16.1399 67.09 18.8899 71.04 18.8899Z" fill="#7D21E8"/>
<path fill-rule="evenodd" clip-rule="evenodd" d="M63.0472 12.5785C62.7072 9.67849 64.2673 7.23849 65.6673 5.99849C67.2773 4.56849 69.8072 3.52849 72.7372 4.21849C77.7272 5.38849 80.3473 11.0085 77.8373 15.6685C77.4073 16.4685 72.9173 22.7885 72.1573 23.9085C71.9373 24.2385 71.4473 25.0585 71.1373 25.1885C70.5373 25.4385 70.1673 24.6185 69.9073 24.2485L66.1073 18.7785C64.5573 16.5385 63.3872 15.4085 63.0472 12.5785ZM71.5072 8.28849C69.4672 7.88849 67.7872 9.43849 67.5472 11.0785C67.2472 13.1285 68.6172 14.6585 70.2872 14.9885C72.3272 15.3985 73.9572 13.8885 74.2672 12.2185C74.6572 10.1685 73.1472 8.60849 71.5072 8.28849Z" fill="#26E0FA"/>
</svg>
