<svg width="18" height="19" viewBox="0 0 18 19" fill="none" xmlns="http://www.w3.org/2000/svg">
<path fill-rule="evenodd" clip-rule="evenodd" d="M12.95 3.41992C14.1 4.12992 15.0699 5.22001 15.6699 6.51001C16.0999 7.44001 16.3301 8.4401 16.3301 9.6001C16.3301 12.1801 14.9 14.2599 13.22 15.4299C12.89 15.6599 12.4901 15.8901 12.0701 16.0701C7.28007 18.1701 1.97998 14.68 1.97998 9.51001C1.97998 8.38001 2.22011 7.48006 2.61011 6.56006C3.67011 4.10006 6.36011 2.27008 9.11011 2.33008C10.6101 2.37008 11.77 2.68992 12.95 3.41992ZM9.54004 15.3501C10.29 15.3501 10.8301 14.7801 10.8301 14.0801C10.8301 13.3801 10.29 12.8301 9.54004 12.8301C8.78004 12.8301 8.23999 13.3801 8.23999 14.0801C8.23999 14.7801 8.78004 15.3501 9.54004 15.3501ZM8.5 11.46H10.5701C10.5701 9.53996 13.3501 9.29989 13.3501 6.63989C13.3501 4.76989 11.7501 3.67993 9.36011 3.67993C7.33011 3.67993 5.85995 4.42992 4.94995 5.66992L6.53003 6.69995C7.10003 5.89995 7.97993 5.44995 9.17993 5.44995C10.4299 5.44995 11.21 6.06998 11.21 6.97998C11.22 8.58998 8.5 9.04996 8.5 11.46ZM17.8601 9.51001C17.8601 4.70001 13.9599 0.800049 9.1499 0.800049C4.3399 0.800049 0.439941 4.70001 0.439941 9.51001C0.439941 14.32 4.3399 18.22 9.1499 18.22C13.9599 18.22 17.8601 14.32 17.8601 9.51001Z" fill="white"/>
</svg>
