<svg width="417" height="664" viewBox="0 0 417 664" fill="none" xmlns="http://www.w3.org/2000/svg">
<path fill-rule="evenodd" clip-rule="evenodd" d="M317.07 106.01L329.63 98.76V98.98V113.26L317.07 106.01ZM202.55 276.21C212.76 268.51 217.26 263.15 216.67 249.84C216.67 249.84 214.31 253.24 212.31 254.87C210.31 256.51 201.46 260.45 202.55 276.21ZM416.04 0.420044C416.04 0.420044 367.85 15.92 362.15 67.22C356.45 118.52 344.23 129.11 308.4 142.14C272.57 155.17 260.35 177.97 257.09 217.87C253.83 257.77 224.52 296.86 174.84 301.75C89.6401 310.13 131.34 357.68 44.96 394.46L29.8601 422.31L64.1799 449.05C64.1799 449.05 95.8401 448.74 106.84 462.59C117.83 476.44 128.83 491.5 187.87 480.51C246.91 469.52 268.49 512.27 320.2 495.98C371.91 479.69 416.03 511.18 416.03 511.18V0.420044H416.04Z" fill="#E3E0FF"/>
<path fill-rule="evenodd" clip-rule="evenodd" d="M260.28 514.34C293.98 549.55 292.76 605.42 257.55 639.13C222.34 672.83 166.47 671.61 132.76 636.4C99.0599 601.19 100.28 545.32 135.49 511.61C170.7 477.9 226.57 479.13 260.28 514.34Z" fill="#BFEDFF"/>
<path fill-rule="evenodd" clip-rule="evenodd" d="M416.04 571.91C347.6 631.25 243.9 627.01 180.57 560.85C115.26 492.62 117.63 384.36 185.86 319.05C250.19 257.48 350.08 256.07 416.03 313.29V571.91H416.04Z" fill="#E3E0FF"/>
<path fill-rule="evenodd" clip-rule="evenodd" d="M224.73 318.54C274.55 370.6 272.74 453.19 220.69 503.01C168.63 552.84 86.04 551.03 36.22 498.97C-13.61 446.92 -11.8 364.33 40.26 314.5C92.32 264.68 174.91 266.49 224.73 318.54Z" fill="#E3E0FF"/>
<path fill-rule="evenodd" clip-rule="evenodd" d="M313.61 236.36C369.97 295.24 367.93 388.67 309.04 445.03C250.15 501.39 156.73 499.35 100.36 440.46C44 381.57 46.0398 288.15 104.93 231.78C163.82 175.43 257.24 177.47 313.61 236.36Z" fill="#E3E0FF"/>
<path fill-rule="evenodd" clip-rule="evenodd" d="M60.6998 470.58L49.3998 318.01H36.7399C-9.22012 365.42 -12.2401 439.57 28.7699 490.48H37.1798H49.3798L49.3898 490.41L60.6898 474.77L59.5499 474.47C59.5599 474.47 59.9798 473.01 60.6998 470.58Z" fill="#CFC7FF"/>
<path fill-rule="evenodd" clip-rule="evenodd" d="M95.6899 586.02L88.49 583.92L81.28 581.82L86.7 576.63L92.1201 571.44L93.9099 578.73L95.6899 586.02Z" fill="#E3E0FF"/>
<path fill-rule="evenodd" clip-rule="evenodd" d="M22.1 505.53C19.78 503.11 15.9299 503.02 13.4999 505.34C11.0699 507.66 10.99 511.51 13.31 513.94C15.63 516.37 19.4798 516.45 21.9098 514.13C24.3398 511.81 24.42 507.96 22.1 505.53ZM8.04996 506.24C6.89996 505.04 4.98995 504.99 3.77995 506.15C2.57995 507.3 2.52986 509.21 3.68986 510.42C4.83986 511.62 6.74988 511.67 7.95988 510.51C9.14988 509.36 9.19997 507.44 8.04996 506.24Z" fill="#E3E0FF"/>
<path fill-rule="evenodd" clip-rule="evenodd" d="M268.09 245.03L260.89 242.93L253.69 240.83L259.11 235.64L264.53 230.45L266.31 237.74L268.09 245.03Z" fill="white"/>
<path fill-rule="evenodd" clip-rule="evenodd" d="M347.75 263.46L345.97 256.17L344.18 248.89L351.39 250.98L358.59 253.09L353.17 258.27L347.75 263.46Z" fill="#E3E0FF"/>
<path fill-rule="evenodd" clip-rule="evenodd" d="M311.59 645.24L315.49 638.82L319.38 632.41L322.99 638.98L326.6 645.56L319.09 645.4L311.59 645.24Z" fill="#E3E0FF"/>
<path d="M151.42 311.65H49.3999V497.63H151.42V311.65Z" fill="#CFC7FF"/>
<path fill-rule="evenodd" clip-rule="evenodd" d="M173.79 391.18H76.3C65.37 391.18 56.4199 400.13 56.4199 411.06V424.93C56.4199 428.23 59.1299 430.94 62.4299 430.94H173.79C177.09 430.94 179.8 428.24 179.8 424.93V397.19C179.8 393.88 177.1 391.18 173.79 391.18Z" fill="#E3E0FF"/>
<path fill-rule="evenodd" clip-rule="evenodd" d="M66.48 480.53L55.1499 497.63L30.3101 492.34C27.8801 489.43 25.59 486.46 23.46 483.4L27.1001 469.71L34.8899 454.55L66.48 480.53Z" fill="#FFABCC"/>
<path fill-rule="evenodd" clip-rule="evenodd" d="M416.04 474.81L353.02 442.09L376.65 490.48H416.04V474.81Z" fill="#CFC7FF"/>
<path fill-rule="evenodd" clip-rule="evenodd" d="M146.89 391.18H284.14C284.14 391.18 326.2 413.51 326.44 412.3C326.68 411.09 317.33 428.02 327.54 417.25C327.58 417.21 327.61 417.18 327.65 417.14L334.7 403.35C334.7 403.35 335.4 390.76 355.54 381.67C361.82 378.83 369.9 377.13 378.05 376.12C382.07 405.24 383.06 429.12 382.26 459.16L403.08 471.18C403.89 439.85 402.94 406.03 397.17 374.83C407.03 374.63 414.29 375.1 414.29 375.1L389.48 348.59L388.55 345.87C388.55 345.87 355.26 316.5 319.45 310.9C283.64 305.3 146.9 315.84 146.9 315.84V391.18H146.89Z" fill="#CFC7FF"/>
<path fill-rule="evenodd" clip-rule="evenodd" d="M416.04 503.2H144.15C144.76 504.81 145.4 506.42 146.06 508.01H416.04V503.2ZM366.21 335.2C372.64 339.86 378.92 345.64 384.46 352.77C395.32 364.98 406.13 380.01 416.05 395.91V369.24C410.14 361.24 404.12 353.73 398.09 346.95C390.76 338.72 383.41 331.56 376.22 325.9C370.65 321.87 364.99 318.55 359.48 315.83C343.75 308.07 329.33 305.29 322.34 305.29H182.28C177.05 309.19 171.99 313.43 167.12 318H321.25C329.12 318.01 348.28 322.23 366.21 335.2Z" fill="#B06BFF"/>
<path fill-rule="evenodd" clip-rule="evenodd" d="M146.89 430.94H260.09L280.67 490.49H211.56C211.56 490.49 208.36 490.71 207.37 492.02C206.37 493.33 202.96 497.64 202.96 497.64H146.89V430.94Z" fill="#CFC7FF"/>
<path fill-rule="evenodd" clip-rule="evenodd" d="M150.4 416.44H139.36C137.58 416.44 137.5 417.52 137.5 417.52C137.5 417.52 135.48 425.44 135.01 427.09C134.54 428.74 136.35 429.37 136.35 429.37H164.46C164.46 429.37 166.27 428.74 165.8 427.09C165.33 425.44 163.31 417.52 163.31 417.52C163.31 417.52 163.23 416.44 161.45 416.44H150.4Z" fill="#CFC7FF"/>
<path fill-rule="evenodd" clip-rule="evenodd" d="M140.44 364.15C140.44 364.15 148.62 363.96 154.33 356.92C160.04 349.88 158.33 343.22 152.81 338.65C147.29 334.08 137.97 337.7 132.64 337.13C127.31 336.56 111.71 330.09 101.05 339.41C89.46 349.55 88.9099 380.54 100.39 392.95C111.87 405.36 140.44 364.15 140.44 364.15Z" fill="#5712A6"/>
<path fill-rule="evenodd" clip-rule="evenodd" d="M113.32 381.77L98.76 373.73L102.46 378.51L95.75 403.54L91.5901 414.46L122.39 418.92L132.95 379.52L113.32 381.77Z" fill="#ED85AB"/>
<path fill-rule="evenodd" clip-rule="evenodd" d="M106.01 367.81C96.3201 351.08 89.0901 381.64 103.28 382.22C103.28 382.22 103.46 393.16 105.47 395.53C107.47 397.9 117.51 405.19 124.8 406.47C132.09 407.75 136.11 404.28 138.66 394.44C138.78 393.99 138.9 393.5 139.02 392.97V392.96C139.67 390.11 140.37 386.26 141.05 382.12V382.1C141.57 378.97 144.68 373.49 145.05 371.64C145.31 370.37 145.04 363.67 144.85 359.57C142.53 359.58 139.93 359.38 137.08 358.86C125.04 356.64 119.06 353.36 119.06 353.36C119.06 353.36 116.78 359.97 115.5 362.53C114.22 365.08 112.22 368 111.85 370.92C111.49 373.84 110.76 377.3 110.76 377.3L105.65 373.65L106.01 367.81Z" fill="#FFABCC"/>
<path fill-rule="evenodd" clip-rule="evenodd" d="M132.92 397.41C132.9 397.42 125.2 399.39 121.71 390.47L123.94 389.6C126.66 396.54 132.36 395.08 132.38 395.07L132.92 397.41Z" fill="#ED85AB"/>
<path fill-rule="evenodd" clip-rule="evenodd" d="M124.42 411.34C124.42 411.34 121.92 415.55 111.21 413.43C100.5 411.32 95.75 403.55 95.75 403.55C95.75 403.55 47.44 413.46 42.76 420.22C38.08 426.97 24.5701 473.74 24.5701 473.74L56.8 482.38L53.48 497.64H149.3L148.16 475.39L169.24 470.44C169.24 470.44 167.77 464.3 162.23 449.91C156.69 435.53 153.21 425.36 150.88 422.68C148.54 420 125.17 408.55 125.17 408.55L124.42 411.34Z" fill="#2678FA"/>
<path fill-rule="evenodd" clip-rule="evenodd" d="M103.22 394.87C102.87 389.83 103.27 382.22 103.27 382.22C102.65 382.19 102.07 382.11 101.53 381.98L99.05 391.23L99.03 391.31L95.75 403.54C95.75 403.54 100.44 411.2 110.99 413.38C111.81 410.6 112.61 408.07 112.61 408.07C112.61 408.07 104.49 401.9 103.58 397.74C103.41 396.99 103.3 395.99 103.22 394.87Z" fill="#FFABCC"/>
<path d="M65.9501 450.666L57.8401 478.312L58.9531 478.638L67.0632 450.992L65.9501 450.666Z" fill="white"/>
<path fill-rule="evenodd" clip-rule="evenodd" d="M167.03 470.97L148.16 475.38L149.31 497.63H167.25H174.04L167.03 470.97Z" fill="#FFABCC"/>
<path fill-rule="evenodd" clip-rule="evenodd" d="M146.98 473.92L146.25 444.78L147.41 444.76L148.14 473.9L146.98 473.92Z" fill="white"/>
<path fill-rule="evenodd" clip-rule="evenodd" d="M195.31 318.01H36.76C37.91 316.83 39.07 315.65 40.27 314.5C43.71 311.2 47.29 308.14 50.99 305.29H195.31V318.01Z" fill="#B06BFF"/>
<path fill-rule="evenodd" clip-rule="evenodd" d="M26.78 396.97C67.18 424.43 108.18 457.16 135.9 497.63H149.31L148.64 484.58C115.43 446.2 91.05 422.24 48.29 394.79L26.78 396.97Z" fill="#CFC7FF"/>
<path fill-rule="evenodd" clip-rule="evenodd" d="M29.1201 295.3L27.3401 288.01L25.55 280.73L32.76 282.83L39.96 284.93L34.54 290.11L29.1201 295.3Z" fill="#E3E0FF"/>
<path d="M400.18 490.48H213.42V498.73H400.18V490.48Z" fill="#BFEDFF"/>
<path fill-rule="evenodd" clip-rule="evenodd" d="M163.45 497.63L167.82 503.2H40.47C39.03 501.83 37.61 500.42 36.23 498.97C33.6 496.23 31.13 493.39 28.78 490.48H152.99C154.17 490.48 157.8 490.37 159.04 492.01L163.45 497.63Z" fill="#E3E0FF"/>
<path fill-rule="evenodd" clip-rule="evenodd" d="M251.97 416.44H240.93C239.14 416.44 239.07 417.52 239.07 417.52C239.07 417.52 237.05 425.44 236.58 427.09C236.11 428.74 237.92 429.37 237.92 429.37H266.03C266.03 429.37 267.84 428.74 267.37 427.09C266.9 425.44 264.88 417.52 264.88 417.52C264.88 417.52 264.8 416.44 263.02 416.44H251.97Z" fill="#CFC7FF"/>
<path fill-rule="evenodd" clip-rule="evenodd" d="M202.96 497.63L198.58 503.2H416.03V490.48H400.17C337.92 490.48 275.66 490.48 213.41 490.48C212.23 490.48 208.6 490.37 207.36 492.01L202.96 497.63Z" fill="#E3E0FF"/>
<path fill-rule="evenodd" clip-rule="evenodd" d="M211.62 429.21C207.67 431.94 195.92 438.68 195.92 438.68L193.21 444.96L179.66 440.92C179.66 440.92 183.07 432.15 182.59 431.11C182.12 430.07 181.92 426.37 184.49 424.09C187.05 421.81 191.7 420.96 193.03 420.1C194.36 419.25 194.45 417.54 195.02 415.64C195.59 413.74 198.62 411.94 199.38 415.17C200.14 418.39 199.52 420.44 199.52 420.44C199.52 420.44 206.49 416.98 208.48 412.99C210.47 409 212.37 409.67 213.51 411.19C214.65 412.71 214.03 413.32 214.03 413.32C214.03 413.32 215.56 413.94 216.41 415.27C219.84 420.57 215.56 426.47 211.62 429.21Z" fill="#FFABCC"/>
<path fill-rule="evenodd" clip-rule="evenodd" d="M191.22 432.6C191.22 430.94 183.02 429.16 183.02 429.16L165.7 489.84L168.62 497.64H189.95L196.03 437.64L191.22 432.6Z" fill="#FFABCC"/>
<path fill-rule="evenodd" clip-rule="evenodd" d="M163.63 491.47L166.91 479.53L168.31 479.91L165.03 491.85L163.63 491.47Z" fill="#ED85AB"/>
<path fill-rule="evenodd" clip-rule="evenodd" d="M153.08 503.2H40.46C42.2 504.86 43.98 506.47 45.79 508.01C45.79 508.01 143.27 508.01 155 508.01L153.08 503.2Z" fill="#B06BFF"/>
<path fill-rule="evenodd" clip-rule="evenodd" d="M208.2 513.57H148.48H133.51H52.76C71.76 527.69 93.7801 536.01 116.33 538.46C131.1 540.06 146.11 539.15 160.65 535.72C166.39 544.55 173.04 552.97 180.59 560.86C207.42 588.89 241.51 605.81 277.09 611.48C325.47 619.19 376.62 606.11 416.06 571.91V513.57H259.55H208.2Z" fill="#B06BFF"/>
<path fill-rule="evenodd" clip-rule="evenodd" d="M277.07 611.48C241.49 605.81 207.4 588.89 180.57 560.86C173.02 552.97 166.37 544.55 160.63 535.72C146.09 539.16 131.09 540.07 116.31 538.46C101.62 570.41 106.96 609.45 132.75 636.39C166.45 671.6 222.32 672.83 257.53 639.12C266.03 631 272.55 621.58 277.07 611.48Z" fill="#E3E0FF"/>
<path fill-rule="evenodd" clip-rule="evenodd" d="M145.83 565.52L149.72 559.11L153.61 552.7L157.22 559.28L160.83 565.86L153.33 565.69L145.83 565.52Z" fill="white"/>
<path fill-rule="evenodd" clip-rule="evenodd" d="M322.01 446.38L328.32 447.88L327.11 452.29L323.1 451.03L322.01 446.38Z" fill="#5712A6"/>
<path fill-rule="evenodd" clip-rule="evenodd" d="M240.75 175.66C239.07 162.53 239.94 145.47 256.54 143.63C256.54 143.63 261.05 163.03 240.75 175.66Z" fill="#E3E0FF"/>
<path fill-rule="evenodd" clip-rule="evenodd" d="M332.47 443.98C332.47 443.98 329.18 444.91 329.1 445.18C329.02 445.45 326.43 444.32 326.43 444.32L331.06 438.54L332.47 443.98Z" fill="#ED87AB"/>
<path d="M366.71 474.9H254V490.49H366.71V474.9Z" fill="#5712A6"/>
<path fill-rule="evenodd" clip-rule="evenodd" d="M295.67 409.42L308.91 398.82C308.91 398.82 276.28 401.81 258.51 413.7C249.47 424.52 237.39 466.47 235.76 471.57C234.13 476.67 234.7 487.83 241.07 489.53C247.43 491.24 297.14 489.53 297.14 489.53L295.67 409.42Z" fill="#5712A6"/>
<path fill-rule="evenodd" clip-rule="evenodd" d="M330.89 406.63L325.96 396.3C325.96 396.3 366.39 404.56 374.12 411.83C376.64 416.02 390.8 459.46 392.48 464.7C394.16 469.94 393.57 487.23 387.02 488.99C380.48 490.74 287.6 488.99 287.6 488.99L330.89 406.63Z" fill="#5712A6"/>
<path fill-rule="evenodd" clip-rule="evenodd" d="M321.44 393.11L327.15 396.27C327.15 396.27 330.02 385.17 334.16 376.34C338.3 367.5 338.72 359.17 336.71 355.47C334.7 351.77 331.39 351.31 330.03 349.68C328.67 348.05 316.92 339.13 304.9 340.56C292.89 341.99 291.61 350.58 291.19 351.55C290.77 352.51 287.15 355.54 287.25 361.91C287.35 368.28 290.87 379.31 290.87 379.31L321.44 393.11Z" fill="#D9A14F"/>
<path fill-rule="evenodd" clip-rule="evenodd" d="M322.93 419.28L332.43 408.79C332.43 408.79 318.19 445.9 309.94 462.7C301.69 479.5 297.04 484.78 297.04 484.78C297.04 484.78 291.03 453.34 291.03 449.52C291.03 445.7 294.82 413.83 294.82 413.83C294.82 413.83 311.49 413 322.93 419.28Z" fill="#5712A6"/>
<path fill-rule="evenodd" clip-rule="evenodd" d="M333.06 403.27C332.99 405.78 332.64 408.61 331.72 411.48C328.91 420.28 324.82 428.54 324.82 428.54C324.82 428.54 319.83 421.28 317.02 419.2C314.21 417.11 307.79 418.2 307.79 418.2L316.44 406.03L316.85 408.14L327.18 401.05C327.19 401.05 329.54 401.93 333.06 403.27ZM315.3 400.12L302.16 402.5C302.16 402.5 299.59 403.83 295.87 405.81C292.4 412.57 290.26 421.73 290.26 421.73C290.26 421.73 296.61 417.01 297.88 416.65C299.15 416.29 305.93 417.86 305.93 417.86L309.67 402.5L315.35 400.41L315.3 400.12Z" fill="#5712A6"/>
<path fill-rule="evenodd" clip-rule="evenodd" d="M328.45 366.15C328.45 366.15 331 362.65 334.37 366.68C338.37 371.47 334.35 381.6 327.12 380.95L327.21 404.82C327.21 404.82 320.1 417.61 310.34 418.22C300.59 418.83 300.23 411.61 300.54 408.51C300.86 405.41 302.05 402.56 302.05 402.56L302.52 397.38C289.31 396.52 288.65 377.42 289.51 367.87C290.31 358.99 292.32 353.21 292.32 353.21C292.32 353.21 294.95 357.18 304.23 361.74C313.51 366.31 320.17 366.9 320.17 366.9C320.17 367.07 320.42 369.2 321.41 370.55C322.47 372 323.71 375.19 324.6 375.8C325.77 376.04 325.71 374.65 325.99 373.48C326.58 370.94 327.47 367.73 328.45 366.15Z" fill="#FFABCC"/>
<path fill-rule="evenodd" clip-rule="evenodd" d="M298.93 351.88C298.93 351.88 299.16 354.79 296.26 359.49C293.36 364.19 289.29 373.77 289.29 373.77C289.29 373.77 288.86 356.18 289.07 355.78C289.27 355.39 291.67 349.32 294.88 351.35C298.09 353.38 298.93 351.88 298.93 351.88Z" fill="#D9A14F"/>
<path fill-rule="evenodd" clip-rule="evenodd" d="M310.76 350.11L296.89 352.2C295.11 352.47 294.42 358.15 295.45 359.69C298.97 364.94 326.81 384.13 325.84 377.65L324.04 365.61L310.76 350.11Z" fill="#D9A14F"/>
<path fill-rule="evenodd" clip-rule="evenodd" d="M299.19 372.56L294.55 362.53L295.83 360.21C295.83 360.21 302.82 367.65 311.47 371.08C320.12 374.52 327.29 372.17 327.29 372.17C327.29 372.17 329.3 377.08 329.07 378.73C328.85 380.38 329.44 385.59 320.16 384.99C310.88 384.39 299.19 372.56 299.19 372.56Z" fill="#FFABCC"/>
<path fill-rule="evenodd" clip-rule="evenodd" d="M318.29 420.32C314.99 422.5 309.56 426.05 309.09 426.2C308.4 426.43 304.69 426.38 303.82 426.02C303.62 425.94 303.16 425.32 302.57 424.42C301.2 422.32 299.13 418.69 297.98 416.63C299.46 416.36 305.93 417.87 305.93 417.87C306.49 418.02 307.11 418.14 307.8 418.2C308.56 418.27 309.41 418.29 310.34 418.23C311.02 418.19 311.68 418.09 312.33 417.94C314.04 418.01 315.85 418.33 317.04 419.2C317.26 419.36 317.49 419.55 317.73 419.77C317.9 419.93 318.1 420.12 318.29 420.32Z" fill="#5712A6"/>
<path fill-rule="evenodd" clip-rule="evenodd" d="M304.74 423.04L309.09 426.2L310.7 484.89L287.6 489.82L287.75 471.47L304.74 423.04Z" fill="#5712A6"/>
<path fill-rule="evenodd" clip-rule="evenodd" d="M280.13 451.08L277.73 447.28L271.29 452.1L267.46 453.98L263.45 484.72L271.22 478.72L286.07 463.33L280.13 451.08Z" fill="#ED85AB"/>
<path fill-rule="evenodd" clip-rule="evenodd" d="M325.75 391.68L328.37 396.05C328.37 396.05 333.75 384.81 336.63 375.85C339.51 366.9 339.35 356.66 337.59 352.99C335.83 349.31 332.31 348.99 332.31 348.99C332.31 348.99 328.15 341.15 318.72 340.68C309.29 340.2 297.93 341 291.38 338.44C284.82 335.88 278.27 342.6 282.11 352.99C285.95 363.38 300.5 361.78 300.5 361.78C300.5 361.78 304.01 386.41 325.75 391.68Z" fill="#5712A6"/>
<path fill-rule="evenodd" clip-rule="evenodd" d="M322.16 369.06C322.16 369.06 323.76 364.74 326.8 364.9C329.84 365.06 332.4 370.34 331.12 375.45C329.84 380.57 326.8 382.17 325.52 382.17C324.24 382.17 323.28 381.69 323.28 381.69C323.28 381.69 322.64 389.69 318.96 393.68C315.28 397.68 305.21 401.19 300.89 399.92C296.57 398.64 295.93 387.93 295.13 380.73C294.33 373.53 295.45 355.62 295.45 355.62L305.84 356.1C305.84 356.1 306.96 361.86 309.2 363.62C311.44 365.38 313.36 365.54 314.48 368.26C315.6 370.98 316.56 379.13 316.56 379.13L321.36 375.61L322.16 369.06Z" fill="#FFABCC"/>
<path fill-rule="evenodd" clip-rule="evenodd" d="M301.47 366.03L305.85 356.11C305.85 356.11 297.68 354.86 292.47 355.31C287.26 355.76 286.58 355.99 286.58 355.99C286.58 355.99 285.67 371.18 286.58 379.79C287.49 388.4 292.09 398.99 300.9 399.92C309.71 400.85 317.31 395.16 317.31 395.16L301.47 366.03Z" fill="#FFABCC"/>
<path fill-rule="evenodd" clip-rule="evenodd" d="M289.29 384.32C289.29 384.32 290.79 381.58 292.92 380.69C298.59 378.33 305.34 381.49 307.9 386.98C309.49 390.38 318.5 388.49 316.33 377.36C314.17 366.23 313.32 362.1 313.32 362.1L321.03 365.73C321.03 365.73 322.65 378.36 322.52 386.1C322.39 393.84 316.27 397.69 311.96 399.73C307.65 401.77 301.53 402 297.22 400.87C290.61 399.13 285.73 389.01 286.98 382.58L289.29 384.32Z" fill="#5712A6"/>
<path fill-rule="evenodd" clip-rule="evenodd" d="M305.66 389.79L306.41 384.59L309.61 387.37L317.76 377.33C317.76 377.33 321.63 381.6 318.47 386.54C315.3 391.48 305.66 389.79 305.66 389.79Z" fill="#5712A6"/>
<path fill-rule="evenodd" clip-rule="evenodd" d="M284.39 350.65L286.43 358.64C286.43 358.64 279.6 356.67 277.72 345.81C274.85 329.29 297.27 327.46 300.15 337.43C305.24 330.89 320.09 331.72 321.76 339.55C327.95 337.99 332.91 342.79 332.3 348.99C331.7 355.19 284.39 350.65 284.39 350.65Z" fill="#5712A6"/>
<path fill-rule="evenodd" clip-rule="evenodd" d="M325.06 374.5L322.25 374.69C322.25 374.69 323.34 379.33 321.75 387.02C320.16 394.72 316.46 406.02 316.46 406.02L327.21 404.81L329.64 400.34C329.64 400.34 328.87 396.73 328 389.88C327.13 383.03 327.29 375.14 327.29 375.14L325.06 374.5Z" fill="#FFABCC"/>
<path fill-rule="evenodd" clip-rule="evenodd" d="M267.46 453.98L259.83 457.08C259.83 457.08 254.16 453.71 249.49 453.56C244.82 453.41 241.16 454.26 241.16 454.26C241.16 454.26 234.47 472.02 234.17 477.69C233.86 483.36 235.63 490.48 243.9 490.48C252.18 490.48 259.68 490.48 259.68 490.48L271.22 478.72L266.34 468.42L267.46 453.98Z" fill="#FFABCC"/>
<path fill-rule="evenodd" clip-rule="evenodd" d="M358.83 458.62L353.02 449.65L370.4 457.09C370.4 457.09 376.07 453.72 380.74 453.57C385.41 453.42 389.07 454.27 389.07 454.27C389.07 454.27 395.76 472.03 396.06 477.7C396.37 483.37 394.6 490.49 386.33 490.49C378.05 490.49 366.72 490.49 366.72 490.49L359.3 481.82L358.83 458.62Z" fill="#FFABCC"/>
<path fill-rule="evenodd" clip-rule="evenodd" d="M342.51 447.96L345.23 446.13L359.05 452.2L361.57 464.98L359.3 481.81L338.58 459.29L342.51 447.96Z" fill="#ED85AB"/>
<path fill-rule="evenodd" clip-rule="evenodd" d="M310.92 442.09C338.68 442.09 363.95 464.65 370.23 490.48H362.64C356.55 468.75 334.6 449.44 310.92 449.44C287.24 449.44 265.77 468.75 259.68 490.48H252.09C258.36 464.65 283.16 442.09 310.92 442.09Z" fill="#5712A6"/>
<path fill-rule="evenodd" clip-rule="evenodd" d="M325.05 448.36C325.05 448.36 321.64 452.22 321.21 453.2C320.78 454.18 320.41 456.14 321.82 457.12C323.23 458.1 333.4 465.33 335.29 465.39C337.19 465.45 340.99 464.47 340.86 460.06C340.75 455.65 325.05 448.36 325.05 448.36Z" fill="#ED85AB"/>
<path fill-rule="evenodd" clip-rule="evenodd" d="M297.71 448.66C297.71 448.66 301.94 452.21 302.37 453.19C302.8 454.17 303.16 456.13 301.76 457.11C300.35 458.09 290.18 465.32 288.28 465.38C286.38 465.44 282.58 464.46 282.71 460.05C282.83 455.65 297.71 448.66 297.71 448.66Z" fill="#ED85AB"/>
<path fill-rule="evenodd" clip-rule="evenodd" d="M292.86 438.54C292.86 438.54 297.45 453.79 297.52 455.45C297.58 457.1 294.81 458.28 293.89 458.44C292.97 458.59 292.17 458.23 292.17 458.23C292.17 458.23 292.2 459.3 291.62 459.95C291.04 460.59 288.49 462.4 287.82 462.49C287.15 462.58 286.32 462.06 286.32 462.06C286.32 462.06 286.35 463.56 285.31 464.39C284.27 465.22 283.32 465.65 282.8 465.8C282.28 465.95 281.11 465.68 281.11 465.68C281.11 465.68 281.24 466.84 281.02 467C280.81 467.15 278.66 469.04 277.27 468.76C275.88 468.48 269.54 458.92 268.74 457.94C267.94 456.96 268.31 453.89 268.68 452.79C269.05 451.69 270.82 451.32 271.31 449.97C271.8 448.62 272.23 447.34 274.13 446.72C276.03 446.11 277.01 445.49 278.11 443.78C279.21 442.06 280.93 441.33 282.28 441.15C283.63 440.97 284.3 441.03 285.04 440.6C285.78 440.17 287.67 438.15 288.41 438.09C289.14 438.01 292.01 437.88 292.86 438.54Z" fill="#FFABCC"/>
<path fill-rule="evenodd" clip-rule="evenodd" d="M286.29 443.97C286.3 444 289.71 453.33 292.14 457.44L291.41 457.87C288.94 453.71 285.51 444.29 285.49 444.26L286.29 443.97Z" fill="#ED85AB"/>
<path fill-rule="evenodd" clip-rule="evenodd" d="M285.78 461.84C285.76 461.82 280.72 454.41 278.9 450.25L279.68 449.91C281.47 454 286.47 461.35 286.49 461.37L285.78 461.84Z" fill="#ED85AB"/>
<path fill-rule="evenodd" clip-rule="evenodd" d="M280.55 465.62C280.54 465.6 275.54 458.53 273.23 453.9L273.99 453.52C276.27 458.08 281.23 465.12 281.25 465.14L280.55 465.62Z" fill="#ED85AB"/>
<path d="M249.42 461.3L258.88 456.82L259.38 457.88L249.92 462.37L249.42 461.3Z" fill="#ED87AB"/>
<path d="M381.74 462.6L372.28 458.12L372.78 457.06L382.24 461.54L381.74 462.6Z" fill="#ED87AB"/>
<path fill-rule="evenodd" clip-rule="evenodd" d="M332.13 443.98C332.13 443.98 329.67 445.21 329.59 445.48C329.51 445.75 326.75 444.6 326.75 444.6L330.71 438.54L332.13 443.98Z" fill="#ED87AB"/>
<path fill-rule="evenodd" clip-rule="evenodd" d="M330.72 438.54C330.72 438.54 326.13 453.79 326.06 455.45C325.99 457.11 328.77 458.28 329.69 458.44C330.61 458.59 331.41 458.22 331.41 458.22C331.41 458.22 331.38 459.29 331.96 459.94C332.54 460.58 335.08 462.39 335.76 462.48C336.43 462.57 337.26 462.05 337.26 462.05C337.26 462.05 337.23 463.55 338.27 464.38C339.31 465.21 340.26 465.64 340.78 465.79C341.3 465.94 342.47 465.67 342.47 465.67C342.47 465.67 342.35 466.84 342.56 466.99C342.77 467.14 344.58 468.81 346.5 468.8C348.41 468.78 354.04 458.91 354.84 457.93C355.64 456.95 355.27 453.89 354.9 452.78C354.53 451.68 352.76 451.31 352.27 449.96C351.78 448.61 351.35 447.33 349.45 446.71C347.55 446.1 346.57 445.48 345.47 443.77C344.37 442.05 342.65 441.32 341.3 441.14C339.95 440.96 339.28 441.02 338.55 440.59C337.81 440.16 335.92 438.14 335.18 438.08C334.44 438.01 331.56 437.88 330.72 438.54Z" fill="#FFABCC"/>
<path fill-rule="evenodd" clip-rule="evenodd" d="M338.23 444.12C338.22 444.15 334.79 453.56 332.32 457.73L331.59 457.3C334.02 453.2 337.43 443.86 337.44 443.84L338.23 444.12Z" fill="#ED85AB"/>
<path fill-rule="evenodd" clip-rule="evenodd" d="M337.24 461.23C337.25 461.21 341.5 454.93 343.3 450.84L344.08 451.18C342.26 455.34 337.96 461.68 337.95 461.7L337.24 461.23Z" fill="#ED85AB"/>
<path fill-rule="evenodd" clip-rule="evenodd" d="M342.48 464.99C342.49 464.97 345.75 460.23 348.02 455.67L348.78 456.05C346.47 460.67 343.19 465.46 343.18 465.47L342.48 464.99Z" fill="#ED85AB"/>
<path fill-rule="evenodd" clip-rule="evenodd" d="M392.12 391.05L379.46 387.29C379.46 387.29 354 405.86 340.15 419.57C326.3 433.28 318.44 441.72 318.44 441.72L326.75 444.61L330.28 439.22C330.28 439.22 333.65 437.81 335.1 438.45C336.56 439.09 337.59 440.64 338.34 441.03C339.09 441.42 341.22 441.15 341.83 441.4C342.44 441.66 342.81 442.29 342.81 442.29C342.81 442.29 357.43 425.75 371.46 413.66C385.5 401.57 399.63 390.61 399.63 390.61L392.12 391.05Z" fill="#CFC7FF"/>
<path fill-rule="evenodd" clip-rule="evenodd" d="M324.8 445.61L328.25 446.96L327.01 451.38L319.54 448.87L324.8 445.61Z" fill="#5712A6"/>
<path fill-rule="evenodd" clip-rule="evenodd" d="M302.02 490.48H280.63C280.63 490.48 287.36 479.69 295.64 469.12C303.92 458.56 313.7 446.98 313.7 446.98L323.46 450.19C323.46 450.19 321.35 452.59 321.22 453.81C321.08 455.03 320.8 455.75 322.1 456.98C322.72 457.57 323.88 458.45 324.93 459.21C326.08 460.04 327.08 460.73 327.08 460.73C316.3 473.4 310.89 480.22 305.55 490.47H302.02V490.48Z" fill="#CFC7FF"/>
</svg>
