<svg width="92" height="24" viewBox="0 0 92 24" fill="none" xmlns="http://www.w3.org/2000/svg">
<path d="M85.8799 5.57007C84.0599 5.57007 82.5301 6.18008 81.5701 7.33008V5.70996H78.79V18.21H81.72V11.8899C81.72 9.37989 83.12 8.12012 85.21 8.12012C87.08 8.12012 88.1799 9.19992 88.1799 11.4199V18.21H91.1101V11.05C91.1001 7.28005 88.8699 5.57007 85.8799 5.57007ZM44.8701 5.70996L40.8701 14.98L36.98 5.70996H33.9399L39.3 18.21H42.3201L47.6799 5.70996H44.8701ZM29.21 18.21H32.1399V5.70996H29.21V18.21ZM30.6799 3.6499C31.7799 3.6499 32.55 2.86008 32.55 1.83008C32.55 0.870078 31.7599 0.139893 30.6799 0.139893C29.5999 0.139893 28.8101 0.909902 28.8101 1.8999C28.8101 2.8799 29.6099 3.6499 30.6799 3.6499ZM22.28 7.54004V5.70996H19.5V18.21H22.4299V12.1499C22.4299 9.5999 23.8301 8.29004 26.0601 8.29004C26.2701 8.29004 26.48 8.31011 26.74 8.36011V5.57007C24.64 5.57007 23.12 6.23004 22.28 7.54004ZM3.47998 15.6399V4.3999H7.45996C11.11 4.3999 13.48 6.62002 13.48 10.02C13.48 13.41 11.12 15.6399 7.45996 15.6399H3.47998ZM0.439941 18.21H7.6001C12.9101 18.21 16.54 14.93 16.54 10.02C16.54 5.10002 12.9101 1.83008 7.6001 1.83008H0.439941V18.21Z" fill="white"/>
<path d="M54.5601 7.90991C56.3101 7.90991 57.63 8.93996 58.02 10.46L50.95 11.8201V11.8C50.95 9.41005 52.4301 7.90991 54.5601 7.90991ZM55.1001 15.8999C53.2701 15.8999 51.9201 15.13 51.3101 13.7L60.8799 11.8301C60.8599 7.92008 58.0501 5.58008 54.5601 5.58008C50.8401 5.58008 48.1201 8.24997 48.1201 11.97C48.1201 15.69 50.84 18.3799 55.02 18.3799C57.17 18.3799 58.93 17.6801 60.03 16.3401L58.49 14.54C57.58 15.45 56.5001 15.8999 55.1001 15.8999Z" fill="white"/>
<path d="M69.3101 15.8701C67.2001 15.8701 65.6101 14.35 65.6101 11.96C65.6101 9.56996 67.2001 8.05005 69.3101 8.05005C71.4401 8.05005 73.03 9.56996 73.03 11.96C73.03 14.35 71.4401 15.8701 69.3101 15.8701ZM69.3101 18.3799C73.2001 18.3799 75.98 15.71 75.98 11.97C75.98 8.21997 73.2001 5.58008 69.3101 5.58008C65.4701 5.58008 62.6599 8.22997 62.6599 11.97C62.6599 15.71 65.4701 18.3799 69.3101 18.3799Z" fill="#CFC7FF"/>
<path fill-rule="evenodd" clip-rule="evenodd" d="M61.69 11.0299C61.36 8.20991 62.88 5.84979 64.23 4.64979C65.79 3.25979 68.2501 2.25981 71.0901 2.91981C75.9301 4.04981 78.4701 9.49991 76.0401 14.0299C75.6201 14.8099 71.2701 20.9399 70.5301 22.0199C70.3101 22.3399 69.8401 23.1399 69.5401 23.2599C68.9601 23.4999 68.6001 22.71 68.3501 22.35L64.66 17.0399C63.16 14.8799 62.01 13.7699 61.69 11.0299ZM69.8999 6.87C67.9199 6.48 66.2901 7.98996 66.0601 9.57996C65.7701 11.57 67.1 13.05 68.72 13.37C70.7 13.76 72.2801 12.3098 72.5801 10.6798C72.9501 8.69982 71.4899 7.18 69.8999 6.87Z" fill="white"/>
</svg>
