<svg width="341" height="324" viewBox="0 0 341 324" fill="none" xmlns="http://www.w3.org/2000/svg">
<path fill-rule="evenodd" clip-rule="evenodd" d="M248.25 323.07C291.91 323.07 327.51 287.47 327.51 243.81C327.51 200.16 291.91 164.56 248.25 164.56C204.6 164.56 169 200.16 169 243.81C169 287.47 204.6 323.07 248.25 323.07Z" fill="#E3E0FF"/>
<path fill-rule="evenodd" clip-rule="evenodd" d="M216.77 248.41C284.91 248.41 340.49 192.83 340.49 124.69C340.49 56.5499 284.91 0.969971 216.77 0.969971C148.63 0.969971 93.0601 56.5499 93.0601 124.69C93.0601 192.83 148.63 248.41 216.77 248.41Z" fill="#E3E0FF"/>
<path fill-rule="evenodd" clip-rule="evenodd" d="M94.97 310.91C146.95 310.91 189.35 268.51 189.35 216.53C189.35 164.55 146.95 122.15 94.97 122.15C42.98 122.15 0.580078 164.55 0.580078 216.53C0.580078 268.51 42.99 310.91 94.97 310.91Z" fill="#E3E0FF"/>
<path fill-rule="evenodd" clip-rule="evenodd" d="M113.73 230.11C172.53 230.11 220.5 182.15 220.5 123.34C220.5 64.5301 172.54 16.5701 113.73 16.5701C54.92 16.5701 6.95996 64.5301 6.95996 123.34C6.95996 182.14 54.92 230.11 113.73 230.11Z" fill="#E3E0FF"/>
<path fill-rule="evenodd" clip-rule="evenodd" d="M176.19 316.52L171.49 319.23L166.79 321.95V316.52V311.09L171.49 313.81L176.19 316.52Z" fill="#E3E0FF"/>
<path fill-rule="evenodd" clip-rule="evenodd" d="M111.98 267.96C109.55 267.96 107.58 269.93 107.58 272.36C107.58 274.79 109.55 276.76 111.98 276.76C114.4 276.76 116.38 274.79 116.38 272.36C116.38 269.93 114.41 267.96 111.98 267.96ZM105.31 275.66C104.1 275.66 103.13 276.64 103.13 277.84C103.13 279.05 104.11 280.03 105.31 280.03C106.52 280.03 107.5 279.05 107.5 277.84C107.5 276.64 106.53 275.66 105.31 275.66Z" fill="white"/>
<path fill-rule="evenodd" clip-rule="evenodd" d="M282.42 153.78C282.42 156.21 284.39 158.18 286.82 158.18C289.25 158.18 291.21 156.21 291.21 153.78C291.21 151.35 289.25 149.38 286.82 149.38C284.39 149.38 282.42 151.35 282.42 153.78ZM290.11 160.44C290.11 161.65 291.09 162.63 292.3 162.63C293.51 162.63 294.48 161.65 294.48 160.44C294.48 159.23 293.5 158.26 292.3 158.26C291.09 158.26 290.11 159.23 290.11 160.44Z" fill="white"/>
<path fill-rule="evenodd" clip-rule="evenodd" d="M95.49 44.6899L90.79 47.4099L86.0901 50.1201V44.6899V39.26L90.79 41.97L95.49 44.6899Z" fill="white"/>
<path fill-rule="evenodd" clip-rule="evenodd" d="M144.97 12.28L140.27 9.57007L135.57 6.86011L140.27 4.13989L144.97 1.42993V6.86011V12.28Z" fill="#E3E0FF"/>
<path fill-rule="evenodd" clip-rule="evenodd" d="M310.99 25.1799L309.58 19.9399L308.18 14.7L313.42 16.1001L318.66 17.5L314.83 21.3401L310.99 25.1799Z" fill="#E3E0FF"/>
<path fill-rule="evenodd" clip-rule="evenodd" d="M7.04004 119.35C7.67004 102.34 12.2599 86.35 19.9399 72.27H84.49C91.48 72.27 91.0601 80.3201 89.5701 84.5601C88.0901 88.8001 77.5 113.79 77.5 113.79C77.5 113.79 76.9701 116.12 76.0701 119.35H7.04004Z" fill="white"/>
<path fill-rule="evenodd" clip-rule="evenodd" d="M147.02 112.15H260.11C260.11 112.15 269.32 112.15 267.29 102.2C265.26 92.25 242.55 47.19 236.16 40.49C229.78 33.8 152.48 58.3102 132.62 67.3602C112.76 76.4102 111.79 99.1201 116.14 106.83C120.49 114.54 147.02 112.15 147.02 112.15Z" fill="white"/>
<path fill-rule="evenodd" clip-rule="evenodd" d="M25.8501 95.79L21.1499 93.0801L16.45 90.3701L21.1499 87.6499L25.8501 84.9399V90.3701V95.79Z" fill="#E3E0FF"/>
<path fill-rule="evenodd" clip-rule="evenodd" d="M154.69 48.4299C154.69 48.4299 149.03 56.7099 149.25 60.1699C149.47 63.6299 162.15 113.27 162.15 113.27H156.41L141.75 54.3701L154.69 48.4299Z" fill="#E3E0FF"/>
<path d="M103.091 90.8941L98.5986 92.4973L107.579 117.662L112.072 116.059L103.091 90.8941Z" fill="#CFC7FF"/>
<path fill-rule="evenodd" clip-rule="evenodd" d="M144.34 211.03L141.37 260.71H218.91L206.2 186.88L158.75 179.67L144.34 211.03Z" fill="#CFC7FF"/>
<path fill-rule="evenodd" clip-rule="evenodd" d="M133.54 119.81L122.19 108.28H70.3301C70.3301 108.28 62.1701 108.33 58.5701 116.17C54.9701 124.01 56.3401 133.33 56.3401 133.33H43.9399V260.71H179.78V173.16L133.54 119.81Z" fill="#CFC7FF"/>
<path fill-rule="evenodd" clip-rule="evenodd" d="M78.1101 79.5301C64.8101 78.6901 63.8699 84.4 68.6499 97.16C70.9899 103.42 77.29 103.6 77.29 103.6H99.1298C108.01 103.6 110.39 102.92 111.82 101.65C113.26 100.38 110.99 91.4201 108.6 85.9701C105.92 79.8501 101.31 79.5301 99.9599 79.5301H78.1101Z" fill="#CFC7FF"/>
<path d="M77.4377 88.3109L72.9453 89.9141L81.9259 115.079L86.4183 113.476L77.4377 88.3109Z" fill="#CFC7FF"/>
<path fill-rule="evenodd" clip-rule="evenodd" d="M43.9399 260.71L67.6699 190.24C55.5099 179.73 22.0201 180.43 15.5901 165.46C6.10009 180.18 0.590088 197.71 0.590088 216.54C0.590088 232.5 4.56005 247.54 11.55 260.72H43.9399V260.71Z" fill="#CFC7FF"/>
<path fill-rule="evenodd" clip-rule="evenodd" d="M15.5901 165.46C22.0201 180.43 50.7699 213.97 62.9199 224.48L68.3501 160.51L43.9399 133.33H7.41992C8.46992 144.64 11.2801 155.45 15.5901 165.46Z" fill="#CFC7FF"/>
<path d="M192.83 191.84H108.43V207.31H192.83V191.84Z" fill="#CFC7FF"/>
<path fill-rule="evenodd" clip-rule="evenodd" d="M60.77 141.4L80.5801 191.08H122.28V192.61H81.1899H80.0701H21.0801V191.08H78.9399L59.3601 141.96L60.77 141.4Z" fill="white"/>
<path fill-rule="evenodd" clip-rule="evenodd" d="M224 228.33V247.6L210.59 251.09L204.26 227.48L224 228.33Z" fill="#FFABCC"/>
<path fill-rule="evenodd" clip-rule="evenodd" d="M249.59 198.21L256.17 197.29L261.38 206.32L252.71 215.18L240.65 203.12L249.59 198.21Z" fill="#FFABCC"/>
<path fill-rule="evenodd" clip-rule="evenodd" d="M132.99 129.67C132.99 129.67 153.12 122 157.74 123.36C162.36 124.73 178.18 140.68 181.71 147.61C185.24 154.53 185.1 159.47 185.1 159.47L133.83 177.69C133.83 177.69 120.84 153.12 121.12 147.33C121.4 141.53 132.99 129.67 132.99 129.67Z" fill="#2678FA"/>
<path fill-rule="evenodd" clip-rule="evenodd" d="M178.97 132.97L180.45 134.44L183.45 141.48L184.44 149.11L177.6 154.14L167.49 132.87L178.97 132.97Z" fill="#ED87AB"/>
<path fill-rule="evenodd" clip-rule="evenodd" d="M187.03 158.88L175.01 154.73L192.5 122.11C192.5 122.11 193.38 120.57 195.46 120.21C197.54 119.84 217.46 116.33 217.46 116.33C217.46 116.33 218.56 116.13 218.9 116.86C219.24 117.59 219.41 117.96 219.41 117.96C219.41 117.96 220 118.9 219.17 120.32C218.35 121.74 210.83 134.77 210.83 134.77L208.61 149.16L187.03 158.88Z" fill="#E3E0FF"/>
<path fill-rule="evenodd" clip-rule="evenodd" d="M191.26 124.42L192.49 122.11C192.49 122.11 193.37 120.57 195.45 120.21L197.06 119.92L201.65 124.51L196.49 129.67L191.26 124.42Z" fill="white"/>
<path fill-rule="evenodd" clip-rule="evenodd" d="M187.03 158.88L178.03 155.77L194.83 124.43C194.83 124.43 195.71 122.89 197.78 122.53L219.61 118.68C219.64 119.09 219.56 119.65 219.17 120.31C218.35 121.73 210.83 134.76 210.83 134.76L208.61 149.15L187.03 158.88Z" fill="#CFC7FF"/>
<path fill-rule="evenodd" clip-rule="evenodd" d="M120.82 102.52L120.57 99.8L123.84 97.9099C123.84 97.9099 134.92 104.75 136.65 104.5C138.38 104.25 139.95 103.86 139.95 103.86L142.84 104.26C142.84 104.26 145.07 107.97 143.33 110.2C141.6 112.43 139.13 112.67 135.91 112.18C132.69 111.67 127.5 108.71 120.82 102.52Z" fill="#ED87AB"/>
<path fill-rule="evenodd" clip-rule="evenodd" d="M213.12 145.82C213.12 145.82 205.45 147.8 203.47 148.54C201.49 149.28 200.75 149.28 200.75 149.28C200.75 149.28 203.97 141.36 204.71 140.87C205.45 140.38 208.18 139.39 208.18 139.39L210.85 134.76C210.85 134.76 213.62 135.92 214.36 137.91C215.09 139.88 213.12 145.82 213.12 145.82Z" fill="#FFABCC"/>
<path fill-rule="evenodd" clip-rule="evenodd" d="M176 180.46L154.72 197.78C154.72 197.78 192.83 191.35 193.82 191.84C194.48 192.17 200.03 214.26 203.62 228.82C205.39 235.99 206.69 241.33 206.69 241.33C212.11 244.3 219.09 243.16 224.01 241.33V171.55C224.01 171.55 208.18 162.15 203.23 164.13C198.27 166.11 176 180.46 176 180.46Z" fill="#4D128F"/>
<path fill-rule="evenodd" clip-rule="evenodd" d="M149.64 75.72C149.64 75.72 154.85 75.6002 158.48 71.1202C162.12 66.6402 161.03 62.4 157.52 59.49C154 56.58 148.07 58.8801 144.68 58.5201C141.29 58.1501 131.36 54.04 124.58 59.97C117.21 66.42 116.85 86.1401 124.16 94.0301C131.47 101.94 149.64 75.72 149.64 75.72Z" fill="#5712A6"/>
<path fill-rule="evenodd" clip-rule="evenodd" d="M132.39 86.9299L123.12 81.8101L125.48 84.8601L121.2 100.78L138.16 110.57L144.88 85.49L132.39 86.9299Z" fill="#ED87AB"/>
<path fill-rule="evenodd" clip-rule="evenodd" d="M127.73 78.05C121.57 67.41 116.97 86.85 126 87.22C126 87.22 126.11 94.1799 127.39 95.6899C128.67 97.1999 135.04 101.84 139.69 102.66C144.33 103.47 146.89 101.27 148.51 95C148.58 94.71 148.65 94.4001 148.73 94.0601H148.74C149.15 92.2501 149.6 89.7999 150.02 87.1599V87.1499C150.36 85.1599 152.33 81.67 152.57 80.49C152.73 79.68 152.56 75.4201 152.44 72.8101C150.96 72.8201 149.31 72.6901 147.5 72.3601C139.84 70.9501 136.04 68.8601 136.04 68.8601C136.04 68.8601 134.59 73.0699 133.77 74.6899C132.96 76.3099 131.69 78.17 131.45 80.03C131.22 81.88 130.76 84.0901 130.76 84.0901L127.51 81.77L127.73 78.05Z" fill="#FFABCC"/>
<path fill-rule="evenodd" clip-rule="evenodd" d="M144.86 96.8799C144.85 96.8799 139.95 98.14 137.72 92.47L139.14 91.9099C140.87 96.3299 144.5 95.3999 144.51 95.3899L144.86 96.8799Z" fill="#ED87AB"/>
<path fill-rule="evenodd" clip-rule="evenodd" d="M112.65 152.75H104.24L92.3602 131.96C90.1502 128.09 90.3802 121.57 96.3202 114.64C102.26 107.71 120.57 99.79 120.57 99.79C120.57 99.79 125.03 106.22 131.96 107.71C138.89 109.2 142.84 104.25 142.84 104.25C142.84 104.25 159.66 106.72 167.09 113.16C174.51 119.59 180.45 134.44 180.45 134.44L146.31 142.36L128 157.7L112.65 152.75Z" fill="#2678FA"/>
<path fill-rule="evenodd" clip-rule="evenodd" d="M117.44 119.3C117.45 119.34 122.47 131.2 124.39 137.18L122.94 137.64C121.04 131.72 116.05 119.92 116.04 119.89L117.44 119.3Z" fill="white"/>
<path fill-rule="evenodd" clip-rule="evenodd" d="M130.96 168.59C130.96 168.59 210.14 143.85 212.62 143.85C215.09 143.85 223.01 144.35 229.44 153.25C232.37 157.3 238.17 166.8 243.62 175.94C250.15 186.87 256.17 197.29 256.17 197.29C254.42 202.92 251.76 205.87 243.3 208.67L208.16 175.51C208.16 175.51 192.54 183.91 177.93 191.41C167.47 196.78 157.52 201.7 154.22 202.73C146.3 205.2 139.37 204.71 132.45 196.3C125.52 187.89 120.57 169.08 120.57 169.08L130.96 168.59Z" fill="#5712A6"/>
<path fill-rule="evenodd" clip-rule="evenodd" d="M166.99 140.63H174.17L176.47 121.58H178.63V119.6H176.29L175.41 117.12C169.8 117.12 164.19 117.12 158.59 117.12L157.71 119.6H155.37V121.58H157.52L159.82 140.63H166.99Z" fill="white"/>
<path fill-rule="evenodd" clip-rule="evenodd" d="M167.81 135.56C170.79 135.56 173.22 132.84 173.22 129.5C173.22 126.16 170.79 123.44 167.81 123.44C164.83 123.44 162.4 126.16 162.4 129.5C162.39 132.84 164.82 135.56 167.81 135.56Z" fill="#78E3CC"/>
<path fill-rule="evenodd" clip-rule="evenodd" d="M157.09 145.82C155.73 146.43 130.47 177 125.52 177.99C120.57 178.98 118.1 176.51 116.61 174.53C115.13 172.55 104.24 152.76 104.24 152.76C104.24 152.76 107.7 147.31 112.16 144.35C116.61 141.38 124.04 139.4 124.04 139.4L128.25 148.06L147.8 136.43C147.8 136.43 149.87 132.1 152.49 129.7C155.11 127.3 158.25 127.47 158.25 127.47L158.56 130.09C158.56 130.09 166.61 130.49 170.07 130C173.54 129.5 175.69 128.12 175.69 128.12C177.12 129.63 177.37 131.08 176.96 132.5C176.6 133.82 176.46 133.49 176.01 135.93C174.56 143.8 169.93 143.1 161.95 144.99C159.78 145.5 158.43 145.22 157.09 145.82Z" fill="#FFABCC"/>
<path fill-rule="evenodd" clip-rule="evenodd" d="M222.62 190.2L208.04 176.44L180.36 191.02L179.64 189.68L207.81 174.84L208.29 174.59L208.69 174.96L223.66 189.09L222.62 190.2Z" fill="#2678FA"/>
<path fill-rule="evenodd" clip-rule="evenodd" d="M128.44 148.31L120.82 152.84L120.05 151.53L127.67 147L128.44 148.31Z" fill="#ED87AB"/>
<path fill-rule="evenodd" clip-rule="evenodd" d="M154.9 130C154.91 130 155.87 129.61 158.42 129.25L158.55 130.2C156.12 130.53 155.27 130.88 155.27 130.88L154.9 130Z" fill="#ED87AB"/>
<path d="M176.05 121.46H160.02V122.22H176.05V121.46Z" fill="#E3E3FA"/>
<path fill-rule="evenodd" clip-rule="evenodd" d="M204.65 129.97C206.13 129.97 206.64 131.17 205.78 132.65C204.92 134.13 203.03 135.34 201.54 135.34C200.05 135.34 199.55 134.14 200.41 132.65C201.27 131.18 203.17 129.97 204.65 129.97Z" fill="#E3E3FA"/>
<path fill-rule="evenodd" clip-rule="evenodd" d="M209.54 137L208.16 139.39L210.24 138.61L212.49 137.77L210.38 137.67C210.39 137.67 210.07 137.39 209.54 137Z" fill="#ED87AB"/>
<path fill-rule="evenodd" clip-rule="evenodd" d="M188.6 129.39L182.85 140.09L181.71 142.24L183.82 144.36L184.03 144.57L190.93 131.71L188.6 129.39Z" fill="white"/>
<path fill-rule="evenodd" clip-rule="evenodd" d="M208.69 247.6V260.71H245.88C245.88 260.71 246.84 255.34 244.08 254.32C238.09 252.11 225.68 247.53 225.68 247.53V244.81C225.68 244.81 225.52 243.8 224.77 243.8C224.01 243.8 221.61 243.8 221.61 243.8C221.61 243.8 220.51 243.78 220.51 244.68C220.51 245.58 220.51 247.6 220.51 247.6C217.22 249.57 213.1 249.02 208.69 247.6Z" fill="#4D128F"/>
<path fill-rule="evenodd" clip-rule="evenodd" d="M249.77 212.24L256.15 223.97L288.36 205.38C288.36 205.38 286.51 200.24 283.6 200.74C277.31 201.82 264.27 204.06 264.27 204.06L262.92 201.71C262.92 201.71 262.28 200.92 261.62 201.3C260.96 201.68 258.88 202.88 258.88 202.88C258.88 202.88 257.92 203.41 258.37 204.19C258.82 204.97 259.82 206.72 259.82 206.72C257.54 209.44 254.81 211.39 249.77 212.24Z" fill="#4D128F"/>
<path d="M192.37 191.84H125.43V210.93H192.37V191.84Z" fill="#CFC7FF"/>
</svg>
