<svg width="351" height="337" viewBox="0 0 351 337" fill="none" xmlns="http://www.w3.org/2000/svg">
<path fill-rule="evenodd" clip-rule="evenodd" d="M235.69 230.8C299.1 230.8 350.82 179.09 350.82 115.67C350.82 52.2599 299.11 0.540039 235.69 0.540039C172.28 0.540039 120.56 52.2599 120.56 115.67C120.57 179.09 172.28 230.8 235.69 230.8Z" fill="#E3E0FF"/>
<path fill-rule="evenodd" clip-rule="evenodd" d="M114.11 321.82C175.55 321.82 225.66 271.71 225.66 210.27C225.66 148.83 175.55 98.72 114.11 98.72C52.67 98.72 2.56006 148.83 2.56006 210.27C2.56006 271.71 52.67 321.82 114.11 321.82Z" fill="#E3E0FF"/>
<path fill-rule="evenodd" clip-rule="evenodd" d="M265.61 336.67C312.54 336.67 350.82 298.39 350.82 251.46C350.82 204.53 312.53 166.25 265.61 166.25C218.67 166.25 180.4 204.53 180.4 251.46C180.39 298.38 218.67 336.67 265.61 336.67Z" fill="#E3E0FF"/>
<path fill-rule="evenodd" clip-rule="evenodd" d="M183.12 318.14C185.36 318.14 187.19 316.31 187.19 314.07C187.19 311.83 185.36 310 183.12 310C180.87 310 179.05 311.83 179.05 314.07C179.05 316.31 180.88 318.14 183.12 318.14Z" fill="#E3E0FF"/>
<path fill-rule="evenodd" clip-rule="evenodd" d="M52.61 319.3V313.75V308.2L47.8 310.98L43 313.75L47.8 316.53L52.61 319.3Z" fill="#E3E0FF"/>
<path fill-rule="evenodd" clip-rule="evenodd" d="M211.07 52.6599V47.1101V41.5701L206.27 44.3401L201.47 47.1101L206.27 49.8899L211.07 52.6599Z" fill="white"/>
<path fill-rule="evenodd" clip-rule="evenodd" d="M25.01 90.6499C27.25 90.6499 29.0699 88.8201 29.0699 86.5801C29.0699 84.3401 27.24 82.51 25.01 82.51C22.76 82.51 20.9399 84.3401 20.9399 86.5801C20.9399 88.8201 22.77 90.6499 25.01 90.6499Z" fill="#E3E0FF"/>
<path fill-rule="evenodd" clip-rule="evenodd" d="M84.2 63.8501V58.3V52.76L79.39 55.53L74.59 58.3L79.39 61.0801L84.2 63.8501Z" fill="#E3E0FF"/>
<path fill-rule="evenodd" clip-rule="evenodd" d="M228.61 144.61V139.06V133.51L223.81 136.29L219.01 139.06L223.81 141.83L228.61 144.61Z" fill="white"/>
<path fill-rule="evenodd" clip-rule="evenodd" d="M237.58 196.98C237.58 196.98 233.42 185.66 226.92 184.01C220.41 182.36 218.42 186.02 213.81 181.7C209.2 177.38 208.63 174.35 202.28 175.07C195.94 175.79 194.65 174.06 191.91 167.44C189.17 160.81 181.68 152.89 173.47 154.33C165.26 155.77 162.24 152.89 160.36 149.43C158.49 145.97 153.13 136.29 145.1 136.87C137.07 137.45 134.28 140.07 131.4 146.54C125.21 160.48 114.02 141.52 103.31 172.18C92.6001 202.85 64.78 167.5 64.78 167.5L48.3199 207.03H239.3L237.58 196.98Z" fill="#CFC7FF"/>
<path fill-rule="evenodd" clip-rule="evenodd" d="M183.89 138.72V95.3301H207.48V140.45H186.89L183.89 138.72ZM136.04 120.72H116.11V107.24H136.04V120.72ZM141.71 120.72V66.3101H176.69V134.57L152.71 120.73H141.71V120.72Z" fill="#CFC7FF"/>
<path fill-rule="evenodd" clip-rule="evenodd" d="M12.99 209.35C11.71 209.35 10.6899 208.32 10.6899 207.05C10.6899 205.77 11.72 204.74 12.99 204.74H245.25C246.53 204.74 247.55 205.77 247.55 207.05C247.55 208.32 246.52 209.35 245.25 209.35H12.99Z" fill="#CFC7FF"/>
<path fill-rule="evenodd" clip-rule="evenodd" d="M91.48 135.9L90.6 130.7H124.5C124.5 130.7 139.08 131.17 151.15 135.32C163.22 139.47 190.83 155.21 190.83 155.21C190.83 155.21 201.48 157.36 212.29 161.51C223.1 165.66 225.36 168.45 225.36 168.45L212 183.95C212 183.95 133.6 175.07 125.69 167.92C117.76 160.79 91.48 135.9 91.48 135.9Z" fill="#993DFF"/>
<path fill-rule="evenodd" clip-rule="evenodd" d="M136.66 155.89L189.86 157.15C189.86 157.15 168.54 144.13 153.37 138.61C138.2 133.09 104.9 134.36 104.9 134.36L136.66 155.89Z" fill="#5712A6"/>
<path fill-rule="evenodd" clip-rule="evenodd" d="M194.67 204.84L188.66 202.32H31.65L98.09 152.45C98.09 152.45 157.44 157.42 164.88 168.24C172.3 179.06 194.67 204.84 194.67 204.84Z" fill="#5712A6"/>
<path fill-rule="evenodd" clip-rule="evenodd" d="M83 173.93C82.73 173.91 82.45 173.9 82.17 173.9C74.62 173.9 68.47 181.91 68.47 191.74C68.47 201.57 74.63 209.58 82.17 209.58H89.26C96.83 209.58 102.96 201.59 102.96 191.74C102.96 182.26 97.28 174.51 90.11 173.94H90.1C89.82 173.92 89.54 173.91 89.27 173.91C88.99 173.91 88.7101 173.92 88.4301 173.94H83V173.93Z" fill="#5712A6"/>
<path fill-rule="evenodd" clip-rule="evenodd" d="M196.2 173.93C195.92 173.91 195.64 173.9 195.37 173.9C187.82 173.9 181.67 181.91 181.67 191.74C181.67 201.57 187.83 209.58 195.37 209.58H202.45C210.02 209.58 216.15 201.59 216.15 191.74C216.15 182.26 210.47 174.51 203.3 173.94H203.29C203.01 173.92 202.73 173.91 202.46 173.91C202.18 173.91 201.9 173.92 201.63 173.94H196.2V173.93Z" fill="#5712A6"/>
<path fill-rule="evenodd" clip-rule="evenodd" d="M10.16 183.54V199.54H48.51V169.35H16.76L10.16 183.54Z" fill="#5712A6"/>
<path fill-rule="evenodd" clip-rule="evenodd" d="M149.85 173.9C150.13 173.9 150.41 173.91 150.68 173.93H150.7C157.87 174.5 163.54 182.25 163.54 191.73C163.54 201.58 157.41 209.57 149.84 209.57H142.76L139.64 203.63H139.65C137.47 200.47 136.16 196.3 136.16 191.73C136.16 187.2 137.45 183.06 139.59 179.92L142.77 173.92H149.02C149.29 173.91 149.57 173.9 149.85 173.9Z" fill="#5712A6"/>
<path fill-rule="evenodd" clip-rule="evenodd" d="M142.76 209.58C150.31 209.58 156.46 201.56 156.46 191.74C156.46 181.91 150.3 173.9 142.76 173.9C135.21 173.9 129.06 181.91 129.06 191.74C129.06 201.57 135.22 209.58 142.76 209.58Z" fill="#7D21E8"/>
<path fill-rule="evenodd" clip-rule="evenodd" d="M142.02 204.29C147.33 204.29 151.65 198.65 151.65 191.74C151.65 184.83 147.33 179.19 142.02 179.19C136.71 179.19 132.38 184.83 132.38 191.74C132.39 198.65 136.72 204.29 142.02 204.29Z" fill="#E3E0FF"/>
<path fill-rule="evenodd" clip-rule="evenodd" d="M35.73 173.9C36.01 173.9 36.2901 173.91 36.5601 173.93H36.5699C43.7399 174.5 49.42 182.25 49.42 191.73C49.42 201.58 43.29 209.57 35.72 209.57H28.64L25.52 203.63C23.35 200.47 22.03 196.3 22.03 191.73C22.03 187.2 23.33 183.06 25.46 179.92L28.65 173.92H34.9C35.18 173.91 35.45 173.9 35.73 173.9Z" fill="#5712A6"/>
<path fill-rule="evenodd" clip-rule="evenodd" d="M28.65 209.58C36.2 209.58 42.34 201.56 42.34 191.74C42.34 181.91 36.19 173.9 28.65 173.9C21.11 173.9 14.95 181.91 14.95 191.74C14.95 201.57 21.1 209.58 28.65 209.58Z" fill="#7D21E8"/>
<path fill-rule="evenodd" clip-rule="evenodd" d="M27.9 204.29C33.21 204.29 37.54 198.65 37.54 191.74C37.54 184.83 33.21 179.19 27.9 179.19C22.59 179.19 18.27 184.83 18.27 191.74C18.27 198.65 22.59 204.29 27.9 204.29Z" fill="#E3E0FF"/>
<path fill-rule="evenodd" clip-rule="evenodd" d="M48.0601 199.54H126.99C120.91 178.78 139.85 160.91 153.13 174.42C159.11 180.51 161.12 190.75 158.54 199.54H200.83C203.4 198.2 205.79 196.83 206.19 196.66C207.42 196.13 206.99 192.07 206.99 190.36C206.99 187.7 205.71 185.84 203.51 183.64C198.57 178.69 207.71 174.5 194.25 167.77C186.14 163.72 157.76 157.69 145.47 154.45C133.19 151.21 114.66 129.77 84.76 130.58C54.87 131.39 37.15 141.71 26.72 146.68C16.29 151.66 8.18005 152.18 6.79005 152.88C5.41005 153.57 6.68006 156.76 4.42006 159.54C2.16006 162.32 2.32997 164.52 2.32997 164.52V180.86C2.32997 185.72 -0.74002 188.62 0.58998 193.43C1.91998 198.24 8.15004 199.54 8.15004 199.54H12.86C6.88 178.16 25.95 161.14 39.01 174.42C44.99 180.51 46.9901 190.75 44.4201 199.54H48.0601Z" fill="#B06BFF"/>
<path fill-rule="evenodd" clip-rule="evenodd" d="M194.22 168.76L153.04 161.81C153.04 161.81 160.57 167.95 169.43 169.4C178.3 170.85 197.18 172.36 197.18 172.36L194.22 168.76Z" fill="white"/>
<path fill-rule="evenodd" clip-rule="evenodd" d="M191.5 199.54L202.06 193.44C202.06 193.44 203.84 192.22 202.92 190.07C201.99 187.93 190.81 176.92 189.48 176.69C188.15 176.46 178.35 176.52 178.35 176.52C178.35 176.52 184.14 188.16 183.86 189.32C183.57 190.48 181.31 192.8 179.57 193.96C177.83 195.12 168.85 194.77 168.85 194.77L176.27 175.77C176.27 175.77 176.63 173.29 180.98 173.29C185.32 173.29 200.31 173.86 200.31 173.86L195.84 168.61C191.76 163.82 223.91 163.09 225.92 169.4L227.34 173.86C227.34 173.86 229.66 176.23 229.66 178.38C229.66 180.52 229.4 191.12 229.75 192.11C230.1 193.09 231.43 195.18 231.08 196.34C230.85 197.11 228.04 198.62 225.65 199.55H191.5V199.54Z" fill="#993DFF"/>
<path fill-rule="evenodd" clip-rule="evenodd" d="M229.6 181.77L229.73 192.1C230.09 193.12 231.24 194.88 231.11 196.11H197.43C204.53 192.01 206.41 192.48 195.61 181.94C190.91 177.35 190.37 176.67 188.13 176.59C188.07 176.59 195.28 176.51 188.23 176.51C198.44 176.51 196.61 175.65 203.67 182.96C209.92 189.45 208.29 189 218.62 189C223.71 189 224.58 186.97 228.45 182.96L229.6 181.77Z" fill="#5712A6"/>
<path fill-rule="evenodd" clip-rule="evenodd" d="M37.47 160.32H44.21C44.8 160.32 45.28 160.8 45.28 161.39V161.4C45.28 161.99 44.8 162.47 44.21 162.47H37.47C36.88 162.47 36.4 161.99 36.4 161.4V161.39C36.4 160.8 36.87 160.32 37.47 160.32Z" fill="#5712A6"/>
<path fill-rule="evenodd" clip-rule="evenodd" d="M76.5699 160.32H83.3C83.89 160.32 84.38 160.8 84.38 161.39V161.4C84.38 161.99 83.9 162.47 83.3 162.47H76.5699C75.9799 162.47 75.49 161.99 75.49 161.4V161.39C75.49 160.8 75.9799 160.32 76.5699 160.32Z" fill="#5712A6"/>
<path fill-rule="evenodd" clip-rule="evenodd" d="M81.29 134.69C79.02 142.42 78.81 149.6 78.64 156.16L125.5 158.3C125.5 158.3 126.81 156.66 126.95 153.18C127.1 149.71 114.3 140.56 104.31 136.75C94.3101 132.93 81.29 134.69 81.29 134.69Z" fill="#5712A6"/>
<path fill-rule="evenodd" clip-rule="evenodd" d="M116.28 151.92C116.28 151.92 113.58 148.01 110.82 147.21C108.07 146.41 103.97 146.26 102.9 146.73C97.92 148.88 100.16 155.16 105.65 155.16C109.1 155.16 114.82 155.16 114.82 155.16C115.25 156.76 114.96 156.97 116.73 156.97C119.68 156.97 121.48 157.35 121.79 156.27C121.96 155.69 119.98 152.17 119.71 152.04C119.47 151.92 116.28 151.92 116.28 151.92Z" fill="#B06BFF"/>
<path fill-rule="evenodd" clip-rule="evenodd" d="M46.5 154.69C47.35 149.88 48.8 144.68 50.64 140.14C46.96 141.38 45.82 141.63 42.22 143.17C38.63 144.7 34.48 154.14 34.48 154.14L46.5 154.69Z" fill="#5712A6"/>
<path fill-rule="evenodd" clip-rule="evenodd" d="M53.01 139.41C50.98 144.2 49.44 149.75 48.54 154.79L71.12 155.82C71.6 150.57 73.97 139.95 76.28 135.03C76.27 135.03 66.04 135.53 53.01 139.41Z" fill="#5712A6"/>
<path fill-rule="evenodd" clip-rule="evenodd" d="M5.04004 158.64C10.78 158.49 16.4599 157.11 20.9399 153.53L6.80005 152.89C5.56005 153.5 6.44004 156.11 5.04004 158.64Z" fill="#5712A6"/>
<path fill-rule="evenodd" clip-rule="evenodd" d="M182.54 185.45C181.77 183.65 180.78 181.54 179.96 179.82C179.06 177.93 178.36 176.52 178.36 176.52L177.13 174.4C176.37 175.06 176.27 175.77 176.27 175.77L176.23 175.87L177.19 179.43L179.06 186.38L179.18 186.84C179.18 186.84 180.31 189.52 177.12 191.06C173.94 192.61 168.86 194.76 168.86 194.76C168.86 194.76 177.84 195.11 179.58 193.95C180.24 193.5 180.99 192.89 181.68 192.23C182.11 191.81 182.52 191.37 182.87 190.95C183.38 190.33 183.76 189.74 183.87 189.31C183.95 188.93 183.37 187.37 182.54 185.45Z" fill="#5712A6"/>
<path fill-rule="evenodd" clip-rule="evenodd" d="M195.83 168.6L200.3 173.85H227.32L225.96 169.58C224.69 171.33 219.46 171.46 215.8 171.63C207 172.03 195.83 168.6 195.83 168.6Z" fill="#5712A6"/>
<path fill-rule="evenodd" clip-rule="evenodd" d="M216.82 176.61C218.03 176.61 219.02 178.02 219.02 179.77C219.02 181.51 218.04 182.93 216.82 182.93C215.6 182.93 214.62 181.51 214.62 179.77C214.61 178.03 215.6 176.61 216.82 176.61Z" fill="#5712A6"/>
<path fill-rule="evenodd" clip-rule="evenodd" d="M50.11 122.96L45.3101 120.18L40.5 117.41V122.96V128.5L45.3101 125.73L50.11 122.96Z" fill="#E3E3FA"/>
<path fill-rule="evenodd" clip-rule="evenodd" d="M71.75 173.29V167.75V162.2L66.95 164.97L62.14 167.75L66.95 170.52L71.75 173.29Z" fill="white"/>
<path fill-rule="evenodd" clip-rule="evenodd" d="M61.7 110.29L59.88 111.58C59.88 111.58 59.17 108.11 58.27 105.29C57.36 102.47 57.41 99.2302 57.96 98.0802C58.52 96.9202 59.63 96.8201 59.63 96.8201C59.63 96.8201 60.9401 94.34 63.9201 94.2C66.89 94.05 70.47 94.3001 72.54 93.4901C74.61 92.6801 76.68 94.8002 75.47 98.0802C74.26 101.36 69.66 100.85 69.66 100.85C69.66 100.85 68.56 108.63 61.7 110.29Z" fill="#5712A6"/>
<path fill-rule="evenodd" clip-rule="evenodd" d="M70.14 115.94L67.99 113.99L66.6801 113.4L67.84 109.87L62.83 106.39L61.62 106.44L59.5699 112.53L58.15 112.76L57.86 115.7C57.86 115.7 68.3 120.06 69.76 119.48C71.23 118.89 70.14 115.94 70.14 115.94Z" fill="#ED87AB"/>
<path fill-rule="evenodd" clip-rule="evenodd" d="M79.23 226.82L73.05 227.83L73.22 234.69L82.35 235.7L83.5 228.41L79.23 226.82Z" fill="#FFABCC"/>
<path fill-rule="evenodd" clip-rule="evenodd" d="M80.98 234.69H80.9H72.66L72.17 240.34H92.1C92.1 240.34 91.49 237.38 90.05 236.41C88.99 235.7 84.99 235.39 83.02 234.68L83.41 232.69H82.7C81.41 232.68 81.06 234.32 80.98 234.69Z" fill="#5712A6"/>
<path fill-rule="evenodd" clip-rule="evenodd" d="M51.54 226.82L45.27 227.83L44.9399 234.69H54.26L56.24 226.01L51.54 226.82Z" fill="#FFABCC"/>
<path fill-rule="evenodd" clip-rule="evenodd" d="M42.9399 159.5C42.9399 159.5 46.0901 188.41 45.9301 192.56C45.7701 196.71 44.32 207.4 44.3 216.44C44.29 221.07 44.23 226.7 44.16 231.08H55.9301C58.7501 218.31 64 194.23 64.2 191.38C64.46 187.48 65.33 178.35 65.33 178.35C65.33 178.35 67.66 188.81 68.12 190.74C68.58 192.67 68.05 198.54 68.62 201C69.13 203.16 71.46 221.32 72.59 231.08H83.79C84.06 218.09 85.31 190.47 85.01 189.35C84.68 188.14 79.1899 159.33 79.1899 159.33L42.9399 159.5Z" fill="#5712A6"/>
<path fill-rule="evenodd" clip-rule="evenodd" d="M52.84 234.13L52.7 234.69H44.38L43.47 240.34H63.4C63.4 240.34 63.01 237.38 61.64 236.41C60.63 235.7 56.65 235.39 54.74 234.68L55.29 232.62H54.4301C53.4801 232.62 53.03 233.51 52.84 234.13Z" fill="#5712A6"/>
<path fill-rule="evenodd" clip-rule="evenodd" d="M62.8299 103.15C62.8299 103.15 62.33 101.79 61.37 101.84C60.41 101.89 59.61 103.55 60.02 105.17C60.42 106.79 61.37 107.29 61.78 107.29C62.19 107.29 62.49 107.14 62.49 107.14C62.49 107.14 62.69 109.66 63.85 110.92C65.01 112.18 68.19 113.29 69.55 112.89C70.91 112.49 71.12 109.11 71.37 106.84C71.62 104.57 71.27 98.9199 71.27 98.9199L67.99 99.0701C67.99 99.0701 67.63 100.88 66.93 101.44C66.22 102 65.62 102.05 65.27 102.9C64.91 103.76 64.61 106.33 64.61 106.33L63.1 105.22L62.8299 103.15Z" fill="#FFABCC"/>
<path fill-rule="evenodd" clip-rule="evenodd" d="M108.39 87.0399C108.47 88.2499 108.66 89.7698 108.33 90.9198C108.32 90.9298 108.32 90.9499 108.32 90.9599L107.46 93.5199V93.5299C107.24 94.0199 100.97 107.91 99.23 110.29C97.47 112.72 86.4399 114.93 86.4399 114.93C86.4399 114.93 88.64 118.9 88.86 122.21C89.08 125.52 88.64 127.29 88.64 127.29C88.64 127.29 101.66 121.55 104.75 118.9C107.84 116.25 114.5 96.56 114.5 96.56C116.69 95.67 117.46 93.36 117.87 92.06C118.29 90.76 119.1 89.4398 119.1 89.4398C119.19 89.3198 119.29 89.19 119.39 89.06C120.02 88.19 120.6 87.5399 121 87.0299C121.32 86.6199 121.52 86.2899 121.55 85.9999C121.6 85.3399 120.86 85.7298 120.34 86.1598C120.15 86.3098 119.83 86.6499 119.45 87.0299C118.75 87.7499 117.89 88.6199 117.55 88.7299C117.55 88.7299 117.47 88.6699 117.47 88.5399C117.47 88.4799 117.85 87.8399 118.31 87.0299C118.92 85.9699 119.68 84.6499 119.92 84.0299C120.34 82.9399 119.86 82.6599 119.39 82.9899C118.95 83.2899 117.01 86.3299 116.52 87.0299C116.48 87.0799 116.45 87.1198 116.43 87.1498C116.18 87.4498 115.75 87.4699 115.82 87.0299C115.83 86.9999 115.83 86.9698 115.84 86.9298C116 86.3798 117.74 82.0099 117.74 81.2499C117.74 80.4899 117.53 80.0498 116.95 80.4298C116.37 80.8098 114.31 85.7398 114.05 86.1298C113.79 86.5098 113.26 86.7299 113.3 86.2899C113.34 85.8499 114.48 81.3098 114.53 80.9298C114.59 80.5498 114.27 79.9999 113.74 80.4899C113.21 80.9799 112.21 84.1999 111.64 85.7299C111.43 86.2799 111.21 86.7199 111.01 87.0399C110.66 87.5999 110.36 87.7799 110.26 87.5399C110.21 87.4199 110.13 87.2399 110.04 87.0399C109.84 86.5899 109.56 86 109.42 85.62C109.21 85.08 108.63 84.5899 108.41 85.7299C108.35 86.0699 108.36 86.5299 108.39 87.0399Z" fill="#FFABCC"/>
<path fill-rule="evenodd" clip-rule="evenodd" d="M111.76 93.3899C111.76 93.3799 112.67 90.1199 110.49 88.1599L110.97 87.6101C113.5 89.8701 112.46 93.5701 112.46 93.5801L111.76 93.3899Z" fill="#ED87AB"/>
<path fill-rule="evenodd" clip-rule="evenodd" d="M68 113.98C68.28 114.03 76.94 115.55 78.35 115.83C79.78 116.11 88.95 113.6 88.95 113.6C88.95 113.6 91.37 115.54 92.23 120.69C93.09 125.84 92.37 127.7 92.37 127.7C92.37 127.7 80.22 132.71 79.65 133.13C79.1 133.54 76.83 142.27 77.63 149.01L77.77 149.91L77.78 150.01L77.8199 150.31C78.8999 157.42 80.6 164.5 80.6 164.5C80.6 164.5 71.11 169.97 60.21 170.07C49.31 170.17 43.41 167.09 43.41 167.09C43.41 167.09 41.76 155.92 41.35 143.54C41.32 142.63 41.3099 141.75 41.3199 140.89L40.73 141.01L35.5 134.48C35.5 134.48 39.58 118.78 42.41 116.75C45.24 114.72 58.16 112.75 58.16 112.75C58.16 112.75 58.45 115.37 62.78 116.27C67.09 117.18 68 113.98 68 113.98Z" fill="#5712A6"/>
<path fill-rule="evenodd" clip-rule="evenodd" d="M33.5401 144.76L35.49 134.49L48.07 137.78L44.85 148.82C44.46 149.5 46.63 168.53 46.63 168.53C46.63 168.53 47.7601 169.12 49.4101 170.78C51.0701 172.43 53.49 175.66 53.49 175.66C53.49 175.66 47.88 177.62 44.99 174.72C42.09 171.83 41.26 168.59 41.26 168.59C41.26 168.59 31.6501 151.26 33.5401 144.76Z" fill="#FFABCC"/>
<path fill-rule="evenodd" clip-rule="evenodd" d="M69.36 102.2L67.98 99.0701C67.98 99.0701 70.55 98.6801 72.2 98.8201C73.85 98.9601 74.0601 99.0301 74.0601 99.0301C74.0601 99.0301 74.3501 103.82 74.0601 106.54C73.7701 109.26 72.32 112.6 69.54 112.89C66.76 113.18 64.37 111.38 64.37 111.38L69.36 102.2Z" fill="#FFABCC"/>
<path fill-rule="evenodd" clip-rule="evenodd" d="M73.2 107.97C73.2 107.97 72.7301 107.11 72.0601 106.83C70.2701 106.09 68.14 107.08 67.33 108.82C66.83 109.89 63.9901 109.29 64.6701 105.78C65.3501 102.27 65.62 100.97 65.62 100.97L63.19 102.11C63.19 102.11 62.68 106.1 62.72 108.54C62.76 110.98 64.6901 112.2 66.0401 112.84C67.4001 113.48 69.34 113.56 70.69 113.2C72.78 112.65 74.3201 109.46 73.9201 107.43L73.2 107.97Z" fill="#5712A6"/>
<path fill-rule="evenodd" clip-rule="evenodd" d="M68.03 109.69L67.79 108.05L66.78 108.93L64.21 105.76C64.21 105.76 62.99 107.11 63.99 108.67C65 110.23 68.03 109.69 68.03 109.69Z" fill="#5712A6"/>
<path fill-rule="evenodd" clip-rule="evenodd" d="M74.74 97.35L74.1 99.87C74.1 99.87 76.25 99.25 76.85 95.82C77.76 90.61 70.68 90.0298 69.78 93.1798C68.18 91.1098 63.49 91.38 62.96 93.85C61.01 93.36 59.44 94.87 59.64 96.83C59.82 98.78 74.74 97.35 74.74 97.35Z" fill="#5712A6"/>
<path d="M51.662 127.634L48.9041 137.09L49.6048 137.295L52.3628 127.839L51.662 127.634Z" fill="#3D94FF"/>
<path fill-rule="evenodd" clip-rule="evenodd" d="M78.22 122.48C78.43 123.59 78.64 124.98 78.78 126.46C78.92 127.95 78.97 129.52 78.85 130.99L78.11 130.93C78.23 129.49 78.17 127.97 78.05 126.53C77.92 125.07 77.71 123.71 77.51 122.61L78.22 122.48Z" fill="#3D94FF"/>
<path fill-rule="evenodd" clip-rule="evenodd" d="M293.88 101.08V95.53V89.98L289.08 92.76L284.28 95.53L289.08 98.3L293.88 101.08Z" fill="#E3E3FA"/>
<path fill-rule="evenodd" clip-rule="evenodd" d="M315.83 188.35C313.35 188.35 311.34 186.34 311.34 183.85C311.34 181.36 313.35 179.35 315.83 179.35C318.31 179.35 320.33 181.36 320.33 183.85C320.33 186.34 318.31 188.35 315.83 188.35ZM309.02 180.48C307.79 180.48 306.79 179.48 306.79 178.25C306.79 177.02 307.8 176.02 309.02 176.02C310.25 176.02 311.25 177.02 311.25 178.25C311.25 179.49 310.25 180.48 309.02 180.48Z" fill="white"/>
<path fill-rule="evenodd" clip-rule="evenodd" d="M280.78 176.95V171.4V165.86L275.98 168.63L271.18 171.4L275.98 174.18L280.78 176.95Z" fill="white"/>
<path fill-rule="evenodd" clip-rule="evenodd" d="M253.4 161.53L292.9 137.42C333.9 146.76 334.87 187.9 335.26 231.05C335.45 251.18 337.84 286.18 337.84 289.88C337.84 293.57 303.91 307.58 269.99 306.11C251.35 305.3 237.72 298.74 230.26 291.91C227.33 289.23 229.58 242.7 229.33 233.64C228.8 213.53 253.4 161.53 253.4 161.53Z" fill="#2678FA"/>
<path fill-rule="evenodd" clip-rule="evenodd" d="M216.57 203.41C216.57 203.41 205.27 219.13 202.49 218.26C201.27 217.88 198.85 213.86 195.69 208.09C192.18 202.23 172.87 168.18 172.72 163.81C172.52 158.5 176.14 151.71 176.38 148.09C176.61 144.47 174.49 145.51 173.43 147C172.38 148.49 170.92 150.17 170.16 151.21C169.39 152.24 167.98 149.79 167.39 144.73C166.8 139.67 165.49 130.11 164.28 128.23C163.06 126.35 161.69 127.76 161.56 128.95C161.43 130.15 161.42 144.71 161.22 146.07C161.01 147.43 159.59 146.37 159.08 145.02C158.57 143.67 156.08 127.23 154.61 125.64C153.15 124.04 152.18 125.2 151.6 127.51C151.02 129.82 152.96 144.34 153.03 146.11C153.09 147.88 151.65 147.52 151.11 146.33C150.56 145.14 146.53 132.9 145.35 131.55C144.17 130.2 142.53 130.67 142.97 134.28C143.42 137.9 147.06 149.33 146.96 149.74C146.85 150.15 146.57 150.26 146.57 150.26C145.1 149.36 141.34 142.11 140.07 140.39C138.81 138.67 136.87 136.96 136.53 138.98C136.19 141 138.44 144.19 140.75 149.85C140.94 150.33 141.14 150.78 141.33 151.22C141.33 151.22 142.78 155.8 143.04 160.05C143.3 164.3 147.68 171.72 153.62 176.06C162.51 205.97 169.99 249.25 184.59 264.7C199.82 280.82 221.18 270.5 238.17 250.65C255.16 230.79 258.42 217.71 258.42 217.71L216.57 203.41Z" fill="#FFABCC"/>
<path fill-rule="evenodd" clip-rule="evenodd" d="M178.87 177.69C177.62 175.29 176.48 173.02 175.53 171.04C171.39 171.5 166.42 172.34 163.11 173.85C159.93 174.8 156.93 175.77 153.97 177.27C154.67 179.67 155.36 182.14 156.05 184.68C158.37 183.82 169.15 179.87 175.09 178.46C176.46 178.13 177.72 177.88 178.87 177.69Z" fill="#5712A6"/>
<path fill-rule="evenodd" clip-rule="evenodd" d="M292.71 130.84L299.64 139.36C292.27 141.95 265.58 159.5 262.79 152.41L253.59 129.06L264.6 111.95L292.71 130.84Z" fill="#FFABCC"/>
<path fill-rule="evenodd" clip-rule="evenodd" d="M242.87 89.1399C242.87 89.1399 235.22 87.56 232.5 81.5C229.78 75.44 232.33 63.84 242.26 63.49C252.18 63.14 253.5 66.2099 261.05 64.4599C268.6 62.6999 278.92 59.8299 286.53 64.9799C315.45 84.5799 292.71 130.84 292.71 130.84L277.74 132.44L265.76 115.49L254.72 123.83C254.72 123.83 243.3 116.98 242.87 89.1399Z" fill="#5712A6"/>
<path fill-rule="evenodd" clip-rule="evenodd" d="M269.06 135.34C269.06 135.34 256.81 145.47 251.08 139.71C245.35 133.95 243.99 123.15 243.99 123.15C243.99 123.15 241.87 123.09 240.15 121.13C238.42 119.17 242.19 112.34 240.93 107.79C239.67 103.23 240.97 89.1001 241.2 87.0001C241.44 84.9101 245.82 86.2401 245.82 86.2401C245.82 86.2401 245.21 94.93 246.61 97.66C248.01 100.38 250.82 101.35 251.52 102.23C252.23 103.11 254.77 118.92 254.77 118.92L258.29 114.53L256.71 102.67C256.71 102.67 256.62 97.66 260.4 96.69C264.18 95.73 268.66 101.35 268.39 107.24C268.13 113.12 265.76 115.49 265.76 115.49L268.09 129.46L269.06 135.34Z" fill="#FFABCC"/>
<path fill-rule="evenodd" clip-rule="evenodd" d="M296.92 137.19C296.92 137.19 282.24 136.98 268.63 141.75C255.03 146.53 234.83 159.6 226.87 172.55C218.91 185.5 201.56 216.57 201.56 216.57C201.56 216.57 207.36 228.5 220.91 237.21C234.45 245.92 248.55 245.7 248.55 245.7L296.92 137.19Z" fill="#2678FA"/>
<path fill-rule="evenodd" clip-rule="evenodd" d="M203.56 238.16C203.55 238.13 199.7 227.87 201.61 219.62L203.04 219.94C201.23 227.77 204.93 237.62 204.94 237.65L203.56 238.16Z" fill="#ED87AB"/>
<path fill-rule="evenodd" clip-rule="evenodd" d="M265.61 218.93L247.28 244.9L246.07 244.06L264.41 218.08L265.61 218.93Z" fill="white"/>
<path fill-rule="evenodd" clip-rule="evenodd" d="M298.21 143.82L307.23 142.97C307.23 142.97 305.03 140.87 303 139.02C300.97 137.18 300.08 136.03 299.16 135.29C298.24 134.55 286.01 134.78 276.27 136.8C266.53 138.83 257.18 146.92 257.18 146.92L298.21 143.82Z" fill="#2678FA"/>
<path fill-rule="evenodd" clip-rule="evenodd" d="M168.86 182.97C172.87 182.97 176.13 179.7 176.13 175.69C176.13 171.68 172.86 168.42 168.86 168.42C164.85 168.42 161.59 171.69 161.59 175.69C161.59 179.69 164.85 182.97 168.86 182.97Z" fill="#5712A6"/>
<path fill-rule="evenodd" clip-rule="evenodd" d="M270 306.09C251.36 305.28 237.73 298.72 230.27 291.89C230.01 291.65 229.78 291.06 229.6 290.16C229.6 290.16 227.58 301.55 225.09 308.27C223.8 311.75 221.32 317.87 219.23 322.95C232.58 331.62 248.51 336.66 265.61 336.66C294.96 336.66 320.84 321.82 336.17 299.24C337.29 294.54 337.76 290.78 337.85 290.01C337 293.9 303.5 307.55 270 306.09Z" fill="#5712A6"/>
</svg>
