<svg width="334" height="358" viewBox="0 0 334 358" fill="none" xmlns="http://www.w3.org/2000/svg">
<path fill-rule="evenodd" clip-rule="evenodd" d="M165.25 340.59C216.26 340.59 257.86 298.99 257.86 247.98C257.86 196.97 216.26 155.38 165.25 155.38C114.24 155.38 72.64 196.97 72.64 247.98C72.64 298.99 114.24 340.59 165.25 340.59Z" fill="#E3E0FF"/>
<path fill-rule="evenodd" clip-rule="evenodd" d="M122.11 249.22C188.88 249.22 243.34 194.76 243.34 127.99C243.34 61.22 188.88 6.76001 122.11 6.76001C55.34 6.76001 0.880005 61.22 0.880005 127.99C0.880005 194.76 55.34 249.22 122.11 249.22Z" fill="#E3E0FF"/>
<path fill-rule="evenodd" clip-rule="evenodd" d="M240.78 223.17C291.79 223.17 333.39 181.57 333.39 130.56C333.39 79.5501 291.79 37.95 240.78 37.95C189.77 37.95 148.18 79.5501 148.18 130.56C148.18 181.57 189.77 223.17 240.78 223.17Z" fill="#E3E0FF"/>
<path fill-rule="evenodd" clip-rule="evenodd" d="M55.51 76.45C58.21 76.45 60.4 78.6401 60.4 81.3401C60.4 84.0401 58.21 86.23 55.51 86.23C52.81 86.23 50.62 84.0401 50.62 81.3401C50.62 78.6401 52.81 76.45 55.51 76.45ZM62.91 85C64.25 85 65.33 86.0899 65.33 87.4299C65.33 88.7699 64.24 89.8601 62.91 89.8601C61.57 89.8601 60.48 88.7699 60.48 87.4299C60.48 86.0899 61.57 85 62.91 85Z" fill="white"/>
<path fill-rule="evenodd" clip-rule="evenodd" d="M246.2 7.73999L239.54 11.5901L232.87 15.4399V7.73999V0.0500488L239.54 3.8999L246.2 7.73999Z" fill="#E3E0FF"/>
<path fill-rule="evenodd" clip-rule="evenodd" d="M290.12 230.87V241.2V251.52L281.17 246.36L272.23 241.2L281.17 236.03L290.12 230.87Z" fill="#E3E0FF"/>
<path fill-rule="evenodd" clip-rule="evenodd" d="M309.14 150.29C306.44 150.29 304.25 152.48 304.25 155.18C304.25 157.88 306.44 160.07 309.14 160.07C311.84 160.07 314.03 157.88 314.03 155.18C314.03 152.47 311.84 150.29 309.14 150.29ZM301.74 158.84C300.4 158.84 299.32 159.93 299.32 161.27C299.32 162.61 300.41 163.7 301.74 163.7C303.08 163.7 304.17 162.61 304.17 161.27C304.17 159.93 303.08 158.84 301.74 158.84Z" fill="white"/>
<path fill-rule="evenodd" clip-rule="evenodd" d="M54.89 9.17993C57.33 9.17993 59.3199 7.19001 59.3199 4.76001C59.3199 2.32001 57.33 0.330078 54.89 0.330078C52.45 0.330078 50.47 2.32001 50.47 4.76001C50.47 7.19001 52.46 9.17993 54.89 9.17993Z" fill="#E3E0FF"/>
<path fill-rule="evenodd" clip-rule="evenodd" d="M48.53 246.02L40.51 250.65L32.5 255.28V246.02V236.76L40.51 241.39L48.53 246.02Z" fill="#E3E0FF"/>
<path fill-rule="evenodd" clip-rule="evenodd" d="M271.05 162.68V168.71V174.74L265.83 171.72L260.61 168.71L265.83 165.7L271.05 162.68Z" fill="white"/>
<path fill-rule="evenodd" clip-rule="evenodd" d="M43.89 166.65V172.68V178.71L38.67 175.7L33.45 172.68L38.67 169.67L43.89 166.65Z" fill="white"/>
<path fill-rule="evenodd" clip-rule="evenodd" d="M107.61 133.4V178.65C101.05 168.5 97.53 164.32 97.53 164.32C97.53 164.32 100.67 153.91 105.64 141.15C106.49 138.97 107.15 136.29 107.61 133.4ZM60.01 275.05L64.5 298.71C61.29 303.98 58.39 308.65 56.47 311.72L64.5 298.71C62.69 302.02 62.03 305.79 63.13 309.45L63.3 309.6C73.18 318.33 81.13 332.57 81.13 332.57C81.13 332.57 96.48 342.51 109.96 320.04L128.03 332.83C130.31 333.83 132.62 334.73 134.99 335.55L145.67 317.69L149.19 315.55C168.34 303.94 198.28 285.64 213.53 275.52H214.13C224.66 275.52 233.29 266.9 233.29 256.36V253.4C239.33 251.39 244.73 249.36 245.27 248.46C246.49 246.43 256.55 233.15 257.39 230.52C258.2 227.98 258.21 224.92 251.69 218.64C254.03 217.27 255.79 216.15 256.34 215.65C258.31 213.87 260.64 210.07 259.19 205.58C257.74 201.09 254.89 195.98 254.37 194.37C253.85 192.76 248.67 190.68 244.25 193.89C244.25 193.89 243.46 194.37 242.19 195.15C247.11 188.59 253.59 178.65 254.34 176.69C255.38 173.95 255.75 169.06 252.08 165.38C248.41 161.7 243.04 158.12 241.72 156.8C240.64 155.72 236.33 155.9 233.31 158.96V150.61C234.36 150.15 236.28 149.31 238.58 148.25C247.73 151.16 257.72 151.85 267.8 149.83C282.61 146.86 294.98 138.55 303.33 127.32C309.25 119.26 313.03 110.2 314.38 100.27C317.44 77.87 307.28 55.81 288.75 43.52C276.26 35.21 260.61 31.6701 244.74 34.8501C240.7 35.6601 236.83 36.8699 233.19 38.4199C232.14 28.8599 223.97 21.3601 214.15 21.3601H126.78C116.24 21.3601 107.62 29.98 107.62 40.52V114.94C106.26 107.21 102.95 101.79 97.21 104.33C97.21 104.33 74.59 134.23 69.73 142.73C64.87 151.22 64.87 162.15 64.87 179.14C64.87 196.14 64.87 247.11 64.87 247.11C64.87 247.11 66.08 261.69 60.01 275.05Z" fill="#CFC7FF"/>
<path fill-rule="evenodd" clip-rule="evenodd" d="M240.84 28.0501C272.59 21.6901 303.49 42.2601 309.86 74.0201C316.23 105.77 295.65 136.67 263.89 143.04C232.14 149.41 201.24 128.83 194.87 97.0701C188.51 65.3201 209.09 34.4201 240.84 28.0501Z" fill="#2678FA"/>
<path fill-rule="evenodd" clip-rule="evenodd" d="M247.93 83.1001V83.1201V83.1001ZM247.99 82.8899C247.95 83.5199 247.93 84.0599 247.96 84.3799L250.41 85.01C250.92 84.43 250.71 85.75 250.97 83.77M292.76 118.56C293.33 117.68 293.16 117.95 294.45 117.72C295.76 117.47 298.87 117.11 299.12 115.74C295.9 116.66 295.76 118.65 291.39 116.69C285.79 114.19 283.94 116.34 282.91 116.42C281.96 115.51 282.63 116.01 282.11 115.09L280.15 115.03L281.04 117.23C281.06 117.18 281.1 117.38 281.15 117.45C282.73 117.55 284.31 117.49 285.76 118.06L284.14 119.99C288.19 121.26 287.31 120.49 289.15 119.5C291.49 118.26 291.66 120.02 294.33 120.17C293.67 119.51 293 119.55 292.76 118.56ZM286.62 82.29C281.01 85.63 284.19 83.75 281.86 84.23C279.69 84.68 278.59 87.5799 281.36 88.8999C282.49 86.3299 281.95 87.1499 284.41 86.3899L288.14 85.01C287.89 81.24 289.15 79.5101 286.4 78.8601C286.66 80.3401 286.98 80.58 286.62 82.29ZM273.89 104.2C273.79 105.48 273.27 104.83 273.29 106.36C273.31 107.45 273.81 106.09 272.66 108.06C274.38 109.06 274.19 108.99 275.23 110.07C276.22 108.49 277.12 108.48 276.53 106.25C276.44 105.91 276.41 105.76 276.29 105.52L275.31 103.95C274.76 103.01 274.78 103.26 273.9 102.73C272.23 101.72 273.24 101.34 272.63 99.96C270.55 100.04 270.93 102.39 271.21 103.07C272.01 105.04 272.56 103.81 273.89 104.2ZM207.39 113.72C207.37 116.21 206.84 116.39 208.12 117.93C208.91 118.87 209.34 119.76 210.94 120.02C211.3 117.61 211.48 113.76 210.4 111.87C209.49 112.47 209.73 112.8 209.17 113.23C208.67 113.62 208.92 113.45 208.24 113.62L207.39 113.72ZM267.76 81.48C269.33 79.75 270.11 80.8501 269.93 83.0901C267.67 83.1301 266.03 82.4499 265.75 85.3799C265 86.1799 266.51 86.27 264.65 85.97C264.5 85.64 264.53 85.9499 264.42 85.1599L264.5 83.26C264.65 82.32 264.91 81.3299 265.13 80.3999C267.47 81.2299 265.5 79.8999 266.5 82.1399L267.76 81.48ZM267.55 85.6799C267.53 85.6099 266.93 86 267.47 84.71C267.84 83.82 268.88 83.9101 269.67 84.0701C269.42 85.5501 268.77 86.2499 267.55 85.6799ZM269.87 114.95C270.94 113.69 273.23 114.57 275.03 113.99C274.96 113.9 275.58 113.1 272.22 113.21C271.16 113.25 270.52 113.43 269.46 113.65L268.38 118.59C269.04 118.47 269.41 118.35 270.21 118.23C272.32 117.92 272.04 118.44 272.28 115.45L269.87 114.95ZM286.3 75.3101L285.54 77.3999C288.17 77.8999 288.67 78.5301 289.54 76.0601C288.6 74.9801 287.15 74.05 285.31 73.72L286.3 75.3101ZM217.93 39.0601C219.69 38.7101 221.73 36.6299 222.84 35.4199C220.03 37.2499 218.9 36.9201 217.93 39.0601ZM271.65 96.4099C272.91 96.6299 273.19 94.6 273.19 94.52C273.1 93.17 273.07 94.0099 272.46 93.6899C271.56 94.3799 271.31 95.0799 271.65 96.4099ZM271.67 122.18C272.57 121.89 273.55 121.7 274.47 121.59C274.47 121.59 274.11 120.5 272.66 120.98C272 121.2 272.01 121.49 271.67 122.18ZM276.29 115.03C277.42 114.83 277.52 114.52 278.02 113.21C276.76 113.47 276.22 113.44 276.29 115.03ZM278.09 120.86C279.39 120.66 278.71 120.99 279.4 120.09C279.15 119.8 278.9 119.57 278.6 119.3C278.14 119.94 277.93 120.07 278.09 120.86ZM268.96 107.7C270.12 107.39 270.54 107.29 270.91 105.92C269.77 106.34 269.7 106.66 268.96 107.7C268 108.68 265.95 110.63 264.74 111.1C263.58 111.55 263.04 111.42 262.1 112.17C259.91 113.93 261.34 112.57 259.95 113.34C259.97 114.54 260.08 114.02 260.63 115.27C261.96 118.29 263.79 117.87 266.09 115.83C267.76 114.35 269.12 112.59 268.78 109.84C268.64 108.72 268.09 109.04 268.96 107.7ZM277 117.18C277.94 117.84 278.69 117.46 279.15 116.61C278.18 116.43 277.99 116.65 277 117.18ZM273.62 117.72C274.61 117.75 274.95 117.67 275.74 117.07L276.11 116.65C275 116.79 274.17 116.99 273.62 117.72ZM212.8 42.26C213.33 41.77 213.87 41.3001 214.42 40.8301L215.66 40.45C214.3 41.26 214.56 41.82 212.8 42.26ZM289.34 131.06C283.93 135.47 277.66 138.95 270.75 141.23L270.32 140.56C266.93 140.1 266.68 141.17 265.34 141.87C264.9 142.09 264.33 142.29 263.79 142.49L260.71 143.6C259.58 143.76 258.46 143.89 257.33 143.99C257.22 141.69 257.89 138.09 258.69 135.89C260.18 131.84 259.49 132.44 263.2 131.22C264.36 130.84 265.22 130.53 266.31 130.03C268.35 129.09 266.92 129.4 270.05 127.01C270.62 126.58 270.68 126.34 271.24 125.9C273.27 124.35 272.37 125.74 273.77 126.16C275.86 124.71 277.36 121.67 281.82 123.48C280.53 124.67 280.65 125.25 281.24 126.85C283.08 127.05 283.73 126.35 284.63 124.95C285.8 123.16 285.96 122.83 287.15 121.49C287.18 121.56 287.19 121.61 287.19 121.72L287.33 122.99C287.71 124.66 287.92 122.9 288.05 125.39C288.22 128.28 289.48 129.64 289.34 131.06ZM301.88 116.96C301.74 117.17 301.61 117.38 301.47 117.59C300.84 117.61 300.9 117.58 300.25 116.81C301.3 116.54 300.45 116.5 301.14 116.7C301.5 116.81 301.73 116.9 301.88 116.96ZM242.54 27.74C244.77 27.36 247 27.11 249.21 26.99C249.55 27.81 248.56 29.2901 248.21 30.3701C249.31 30.0101 248.85 30.2 249.76 29.55L250.63 30.6699L252.24 29.8C253.24 30.38 253.15 30.6601 254.64 30.8401C255.12 29.9001 254.98 29.0201 255.75 28.5901C256.41 28.2201 257.55 28.4401 258.03 28.8501C258.94 29.6401 258.23 31.4901 260.47 32.5901L260.64 32.0601C261.2 30.5501 261.71 30.4501 264.08 30.0601C264.19 29.2101 264.16 28.5701 264.25 28.1101C266.73 28.6201 269.16 29.3001 271.53 30.1201L271.84 30.4199C271.88 30.3799 271.93 30.31 271.96 30.27C273.44 30.79 274.89 31.37 276.31 32.01C276.52 32.38 276.76 32.7099 277.05 32.9299C277.32 32.8799 277.57 32.8 277.79 32.71C284.96 36.17 291.39 41.0701 296.65 47.1001L296.74 47.45C295.25 46.56 294.05 43.99 292.37 44.26C291.59 46.73 295.45 48.9199 296.45 50.9299C294.38 51.5799 295.06 52.6801 294.9 55.0801C293.55 54.3301 293.23 54.1501 291.76 54.3401C290.84 57.1201 292.89 56.64 294.6 60.77C295.94 64 295.15 65.36 294.59 68.97C294.17 68.06 294.26 67.17 293.81 66.29C292.7 64.09 291.27 63.7799 289.75 60.1899C288.6 57.4699 289.37 56.8901 289.57 53.8601C289.84 49.8101 288.4 51.2901 287.04 51.6001C286.59 50.6801 286.48 49.2001 285.01 50.0801C283.78 51.2501 285.27 53.1301 285.61 54.5601C282.53 53.8901 282.2 52.0401 278.3 53.3501C276.3 54.0201 275.77 58.3301 276.41 60.3301C277.21 61.5001 282.96 63.0899 283.05 63.1299C284.54 68.4199 286.7 68.5301 285.53 69.8301C285.49 69.8801 285.17 70.0601 285.15 70.0901L286.56 72.23C286.88 72.75 286.67 72.33 286.97 72.97C285.19 72.59 285.3 72.17 284.65 70.77L283.64 67.8999C283.28 68.2399 282.64 71.3199 282.26 72.3799C281.75 73.7599 281.15 75.0801 280.68 76.3501L278.46 76.05C277.61 76.96 276.42 78.04 276 79.53C276.85 80.88 278.64 82.1301 278.61 84.1001C277.22 84.7201 275.42 85.0499 274.95 82.9199L274.34 81.02C273.92 80.03 274.39 80.01 273.66 79.48C271.21 78.34 273.17 79.68 271.03 79.79L270.18 77.8C268.23 78.0401 268.18 79.2799 268.11 78.9199C268.1 78.8799 268.02 79 267.97 79.03C267.9 79.87 267.85 79.62 268.1 80.22C269.34 80.22 271.99 80.84 271.37 82.55L271 84.8301L270.83 85.3401C272.12 86.5901 271.06 86.2299 271.85 87.8999C272.65 89.5699 272.78 89.19 270.57 92.05C269.64 93.26 270.03 93.1301 269.47 94.3501L265.86 95.22L263.04 96.03L263.07 98.04C262.37 98.24 261.77 98.49 260.82 98.48C261.18 97.79 261.55 97.3201 261.59 96.3501C259.82 95.6201 258.84 96.02 257.82 96.77C257.35 98.75 258.22 98.7501 259.31 99.8401C260.44 100.97 263.05 102.8 259.75 104.96C259.18 105.33 257.55 106.34 256.97 106.54C257.12 104.54 257.14 105.35 255.54 104.2C254.67 103.57 254.2 102.7 252.73 102.58C251.5 104.63 253.48 107.25 254.27 108.35C257.06 112.22 255.14 112.48 254.46 113.12C257.08 115.49 256.19 115.79 257.02 118.89C264.72 121.79 269.07 120.78 271.03 121.13C270.98 121.16 270.4 121.42 270.39 121.42C269.98 121.59 269.92 121.58 269.55 121.78C268.83 122.18 268.81 122.43 268.05 122.87C266.5 121.98 267.69 121.78 265 121.44C259.55 120.76 260.18 121.35 254.88 118.29C252.95 117.17 252.69 115.38 251.62 113.3C249.02 108.28 250.22 111.11 248.14 108.87C250.48 108.09 251.59 111.47 253.4 111.33C253.46 109.9 251.65 108.17 251.63 105.28C251.62 103.06 251.94 103.29 251.34 101.33C250.99 100.18 251.02 99.35 250 98.54C248.63 98.95 248.88 99.12 247.78 99.78L246.64 95.55L245.92 94.8799C245.4 94.3599 245.63 94.4101 244.98 94.1101C244.04 93.6801 242.84 93.76 241.81 93.74C241.37 94.62 238.75 95.8501 237.86 96.8301C236.02 98.8301 235.62 97.1801 234.6 100.82C234.13 102.51 233.89 103.25 233.02 104.31C230.45 103.74 231.02 100.47 230.1 98.4199C228.68 95.2499 228.73 93.2601 225.24 92.3401C224.37 89.1201 220.24 87.7801 216.21 87.3101C213.93 87.0501 214.59 86.9301 213.21 86.3501C212.35 85.9901 211.2 85.95 210.23 85.7C207.7 85.0499 206.91 83.5499 205.33 83.3799C205.58 84.3699 205.96 84.7599 206.88 85.3999C208.39 86.4499 207.7 85.8001 208.73 87.1201C210.52 87.5101 212.02 86.74 213.23 87.71C213.76 88.14 213.58 88.4 214.49 89.05C215.36 89.67 215.07 89.1 215.93 90.04C214.93 94.07 206.05 94.2501 201.64 93.5901C202.37 95.6401 202.81 95.1601 205.03 95.5601L208.87 96.03C209.11 97.59 208.93 97.81 207.86 98.75C206.09 100.32 204.07 101.28 201.92 102.28L200.67 103.07C200.88 105.93 203.68 107.66 203.32 110.12C202.12 110.95 201.47 110.57 200.46 111.19C200.97 112.76 201.32 112.3 202.09 113.69C201.08 115.11 203.3 112.37 201.55 114.15L201.37 114.47C198.38 109.19 196.16 103.35 194.9 97.0801C194.09 93.0601 193.72 89.0501 193.75 85.1101C194.34 85.6801 195.13 86.49 196.09 87.95C197.07 89.43 198.66 91.7401 200.8 92.3301C200.78 90.6001 200.16 90.19 199.31 89.22L195.16 84.3301C194.66 83.7101 194.41 83.16 193.82 82.79C193.94 80.05 194.27 77.35 194.76 74.71C195.27 74.81 195.78 74.8799 196.31 74.8799C197.85 74.8899 198.03 74.6799 198.47 73.6599C197.65 73.4199 196.37 73.2499 195.62 72.6799C195.46 72.5599 195.33 72.4601 195.24 72.3701C196.46 67.1201 198.39 62.0899 200.95 57.4199C201.22 57.2099 201.49 56.9601 201.71 56.6101L201.33 56.72C201.59 56.26 201.86 55.7901 202.14 55.3401C202.21 55.6201 202.31 55.93 203.3 56C204.29 55.49 204.03 54.69 205.51 53.49L206.68 54.1201C206.72 54.0601 206.8 54.22 206.88 54.25C207.74 53.64 210.96 51.8699 211.75 51.6899C213.61 51.2499 216.03 50.9801 216.67 49.0701C215.64 48.9701 211.97 49.3 211.13 49.47C211.64 47.38 218.57 41.77 220.62 40.73C221.97 40.04 222.58 38.67 224.12 38.54C223.47 40.22 222.94 39.9001 221.58 40.8601C220.06 41.9501 213.92 46.06 214.68 48.24C215.89 48.76 220.5 48.4199 221.49 47.4399C221.65 47.2299 222.22 42.2699 225.28 42.3999C226.05 43.5499 225.09 42.9599 226.04 44.1299C226.1 44.0699 226.17 43.9699 226.21 43.9199L227.02 42.1799C228.53 43.2699 228.44 42.12 229.61 41.49C229.67 41.45 229.76 41.4099 229.83 41.3899C230.55 41.0899 230.21 41.5299 231.34 41.1299C231.02 40.0099 230.25 39.8899 231.6 38.8999C232.2 38.4599 232.94 38.34 233.75 37.52C234.74 36.53 235.15 35.1301 236.77 33.5701C238.36 32.0401 239.97 31.45 240.8 30.55C241.73 29.51 242.02 28.49 242.54 27.74Z" fill="#78E3CC"/>
<path fill-rule="evenodd" clip-rule="evenodd" d="M253.64 97.76C258.3 97.76 262.11 97.0001 262.11 96.0601C262.11 95.1201 258.31 94.3601 253.64 94.3601C248.97 94.3601 245.17 95.1201 245.17 96.0601C245.17 96.9901 248.98 97.76 253.64 97.76Z" fill="white"/>
<path fill-rule="evenodd" clip-rule="evenodd" d="M55.49 268.24L36.8 301.17C33.58 306.44 30.68 311.11 28.77 314.18L36.8 301.17C35.72 303.14 33.77 307.76 35.73 312.83C36.5 314.82 37.87 316.87 40.12 318.86C50.01 327.58 93.38 355.07 93.38 355.07C93.38 355.07 108.73 365.01 122.21 342.54L151.48 293.58L106.21 287.77L55.49 268.24Z" fill="#FFABCC"/>
<path fill-rule="evenodd" clip-rule="evenodd" d="M227.74 236.09C227.74 236.09 225.95 254.99 218.04 262.26C210.14 269.53 127.1 319.34 127.1 319.34L88.65 195.11L202.76 134.11V141.54H213.98C213.98 141.54 217.01 141.21 218.19 142.2C219.36 143.19 216.35 177.21 216.35 177.21L207.97 215.27L212.56 219.78L227.74 236.09Z" fill="#ED87AB"/>
<path fill-rule="evenodd" clip-rule="evenodd" d="M215.36 264.36C199.01 276.21 127.11 319.34 127.11 319.34L118.58 291.79L127 271.62V281.71C127 281.71 129.16 289.49 135.12 290.15C141.07 290.83 215.16 264.44 215.36 264.36Z" fill="#FFABCC"/>
<path fill-rule="evenodd" clip-rule="evenodd" d="M220.61 114L243.67 109.91C243.67 109.91 250.96 109.45 253.38 116.13C255.81 122.81 256.12 128.58 250.04 132.97C243.97 137.37 227.89 144.2 227.89 144.2L220.61 114Z" fill="#FFABCC"/>
<path fill-rule="evenodd" clip-rule="evenodd" d="M122.24 14.5801H209.61C220.15 14.5801 228.77 23.2 228.77 33.74V249.56C228.77 260.1 220.15 268.72 209.61 268.72H122.24C111.71 268.72 103.08 260.1 103.08 249.56V33.74C103.09 23.2 111.71 14.5801 122.24 14.5801Z" fill="#5712A6"/>
<path fill-rule="evenodd" clip-rule="evenodd" d="M123.37 21.74H135.37V23.73C135.37 28.01 138.87 31.51 143.15 31.51H165.93H188.71C192.99 31.51 196.49 28.01 196.49 23.73V21.74H208.49C215.88 21.74 221.92 27.7799 221.92 35.1599V249.36C221.92 256.74 215.88 262.78 208.49 262.78H123.37C115.99 262.78 109.95 256.74 109.95 249.36V35.1599C109.94 27.7799 115.99 21.74 123.37 21.74Z" fill="white"/>
<path fill-rule="evenodd" clip-rule="evenodd" d="M221.91 87.0901V249.36C221.91 256.74 215.87 262.78 208.48 262.78H123.36C115.98 262.78 109.94 256.74 109.94 249.36V87.0901C109.94 79.7101 115.98 73.6699 123.36 73.6699H208.48C215.87 73.6699 221.91 79.7101 221.91 87.0901Z" fill="#E3E0FF"/>
<path fill-rule="evenodd" clip-rule="evenodd" d="M221.91 87.0901V95.8701H204L199.58 112.35H136.88L147.24 73.6699H208.48C215.87 73.6699 221.91 79.7101 221.91 87.0901Z" fill="#CFC7FF"/>
<path fill-rule="evenodd" clip-rule="evenodd" d="M118.19 48.3701H125.7V50.0701H118.19V48.3701ZM118.19 51.4299H125.7V53.1299H118.19V51.4299ZM118.19 45.3H125.7V47H118.19V45.3Z" fill="#7D21E8"/>
<path fill-rule="evenodd" clip-rule="evenodd" d="M129.27 112.35L133.8 95.4399H121.86L117.33 112.35H129.27Z" fill="#78E3CC"/>
<path fill-rule="evenodd" clip-rule="evenodd" d="M177.69 134.63H166.95L162.8 150.11H180.08L182.84 139.81L184.23 134.63H177.69Z" fill="#78E3CC"/>
<path fill-rule="evenodd" clip-rule="evenodd" d="M201.03 115.04L192.56 146.65H204.06L209.52 126.26L210.96 120.9L212.7 114.43L213.25 112.35H212.27H208.1H201.76L201.03 115.04Z" fill="#78E3CC"/>
<path fill-rule="evenodd" clip-rule="evenodd" d="M213.35 157.78H189.58L184.6 176.37H208.37L213.35 157.78Z" fill="#78E3CC"/>
<path fill-rule="evenodd" clip-rule="evenodd" d="M177.52 175.99H133.93L124.03 193.13L149 218.1H168.39L177.52 175.99Z" fill="#78E3CC"/>
<path fill-rule="evenodd" clip-rule="evenodd" d="M221.91 146.65V157.78H189.57L161.43 262.78H149.88L159.87 225.5H109.94V214.37H162.85L200.55 73.6599H208.48C209.69 73.6599 210.87 73.8199 211.98 74.1299L192.55 146.65H221.91Z" fill="white"/>
<path fill-rule="evenodd" clip-rule="evenodd" d="M206.28 208.02H198.93H186.09L179.97 230.84L179.3 233.33H199.5L206.28 208.02Z" fill="#CFC7FF"/>
<path fill-rule="evenodd" clip-rule="evenodd" d="M147.94 200.83C152.6 200.83 156.41 200.07 156.41 199.13C156.41 198.2 152.61 197.43 147.94 197.43C143.28 197.43 139.47 198.2 139.47 199.13C139.47 200.07 143.27 200.83 147.94 200.83Z" fill="white"/>
<path fill-rule="evenodd" clip-rule="evenodd" d="M131.57 150.11H109.94V138.97H134.55L131.57 150.11Z" fill="#CFC7FF"/>
<path fill-rule="evenodd" clip-rule="evenodd" d="M92.6801 97.5401C92.6801 97.5401 70.06 127.44 65.2 135.94C60.34 144.43 60.34 155.36 60.34 172.35C60.34 189.34 60.34 240.32 60.34 240.32C60.34 240.32 61.55 254.88 55.49 268.23C49.42 281.58 42.02 291.97 42.02 291.97L127.1 324.29V235.46C127.1 235.46 127.1 212.4 113.75 189.34C100.4 166.28 93.01 157.51 93.01 157.51C93.01 157.51 96.14 147.1 101.12 134.33C106.09 121.58 104.65 92.2401 92.6801 97.5401Z" fill="#FFABCC"/>
<path fill-rule="evenodd" clip-rule="evenodd" d="M106.95 316.64L127.11 324.3V268.73C127.11 269.28 126.96 287.11 120.25 297.17C118.26 300.14 113.17 307.58 106.95 316.64Z" fill="#FFABCC"/>
<path fill-rule="evenodd" clip-rule="evenodd" d="M227.01 154.63C227.01 154.63 216.27 171.97 214.57 178C212.88 184.03 215.33 191.19 219.47 193.27C223.61 195.35 229.46 196.85 233.04 193.84C236.62 190.82 248.78 172.64 249.81 169.91C250.85 167.17 251.22 162.28 247.55 158.6C243.88 154.92 238.51 151.34 237.19 150.02C235.86 148.69 229.74 149.26 227.01 154.63Z" fill="#FFABCC"/>
<path fill-rule="evenodd" clip-rule="evenodd" d="M246.48 211.19C246.48 211.19 207.06 232.45 203.86 235.33C200.66 238.2 201.19 244.82 203.97 248.67C206.75 252.51 209.11 252.27 211.29 251.88C213.48 251.5 239.52 243.7 240.74 241.67C241.96 239.64 252.02 226.36 252.86 223.73C253.71 221.09 253.69 217.91 246.48 211.19Z" fill="#FFABCC"/>
<path fill-rule="evenodd" clip-rule="evenodd" d="M239.73 187.09C239.73 187.09 223.88 196.65 220.02 200.81C216.16 204.98 215.17 211.78 217.66 215.16C220.15 218.55 224.24 222.19 228.38 221.23C232.52 220.28 249.85 210.62 251.82 208.85C253.79 207.07 256.12 203.27 254.67 198.78C253.22 194.29 250.37 189.18 249.85 187.57C249.33 185.96 244.15 183.89 239.73 187.09Z" fill="#FFABCC"/>
<path fill-rule="evenodd" clip-rule="evenodd" d="M245.74 213.41C245.71 213.43 235.46 218.78 230.25 221.24L229.35 219.33C234.54 216.88 244.73 211.55 244.76 211.54L245.74 213.41Z" fill="#ED87AB"/>
<path fill-rule="evenodd" clip-rule="evenodd" d="M227.37 194.47C231.5 194.5 233.02 192.58 235.33 189.65L235.8 189.06L237.45 190.37L236.98 190.96C234.28 194.38 232.51 196.62 227.35 196.58L227.37 194.47Z" fill="#ED87AB"/>
<path d="M76.1821 151.456L75.6757 153.515L91.1549 157.323L91.6614 155.264L76.1821 151.456Z" fill="#ED87AB"/>
<path fill-rule="evenodd" clip-rule="evenodd" d="M129.36 270.15C129.35 270.18 123.95 279.42 109.99 287.94L108.89 286.14C122.39 277.9 127.53 269.11 127.54 269.08L129.36 270.15Z" fill="#ED87AB"/>
<path d="M189.5 45.97C188.47 45.97 187.6 46.31 187.06 46.96V46.05H185.48V53.1299H187.14V49.55C187.14 48.13 187.94 47.4099 189.12 47.4099C190.18 47.4099 190.8 48.02 190.8 49.28V53.1201H192.46V49.0601C192.46 46.9401 191.2 45.97 189.5 45.97ZM166.26 46.05L163.99 51.3L161.79 46.05H160.06L163.1 53.1299H164.81L167.84 46.05H166.26ZM157.39 53.1299H159.05V46.05H157.39V53.1299ZM158.23 44.8799C158.85 44.8799 159.29 44.4301 159.29 43.8401C159.29 43.3001 158.84 42.8899 158.23 42.8899C157.62 42.8899 157.17 43.3299 157.17 43.8799C157.17 44.4299 157.62 44.8799 158.23 44.8799ZM153.46 47.0801V46.05H151.88V53.1299H153.54V49.7C153.54 48.26 154.34 47.51 155.59 47.51C155.71 47.51 155.83 47.52 155.98 47.55V45.97C154.81 45.97 153.94 46.3401 153.46 47.0801ZM142.81 51.6699V45.3H145.06C147.13 45.3 148.47 46.56 148.47 48.48C148.47 50.41 147.13 51.6599 145.06 51.6599H142.81V51.6699ZM141.09 53.1299H145.15C148.16 53.1299 150.21 51.27 150.21 48.49C150.21 45.7 148.16 43.8501 145.15 43.8501H141.09V53.1299Z" fill="#7D21E8"/>
<path d="M171.75 47.3C172.75 47.3 173.49 47.88 173.71 48.74L169.71 49.51V49.5C169.71 48.15 170.55 47.3 171.75 47.3ZM172.06 51.8201C171.03 51.8201 170.26 51.3801 169.91 50.5701L175.33 49.51C175.32 47.3 173.73 45.97 171.75 45.97C169.64 45.97 168.1 47.4801 168.1 49.5901C168.1 51.6901 169.64 53.22 172.02 53.22C173.24 53.22 174.23 52.8201 174.86 52.0601L173.99 51.04C173.46 51.57 172.85 51.8201 172.06 51.8201Z" fill="#7D21E8"/>
<path d="M180.11 51.8101C178.92 51.8101 178.01 50.9401 178.01 49.5901C178.01 48.2401 178.91 47.3701 180.11 47.3701C181.32 47.3701 182.22 48.2301 182.22 49.5901C182.22 50.9401 181.32 51.8101 180.11 51.8101ZM180.11 53.22C182.31 53.22 183.89 51.7101 183.89 49.5901C183.89 47.4601 182.31 45.97 180.11 45.97C177.94 45.97 176.34 47.4701 176.34 49.5901C176.34 51.7101 177.93 53.22 180.11 53.22Z" fill="#7D21E8"/>
<path fill-rule="evenodd" clip-rule="evenodd" d="M175.79 49.07C175.6 47.47 176.46 46.1299 177.23 45.4499C178.11 44.6699 179.51 44.0899 181.11 44.4699C183.85 45.1199 185.29 48.1999 183.91 50.7699C183.67 51.2099 181.21 54.68 180.79 55.3C180.67 55.48 180.41 55.9299 180.23 55.9999C179.9 56.1399 179.7 55.6899 179.55 55.4899L177.46 52.4799C176.62 51.2399 175.98 50.62 175.79 49.07ZM180.44 46.7099C179.32 46.4899 178.39 47.3399 178.26 48.2399C178.09 49.3699 178.85 50.2098 179.76 50.3898C180.88 50.6198 181.78 49.79 181.95 48.87C182.17 47.74 181.35 46.8799 180.44 46.7099Z" fill="#26E0FA"/>
<path fill-rule="evenodd" clip-rule="evenodd" d="M234.79 51.5601C236.76 52.3301 238.62 53.3401 240.32 54.5901L242.35 51.8799C240.42 50.4299 238.28 49.2699 236.03 48.3999L234.79 51.5601ZM225.43 49.8401C227.56 49.8601 229.7 50.1101 231.77 50.6201L232.58 47.3201C230.26 46.7601 227.87 46.47 225.49 46.45L225.43 49.8401ZM215.75 50.96L222.2 49.9399L221.94 46.5601L215 47.6499L215.75 50.96ZM206.49 54.1899L212.6 51.8201L211.61 48.5801L205.08 51.1001L206.49 54.1899ZM197.93 59.1001L203.55 55.6599L201.96 52.6699L196.02 56.3101L197.93 59.1001ZM190.18 65.3101L195.26 61.04L193.21 58.3401L187.9 62.79L190.18 65.3101ZM183.27 72.49L187.78 67.6001L185.39 65.2L180.7 70.27L183.27 72.49ZM177.19 80.4199L181.16 75.0601L178.51 72.95L174.41 78.48L177.19 80.4199ZM171.87 88.9099L175.33 83.2L172.49 81.3501L168.92 87.23L171.87 88.9099ZM167.26 97.8301L170.26 91.8401L167.27 90.25L164.2 96.3899L167.26 97.8301ZM163.31 107.07L165.88 100.88L162.78 99.5L160.16 105.83L163.31 107.07ZM159.94 116.56L162.12 110.22L158.94 109.04L156.71 115.52L159.94 116.56ZM157.1 126.24L158.93 119.77L155.69 118.78L153.82 125.36L157.1 126.24ZM154.74 136.05L156.26 129.5L152.97 128.68L151.43 135.34L154.74 136.05ZM152.83 145.97L154.06 139.34L150.74 138.67L149.49 145.38L152.83 145.97ZM151.3 155.96L152.27 149.29L148.92 148.76L147.94 155.51L151.3 155.96ZM150.4 163.34L150.87 159.31L147.5 158.89L147.02 162.95L150.4 163.34ZM242.7 56.6499C243.89 57.8299 245.79 60.0001 246.38 61.5701C246.4 61.6101 246.4 61.6101 246.38 61.5701L249.47 60.1699C248.47 57.9799 246.8 55.94 245.1 54.25L242.7 56.6499Z" fill="white"/>
<path fill-rule="evenodd" clip-rule="evenodd" d="M147.38 192.88H149.08C149.71 192.93 150.13 192.04 150.43 191.61L155.32 184.57C155.93 183.68 157.27 181.84 157.76 181.04C158.57 179.71 159.02 178.46 159.24 176.6C159.68 172.87 157.67 169.73 155.87 168.14C153.8 166.31 150.54 164.97 146.78 165.85C140.36 167.35 137 174.58 140.22 180.57C140.77 181.6 146.55 189.73 147.53 191.17L147.6 191.28H147.37V192.88H147.38ZM148.36 171.08C150.98 170.56 153.15 172.56 153.46 174.66C153.85 177.3 152.09 179.26 149.94 179.69C147.32 180.21 145.22 178.28 144.82 176.13C144.31 173.51 146.25 171.5 148.36 171.08Z" fill="#ED29A1"/>
<path fill-rule="evenodd" clip-rule="evenodd" d="M157.43 176.6C157.88 172.87 155.86 169.73 154.07 168.14C152 166.31 148.74 164.97 144.98 165.85C138.56 167.35 135.19 174.58 138.42 180.57C138.97 181.6 144.75 189.73 145.73 191.17C146.02 191.59 146.64 192.65 147.04 192.81C147.81 193.13 148.28 192.08 148.63 191.6L153.52 184.56C154.13 183.67 155.47 181.83 155.96 181.03C156.77 179.72 157.21 178.47 157.43 176.6ZM146.55 171.08C149.17 170.56 151.34 172.56 151.65 174.66C152.04 177.3 150.27 179.26 148.12 179.69C145.5 180.21 143.41 178.28 143 176.13C142.5 173.51 144.44 171.5 146.55 171.08Z" fill="#FF737D"/>
<path fill-rule="evenodd" clip-rule="evenodd" d="M253.04 90.33H254.74C255.38 90.38 255.79 89.49 256.09 89.07L260.98 82.0299C261.59 81.1399 262.94 79.3099 263.42 78.5099C264.23 77.1799 264.68 75.93 264.9 74.07C265.35 70.34 263.33 67.2 261.54 65.61C259.47 63.77 256.21 62.44 252.45 63.31C246.03 64.81 242.66 72.0399 245.89 78.0399C246.44 79.0699 252.22 87.1998 253.2 88.6398L253.27 88.7499H253.04V90.33ZM254.03 68.5299C256.65 68.0099 258.82 70.01 259.12 72.12C259.51 74.76 257.75 76.7198 255.6 77.1498C252.98 77.6698 250.88 75.74 250.48 73.59C249.97 70.97 251.91 68.9499 254.03 68.5299Z" fill="#ED29A1"/>
<path fill-rule="evenodd" clip-rule="evenodd" d="M263.1 74.06C263.54 70.32 261.53 67.19 259.74 65.6C257.67 63.76 254.41 62.43 250.64 63.3C244.22 64.8 240.85 72.0299 244.08 78.0299C244.63 79.0599 250.41 87.1898 251.39 88.6298C251.68 89.0498 252.3 90.1099 252.7 90.2699C253.47 90.5899 253.94 89.54 254.28 89.06L259.17 82.0199C259.78 81.1299 261.12 79.2999 261.61 78.4999C262.43 77.1699 262.88 75.93 263.1 74.06ZM252.22 68.5299C254.84 68.0099 257 70.01 257.31 72.12C257.7 74.76 255.93 76.7198 253.79 77.1498C251.17 77.6698 249.07 75.74 248.67 73.59C248.17 70.97 250.1 68.9499 252.22 68.5299Z" fill="#FF737D"/>
</svg>
