<svg width="349" height="348" viewBox="0 0 349 348" fill="none" xmlns="http://www.w3.org/2000/svg">
<path fill-rule="evenodd" clip-rule="evenodd" d="M207.3 124.37C269.03 124.37 319.07 174.41 319.07 236.13C319.07 297.86 269.03 347.9 207.3 347.9C145.57 347.9 95.53 297.86 95.53 236.13C95.53 174.41 145.57 124.37 207.3 124.37Z" fill="#E3E0FF"/>
<path fill-rule="evenodd" clip-rule="evenodd" d="M93.15 109.96C144.52 109.96 186.16 151.6 186.16 202.97C186.16 254.34 144.52 295.98 93.15 295.98C41.78 295.98 0.140015 254.34 0.140015 202.97C0.140015 151.6 41.78 109.96 93.15 109.96Z" fill="#E3E0FF"/>
<path fill-rule="evenodd" clip-rule="evenodd" d="M216.23 17.99C276.41 17.99 325.19 66.77 325.19 126.95C325.19 187.12 276.41 235.91 216.23 235.91C156.06 235.91 107.27 187.13 107.27 126.95C107.27 66.78 156.05 17.99 216.23 17.99Z" fill="#E3E0FF"/>
<path fill-rule="evenodd" clip-rule="evenodd" d="M107.08 310.97V319.98V329L99.27 324.49L91.46 319.98L99.27 315.47L107.08 310.97Z" fill="#E3E0FF"/>
<path fill-rule="evenodd" clip-rule="evenodd" d="M40.58 87L44.32 93.47L48.06 99.9399H40.58H33.11L36.84 93.47L40.58 87Z" fill="#E3E0FF"/>
<path fill-rule="evenodd" clip-rule="evenodd" d="M240.19 72.76L238.24 80.03L236.29 87.3L230.97 81.98L225.65 76.6599L232.92 74.71L240.19 72.76Z" fill="white"/>
<path fill-rule="evenodd" clip-rule="evenodd" d="M275.72 107.08C275.72 107.07 276.67 102.42 277.89 98.63C279.2 94.56 279.7 87.5701 276.06 87.2401C276.06 87.2401 274.3 83.92 270.3 83.71C266.3 83.51 261.48 83.8501 258.71 82.7601C253.54 80.7401 251.51 91.5902 260.31 92.6202C260.16 96.0202 259.85 107.98 262.75 108.83C263.58 109.08 264.9 108.91 266.24 108.49L266.58 109.51L264.82 110.31C264.82 110.31 252.66 113.28 249.51 115.93C247.94 117.25 246.06 120.65 244.57 123.73L199.73 111.72L170.06 119.67L191.78 141.39L193.41 141.83C193.41 141.83 199.53 147.12 203.42 148.86C207.31 150.59 210.7 149.6 210.7 149.6C210.7 149.6 231.96 166.48 238.91 164.16C241.23 163.38 243.95 160.1 246.53 156.06L251.86 157.49C250.45 167.57 247.88 178.21 247.88 178.21C247.88 178.21 248.06 178.31 248.4 178.49C246.24 189.78 242.28 210.42 241.96 211.6C241.56 213.11 243.23 250.23 243.6 267.69H244.54L244.88 269.84H244.11L244.63 272.51C241.98 273.47 236.61 273.88 235.18 274.84C233.24 276.14 232.43 280.13 232.43 280.13H259.21L258.56 272.54H257.82L257.94 267.69H258.67C260.19 254.57 263.33 230.16 264.01 227.26C264.78 223.96 264.06 216.07 264.68 213.47C265.3 210.87 268.42 196.81 268.42 196.81C268.42 196.81 269.59 209.07 269.94 214.32C270.2 218.15 277.26 250.52 281.05 267.69H282.19L282.66 269.74H281.91L282.65 272.51C280.08 273.47 274.74 273.88 273.38 274.84C271.54 276.14 271.02 280.13 271.02 280.13H297.8L296.58 272.54H295.84L295.6 267.69H296.88C296.79 261.8 296.69 254.24 296.68 248.01C296.67 235.86 294.71 221.49 294.5 215.92C294.36 212.22 296.17 193.86 297.41 181.93C297.73 181.78 297.9 181.69 297.9 181.69C297.9 181.69 298.58 177.1 299.28 170.18C304.76 171.64 325.32 177.3 326.81 177.46C330.08 177.82 332.53 176.81 334.14 173.92L335.19 171.28L338.84 157.65C340.62 151.02 336.78 148.63 333.88 147.64L313.16 142.09C311.28 136.39 303.93 117.37 299.25 114.01C295.38 111.24 277.79 108.59 276.17 108.32L275.72 107.08Z" fill="#CFC7FF"/>
<path fill-rule="evenodd" clip-rule="evenodd" d="M170.42 42.22H82.93C72.38 42.22 63.74 50.8499 63.74 61.3999V277.53C63.74 278.11 63.76 278.68 63.82 279.25H189.53C189.58 278.69 189.61 278.11 189.61 277.53V61.3999C189.61 50.8499 180.97 42.22 170.42 42.22Z" fill="#CFC7FF"/>
<path fill-rule="evenodd" clip-rule="evenodd" d="M164.42 0.709961L168.16 7.17993L171.9 13.6599H164.42H156.95L160.68 7.17993L164.42 0.709961Z" fill="#E3E0FF"/>
<path fill-rule="evenodd" clip-rule="evenodd" d="M205.39 299.56L203.93 305.02L202.47 310.47L198.47 306.48L194.49 302.49L199.94 301.02L205.39 299.56Z" fill="white"/>
<path fill-rule="evenodd" clip-rule="evenodd" d="M184.12 25.49H96.6299C86.0799 25.49 77.45 34.1199 77.45 44.6799V260.81C77.45 271.36 86.0799 280 96.6299 280H184.12C194.67 280 203.31 271.37 203.31 260.81V44.6799C203.3 34.1199 194.67 25.49 184.12 25.49Z" fill="#5712A6"/>
<path fill-rule="evenodd" clip-rule="evenodd" d="M182.99 32.6699H170.97V34.6599C170.97 38.9499 167.46 42.45 163.18 42.45H140.37H117.56C113.27 42.45 109.77 38.9499 109.77 34.6599V32.6699H97.7501C90.3501 32.6699 84.3101 38.7201 84.3101 46.1101V260.61C84.3101 268.01 90.3601 274.05 97.7501 274.05H182.99C190.38 274.05 196.43 268 196.43 260.61V46.1101C196.44 38.7101 190.39 32.6699 182.99 32.6699Z" fill="white"/>
<path fill-rule="evenodd" clip-rule="evenodd" d="M140.37 72.77C131.08 72.77 123.56 80.3001 123.56 89.5801C123.56 98.8701 131.09 106.39 140.37 106.39C149.66 106.39 157.18 98.8701 157.18 89.5801C157.19 80.3001 149.66 72.77 140.37 72.77Z" fill="#78E3CC"/>
<path fill-rule="evenodd" clip-rule="evenodd" d="M140.37 78.48C136.94 78.48 134.15 81.26 134.15 84.7C134.15 88.13 136.93 90.9099 140.37 90.9099C143.8 90.9099 146.59 88.13 146.59 84.7C146.59 81.26 143.81 78.48 140.37 78.48ZM128.14 101.12C131.21 104.37 135.55 106.4 140.38 106.4C145.2 106.4 149.55 104.37 152.62 101.12C151.1 95.8001 146.18 91.8701 140.38 91.8701C134.58 91.8701 129.66 95.8001 128.14 101.12Z" fill="#CFF2EB"/>
<path fill-rule="evenodd" clip-rule="evenodd" d="M183.45 116.66H96.6901C95.5301 116.66 94.5901 117.6 94.5901 118.75V127.47C94.5901 128.62 95.5301 129.56 96.6901 129.56H183.45C184.61 129.56 185.55 128.62 185.55 127.47V118.75C185.55 117.6 184.61 116.66 183.45 116.66Z" fill="#CFF2EB"/>
<path fill-rule="evenodd" clip-rule="evenodd" d="M183.45 142.48H96.6901C95.5301 142.48 94.5901 143.42 94.5901 144.57V153.29C94.5901 154.45 95.5301 155.39 96.6901 155.39H183.45C184.61 155.39 185.55 154.45 185.55 153.29V144.57C185.55 143.42 184.61 142.48 183.45 142.48Z" fill="#CFF2EB"/>
<path fill-rule="evenodd" clip-rule="evenodd" d="M154.27 168.3H125.87C124.43 168.3 123.25 169.48 123.25 170.92V178.58C123.25 180.02 124.43 181.21 125.87 181.21H154.27C155.71 181.21 156.89 180.03 156.89 178.58V170.92C156.89 169.48 155.71 168.3 154.27 168.3Z" fill="#78E3CC"/>
<path d="M99.73 124.33C99.53 124.19 99.4901 123.92 99.6201 123.73C99.7601 123.54 100.02 123.49 100.22 123.62C102.31 125.06 105.56 123.05 108.89 120.96C113.01 118.39 117.27 115.73 120.35 118.86C121.33 119.86 121.7 120.81 121.68 121.67C122.92 121.68 124.27 121.79 125.67 122.06C129.34 122.74 132.17 121.52 134.46 120.53C135.99 119.87 137.28 119.31 138.51 119.41C140.71 119.59 140.79 121.4 140.64 122.47C140.71 122.4 140.8 122.32 140.91 122.26C143.08 121.03 147.87 118.29 150.88 119.3C152.71 119.92 152.79 121.04 152.46 122.04C152.34 122.41 152.15 122.76 151.98 123.04C155.69 122.78 158.93 121.7 162.13 120.63C168.28 118.58 174.28 116.58 183.17 120.38C183.39 120.47 183.49 120.73 183.4 120.95C183.31 121.17 183.05 121.27 182.83 121.18C174.23 117.51 168.4 119.46 162.4 121.46C158.99 122.59 155.53 123.75 151.48 123.94C151.13 124 150.94 123.88 150.87 123.59V123.57C150.82 123.33 150.96 123.08 151.15 122.75C151.31 122.48 151.52 122.13 151.63 121.77C151.83 121.18 151.76 120.51 150.6 120.12C147.96 119.24 143.4 121.84 141.34 123.01C140.57 123.45 140.07 123.73 139.8 123.55C139.57 123.4 139.52 123.19 139.66 122.94C139.76 122.6 140.33 120.43 138.44 120.28C137.42 120.19 136.21 120.72 134.8 121.33C132.4 122.37 129.43 123.65 125.51 122.92C124.09 122.66 122.74 122.54 121.51 122.55C121.49 122.61 121.47 122.66 121.45 122.72L121.44 122.74C121.24 123.2 120.93 123.62 120.54 123.97C120.16 124.32 119.71 124.61 119.25 124.83C117.89 125.48 116.31 125.55 115.59 124.83C115.37 124.61 115.24 124.36 115.21 124.11C115.16 123.68 115.37 123.28 115.8 122.94C116.15 122.67 116.67 122.42 117.31 122.22C118.22 121.94 119.42 121.74 120.81 121.69C120.83 121.04 120.54 120.29 119.73 119.47C117.14 116.83 113.18 119.31 109.35 121.7C105.77 123.93 102.29 126.1 99.73 124.33ZM119.97 123.32C120.22 123.1 120.42 122.84 120.57 122.56C119.38 122.62 118.36 122.8 117.57 123.04C117.02 123.21 116.61 123.41 116.34 123.61C116.15 123.76 116.06 123.88 116.08 123.98C116.09 124.04 116.13 124.12 116.22 124.2C116.68 124.66 117.84 124.54 118.89 124.03C119.28 123.86 119.65 123.61 119.97 123.32Z" fill="#454582"/>
<path d="M161.49 56.6299C160.56 56.6299 159.79 56.94 159.3 57.52V56.7H157.88V63.0701H159.37V59.8501C159.37 58.5801 160.09 57.9299 161.15 57.9299C162.1 57.9299 162.66 58.4801 162.66 59.6101V63.0701H164.15V59.4199C164.15 57.4999 163.01 56.6299 161.49 56.6299ZM140.6 56.7L138.56 61.4199L136.58 56.7H135.03L137.76 63.0701H139.3L142.03 56.7H140.6ZM132.63 63.0601H134.12V56.6899H132.63V63.0601ZM133.38 55.6499C133.94 55.6499 134.33 55.24 134.33 54.72C134.33 54.23 133.93 53.8601 133.38 53.8601C132.83 53.8601 132.43 54.25 132.43 54.75C132.42 55.25 132.83 55.6499 133.38 55.6499ZM129.1 57.6299V56.7H127.68V63.0701H129.17V59.98C129.17 58.68 129.88 58.01 131.02 58.01C131.13 58.01 131.23 58.02 131.37 58.05V56.6299C130.3 56.6299 129.53 56.9599 129.1 57.6299ZM119.52 61.75V56.02H121.55C123.41 56.02 124.61 57.1499 124.61 58.8799C124.61 60.6099 123.4 61.75 121.55 61.75H119.52ZM117.97 63.0601H121.62C124.33 63.0601 126.17 61.3899 126.17 58.8799C126.17 56.3799 124.32 54.71 121.62 54.71H117.97V63.0601Z" fill="#7D21E8"/>
<path d="M145.54 57.8201C146.44 57.8201 147.1 58.3401 147.31 59.1201L143.71 59.8101V59.8C143.7 58.58 144.45 57.8201 145.54 57.8201ZM145.81 61.8799C144.88 61.8799 144.19 61.49 143.88 60.76L148.76 59.8C148.75 57.81 147.32 56.6201 145.54 56.6201C143.65 56.6201 142.26 57.9801 142.26 59.8701C142.26 61.7701 143.64 63.1399 145.78 63.1399C146.88 63.1399 147.77 62.7801 148.33 62.1001L147.54 61.1799C147.08 61.6499 146.53 61.8799 145.81 61.8799Z" fill="#7D21E8"/>
<path d="M153.05 61.8701C151.98 61.8701 151.16 61.0999 151.16 59.8799C151.16 58.6599 151.97 57.8899 153.05 57.8899C154.13 57.8899 154.94 58.6599 154.94 59.8799C154.94 61.0999 154.13 61.8701 153.05 61.8701ZM153.05 63.1499C155.03 63.1499 156.45 61.7899 156.45 59.8799C156.45 57.9699 155.03 56.6299 153.05 56.6299C151.09 56.6299 149.66 57.9699 149.66 59.8799C149.66 61.7899 151.09 63.1499 153.05 63.1499Z" fill="#7D21E8"/>
<path fill-rule="evenodd" clip-rule="evenodd" d="M149.17 59.4099C149 57.9699 149.77 56.7699 150.46 56.1599C151.26 55.4499 152.51 54.94 153.95 55.28C156.41 55.86 157.71 58.64 156.47 60.94C156.26 61.33 154.04 64.46 153.66 65.01C153.55 65.17 153.31 65.5799 153.15 65.6399C152.86 65.7599 152.68 65.3599 152.54 65.1799L150.66 62.48C149.92 61.37 149.33 60.7999 149.17 59.4099ZM153.35 57.2901C152.34 57.0901 151.51 57.8599 151.39 58.6699C151.24 59.6899 151.92 60.4401 152.74 60.6001C153.75 60.8001 154.55 60.06 154.71 59.23C154.9 58.22 154.16 57.4401 153.35 57.2901Z" fill="#26E0FA"/>
<path fill-rule="evenodd" clip-rule="evenodd" d="M94.39 57.9099H100.99V59.3999H94.39V57.9099ZM94.39 60.6001H100.99V62.0901H94.39V60.6001ZM94.39 55.21H100.99V56.7H94.39V55.21Z" fill="#7D21E8"/>
<path fill-rule="evenodd" clip-rule="evenodd" d="M266.62 151.45C269.15 151.45 271.21 153.5 271.21 156.03C271.21 158.56 269.16 160.62 266.62 160.62C264.09 160.62 262.03 158.57 262.03 156.03C262.03 153.51 264.09 151.45 266.62 151.45ZM260 148.89C261.27 148.89 262.29 149.92 262.29 151.18C262.29 152.44 261.26 153.47 260 153.47C258.73 153.47 257.71 152.44 257.71 151.18C257.71 149.92 258.74 148.89 260 148.89Z" fill="white"/>
<path fill-rule="evenodd" clip-rule="evenodd" d="M282.99 105.2L285.43 106.94C285.43 106.94 286.38 102.28 287.6 98.49C288.82 94.69 288.75 90.35 288.01 88.79C287.27 87.23 285.77 87.1001 285.77 87.1001C285.77 87.1001 284 83.7801 280 83.5701C276 83.3701 271.19 83.7101 268.41 82.6201C265.63 81.5401 262.85 84.38 264.48 88.79C266.11 93.2 272.28 92.52 272.28 92.52C272.28 92.52 273.76 102.96 282.99 105.2Z" fill="#5712A6"/>
<path fill-rule="evenodd" clip-rule="evenodd" d="M271.63 112.79L274.52 110.16L276.28 109.36L274.72 104.61L281.47 99.9299L283.1 100L285.86 108.18L287.76 108.49L288.14 112.43C288.14 112.43 274.11 118.3 272.14 117.52C270.17 116.76 271.63 112.79 271.63 112.79Z" fill="#ED87AB"/>
<path fill-rule="evenodd" clip-rule="evenodd" d="M259.41 261.83L267.73 263.18L267.5 272.4L255.22 273.76L253.68 263.96L259.41 261.83Z" fill="#FFABCF"/>
<path fill-rule="evenodd" clip-rule="evenodd" d="M257.06 272.4H257.17H268.25L268.91 279.99H242.13C242.13 279.99 242.94 276 244.88 274.7C246.31 273.74 251.68 273.32 254.33 272.36L253.81 269.69H254.76C256.48 269.7 256.97 271.91 257.06 272.4Z" fill="#4D128F"/>
<path fill-rule="evenodd" clip-rule="evenodd" d="M296.64 261.83L305.06 263.18L305.51 272.4H292.98L290.32 260.74L296.64 261.83Z" fill="#FFABCF"/>
<path fill-rule="evenodd" clip-rule="evenodd" d="M308.19 171.34C308.19 171.34 303.96 210.2 304.17 215.78C304.38 221.36 306.34 235.73 306.36 247.87C306.37 254.1 306.46 261.66 306.56 267.55H290.74C286.95 250.38 279.89 218.02 279.64 214.18C279.29 208.93 278.11 196.67 278.11 196.67C278.11 196.67 274.99 210.73 274.37 213.33C273.75 215.93 274.47 223.82 273.7 227.12C273.02 230.02 269.89 254.42 268.36 267.55H253.31C252.95 250.09 251.27 212.97 251.67 211.46C252.11 209.83 259.49 171.11 259.49 171.11L308.19 171.34Z" fill="#5712A6"/>
<path fill-rule="evenodd" clip-rule="evenodd" d="M286.35 124.95L306.56 122.91C306.56 122.91 310.9 133.26 310.36 149.89C309.81 166.53 307.59 181.55 307.59 181.55C307.59 181.55 299.65 185.69 285.01 185.55C270.36 185.41 257.6 178.06 257.6 178.06C257.6 178.06 263.13 155.15 262.42 144.69C261.7 134.24 286.35 124.95 286.35 124.95Z" fill="#1A8AEB"/>
<path fill-rule="evenodd" clip-rule="evenodd" d="M287.75 108.51C287.75 108.51 287.36 112.03 281.55 113.25C275.73 114.47 274.52 110.17 274.52 110.17C274.52 110.17 262.36 113.15 259.21 115.79C256.07 118.44 251.68 129.44 251.68 129.44L269.63 138.04L311.18 146.49L318.55 130.73C318.55 130.73 312.73 116.61 308.93 113.88C305.13 111.15 287.75 108.51 287.75 108.51Z" fill="#2678FA"/>
<path fill-rule="evenodd" clip-rule="evenodd" d="M265.99 136.89C265.99 136.89 255.57 161.71 248.62 164.02C241.67 166.34 220.41 149.46 220.41 149.46C220.41 149.46 217.02 150.45 213.13 148.71C209.24 146.98 203.12 141.68 203.12 141.68L265.99 136.89Z" fill="#FFABCF"/>
<path fill-rule="evenodd" clip-rule="evenodd" d="M201.48 141.25L209.43 111.58L343.57 147.52C346.46 148.51 350.31 150.9 348.53 157.53L344.91 171.02C343.13 177.65 338.61 177.79 335.61 177.2L201.48 141.25Z" fill="#BDB5ED"/>
<path fill-rule="evenodd" clip-rule="evenodd" d="M323.02 142.01L343.57 147.52C346.46 148.51 350.31 150.9 348.53 157.53L344.91 171.02C343.13 177.65 338.61 177.79 335.61 177.2L315.06 171.69L323.02 142.01Z" fill="#595C9E"/>
<path d="M319.206 141.035L311.264 170.71L319.871 173.013L327.812 143.338L319.206 141.035Z" fill="#E3E3FA"/>
<path fill-rule="evenodd" clip-rule="evenodd" d="M179.76 119.52L185.11 118.09L183.68 123.45L179.76 119.52Z" fill="#454582"/>
<path fill-rule="evenodd" clip-rule="evenodd" d="M183.68 123.45L185.11 118.09L209.43 111.58L201.48 141.25L183.68 123.45Z" fill="#D1CCFF"/>
<path fill-rule="evenodd" clip-rule="evenodd" d="M319.91 172.98L322.04 165.03L344.88 171.15C343.08 177.64 338.6 177.78 335.62 177.19L319.91 172.98Z" fill="#5712A6"/>
<path d="M203.474 133.28L201.341 141.229L311.143 170.686L313.276 162.737L203.474 133.28Z" fill="#A399E3"/>
<path fill-rule="evenodd" clip-rule="evenodd" d="M203.61 133.3L201.48 141.25L183.68 123.45L184.06 122.01L203.61 133.3Z" fill="#BDB5ED"/>
<path fill-rule="evenodd" clip-rule="evenodd" d="M184.06 122.01L183.68 123.45L179.76 119.52L184.06 122.01Z" fill="#1C1761"/>
<path fill-rule="evenodd" clip-rule="evenodd" d="M311.3 170.67L313.43 162.72L317.2 163.73L322.03 165.03L319.91 172.98L315.07 171.68L311.3 170.67Z" fill="#D1CCFF"/>
<path fill-rule="evenodd" clip-rule="evenodd" d="M318.56 130.74C320.25 134.69 323 141.56 324.48 147.58C326.72 156.66 293.96 166.03 293.96 166.03C293.96 166.03 290.1 168.3 284.6 168.3C279.1 168.3 275.63 161.12 275.63 161.12C275.63 161.12 281 160.36 284.15 160.36C287.3 160.36 290.35 161.18 290.35 161.18C290.35 161.18 307.72 145.3 308.06 144.05C308.28 143.24 306.09 138.87 304.56 135.94L318.56 130.74Z" fill="#FFABCF"/>
<path fill-rule="evenodd" clip-rule="evenodd" d="M294.89 271.64L295.07 272.4H306.26L307.48 279.99H280.7C280.7 279.99 281.21 276 283.06 274.7C284.42 273.74 289.76 273.32 292.34 272.36L291.6 269.6H292.76C294.03 269.61 294.63 270.81 294.89 271.64Z" fill="#4D128F"/>
<path fill-rule="evenodd" clip-rule="evenodd" d="M281.46 95.6001C281.46 95.6001 282.14 93.7701 283.43 93.8401C284.72 93.9101 285.81 96.1401 285.26 98.3101C284.72 100.48 283.43 101.16 282.89 101.16C282.34 101.16 281.94 100.96 281.94 100.96C281.94 100.96 281.67 104.35 280.11 106.05C278.55 107.75 274.28 109.24 272.45 108.69C270.62 108.15 270.35 103.61 270.01 100.56C269.67 97.5101 270.15 89.9199 270.15 89.9199L274.56 90.1201C274.56 90.1201 275.03 92.5601 275.98 93.3101C276.93 94.0601 277.74 94.12 278.22 95.28C278.69 96.43 279.1 99.8899 279.1 99.8899L281.14 98.3999L281.46 95.6001Z" fill="#FFABCF"/>
</svg>
