<svg width="13" height="12" viewBox="0 0 13 12" fill="none" xmlns="http://www.w3.org/2000/svg">
<path fill-rule="evenodd" clip-rule="evenodd" d="M0.73999 1.40988C0.0299903 3.51988 0.86 3.90002 1.5 4.81002L0.469971 4.56002C0.409971 5.79002 1.28999 6.72996 2.23999 6.99996C1.98999 7.20996 1.59994 7.18996 1.43994 7.24996C1.85994 8.56996 2.81995 8.90008 3.69995 9.12008C2.71995 9.94008 1.55004 10.0599 0.0400391 10.1399C3.87004 12.4699 8.68 11.2101 10.75 7.36007C11.92 5.17007 11.43 3.84006 11.8 3.35006C12.1 2.94006 12.5499 2.84986 12.9399 2.13986L11.6699 2.41989C12.0399 2.09989 12.4101 1.69007 12.6101 1.11007C11.8801 1.32007 11.2999 1.8799 10.6699 1.4299C10.0599 0.989897 9.53007 0.740082 8.57007 0.870082C6.82007 1.11008 6.32009 2.48 6.34009 4.04C2.77009 4.17 1.36999 2.01988 0.73999 1.40988Z" fill="white"/>
</svg>
