<svg width="12" height="10" viewBox="0 0 12 10" fill="none" xmlns="http://www.w3.org/2000/svg">
<path fill-rule="evenodd" clip-rule="evenodd" d="M0.049983 6.51998C0.199983 8.55998 0.399925 9.07993 2.48992 9.20993C4.12992 9.30993 5.86997 9.30999 7.53997 9.27999C11.44 9.20999 12.1701 9.56987 11.8701 3.39987C11.7701 1.36987 11.4899 0.749877 9.4699 0.659877C7.76991 0.579877 6.01999 0.570072 4.30999 0.610072C2.37999 0.640072 0.789983 0.440014 0.299983 1.80001C-0.070017 2.83001 -0.040017 5.29998 0.049983 6.51998ZM4.75994 3.15988C5.19994 3.26988 7.49997 4.46006 7.78997 4.85006C7.40997 5.16006 5.25993 6.32992 4.74993 6.44992L4.75994 3.15988Z" fill="white"/>
</svg>
